<?xml version="1.0" encoding="UTF-8"?>
<svg width="83px" height="83px" viewBox="0 0 83 83" version="1.1" xmlns="http://www.w3.org/2000/svg" xmlns:xlink="http://www.w3.org/1999/xlink">
    <title>Fill 1</title>
    <g id="Page-1" stroke="none" stroke-width="1" fill="none" fill-rule="evenodd">
        <path d="M77.3282959,48.4286 C77.0672959,47.7396 77.2022959,47.0246 77.4472959,46.3706 C77.7742959,45.4976 78.4592959,44.9226 79.3292959,44.6136 C80.1092959,44.3386 80.9072959,44.1116 81.7042959,43.8886 C82.2932959,43.7236 82.6612959,43.4296 82.7032959,42.7586 C82.7452959,42.0906 82.5332959,41.6346 81.9032959,41.3926 C81.4232959,41.2076 80.9352959,41.0386 80.4402959,40.8986 C79.5982959,40.6596 78.8792959,40.2346 78.2742959,39.5996 C77.6072959,38.8996 77.3362959,37.4686 77.6782959,36.5706 C78.0562959,35.5806 78.7912959,34.9426 79.6722959,34.4356 C80.1032959,34.1866 80.5512959,33.9686 80.9882959,33.7296 C81.6132959,33.3886 81.8342959,32.9796 81.7122959,32.3046 C81.6252959,31.8206 81.4242959,31.3806 80.8692959,31.2916 C80.3272959,31.2046 79.7802959,31.1316 79.2352959,31.1116 C78.4972959,31.0856 77.7942959,30.9226 77.1252959,30.6396 C76.4022959,30.3326 75.9252959,29.7766 75.5952959,29.0576 C75.3352959,28.4916 75.2762959,27.9366 75.3632959,27.3316 C75.4772959,26.5316 75.9492959,25.9306 76.4402959,25.3536 C76.8282959,24.8956 77.2792959,24.4836 77.7362959,24.0906 C78.3442959,23.5696 78.4002959,23.0156 78.0972959,22.3556 C77.8872959,21.8946 77.3342959,21.5066 76.7302959,21.6536 C76.2982959,21.7586 75.8652959,21.8586 75.4282959,21.9356 C74.7542959,22.0546 74.0792959,22.2036 73.3982959,21.9426 C73.2432959,21.8836 73.0512959,21.9206 72.8902959,21.8686 C71.8342959,21.5276 71.1662959,20.7906 70.8492959,19.7466 C70.5912959,18.8976 70.7912959,18.0706 71.1652959,17.3056 C71.4902959,16.6416 71.8992959,16.0176 72.2892959,15.3876 C72.5002959,15.0466 72.6682959,14.7076 72.4992959,14.3096 C72.4102959,14.1016 72.2912959,13.9006 72.1522959,13.7216 C71.8372959,13.3146 71.2482959,13.1846 70.7752959,13.3956 C70.1602959,13.6696 69.5452959,13.9456 68.9292959,14.2166 C67.7862959,14.7216 66.6552959,14.7096 65.5572959,14.0936 C64.5072959,13.5036 63.9142959,12.1336 64.1822959,10.8176 C64.3352959,10.0626 64.5812959,9.3266 64.8002959,8.5866 C64.9922959,7.9336 65.0322959,7.3916 64.3522959,6.9076 C63.9412959,6.6146 63.4772959,6.5176 63.0112959,6.7956 C62.6792959,6.9936 62.3552959,7.2066 62.0482959,7.4406 C61.6502959,7.7416 61.2982959,8.1136 60.8772959,8.3746 C60.4662959,8.6276 60.0092959,8.8486 59.5432959,8.9596 C58.7502959,9.1476 57.9742959,8.9496 57.2872959,8.5426 C56.3132959,7.9656 55.8722959,7.0356 55.8182959,5.9366 C55.7842959,5.2276 55.8502959,4.5136 55.8502959,3.8026 C55.8512959,2.8896 55.7542959,2.5186 55.0352959,2.2696 C54.3512959,2.0336 54.1552959,1.9756 53.6232959,2.5616 C53.4172959,2.7896 53.2322959,3.0346 53.0272959,3.2626 C52.9712959,3.3246 52.8142959,3.3596 52.8162959,3.3996 C52.8342959,3.6816 52.5402959,3.7666 52.4652959,3.9916 C52.4222959,4.1196 52.2872959,4.2166 52.1922959,4.3266 C51.7542959,4.8346 51.2492959,5.2706 50.6162959,5.5016 C49.3702959,5.9586 48.2522959,5.6976 47.3142959,4.7726 C46.6992959,4.1656 46.4672959,3.3516 46.2582959,2.5446 C46.1202959,2.0116 46.0282959,1.4656 45.9252959,0.9236 C45.8532959,0.5416 45.5932959,0.2986 45.2832959,0.1396 C44.5602959,-0.2314 43.7052959,0.1726 43.3972959,0.9316 C43.0112959,1.8836 42.7132959,2.8796 41.9722959,3.6656 C41.6812959,3.9756 41.4152959,4.2936 41.0342959,4.4826 C39.8822959,5.0576 38.7912959,4.9316 37.7582959,4.1746 C37.2362959,3.7916 36.8622959,3.2856 36.5572959,2.7326 C36.2722959,2.2186 36.0362959,1.6776 35.7842959,1.1456 C35.3722959,0.2806 34.4902959,0.2456 33.7712959,0.6926 C33.6872959,0.7446 33.5862959,0.8226 33.5602959,0.9076 C33.4242959,1.3676 33.2782959,1.8286 33.1942959,2.2996 C33.0062959,3.3406 32.9252959,4.3926 32.1962959,5.2786 C31.9222959,5.6126 31.6272959,5.9126 31.2802959,6.0886 C30.1872959,6.6436 29.1042959,6.5966 28.0592959,5.8846 C27.2322959,5.3206 26.6302959,4.5456 25.9812959,3.8106 C25.6652959,3.4526 25.2952959,3.1806 24.7732959,3.3436 C24.0962959,3.5546 23.6482959,3.7246 23.6882959,4.6436 C23.7132959,5.2106 23.7752959,5.7766 23.8312959,6.3426 C23.9222959,7.2756 23.8322959,8.1906 23.3632959,9.0076 C22.9442959,9.7356 22.3082959,10.2476 21.4482959,10.4016 C21.2632959,10.4346 21.0672959,10.4016 20.8762959,10.3956 C20.5652959,10.3856 20.2352959,10.4376 19.9472959,10.3506 C19.0052959,10.0656 18.1702959,9.5686 17.4012959,8.9526 C17.1802959,8.7756 16.9352959,8.6106 16.6742959,8.5006 C16.0412959,8.2366 15.3662959,8.7596 15.1022959,9.2876 C14.9932959,9.5056 14.9492959,9.7496 15.0292959,9.9916 C15.1192959,10.2676 15.2212959,10.5396 15.3202959,10.8136 C15.4042959,11.0436 15.4692959,11.2856 15.5812959,11.5016 C15.6942959,11.7166 15.6972959,11.9566 15.7812959,12.1816 C16.1402959,13.1426 16.0882959,14.1176 15.6172959,15.0356 C15.0932959,16.0576 14.2142959,16.5506 13.0792959,16.6056 C12.2722959,16.6456 11.5192959,16.4116 10.7762959,16.1366 C10.3342959,15.9726 9.9012959,15.7816 9.4512959,15.6486 C9.2402959,15.5876 8.9372959,15.5486 8.7822959,15.6546 C8.5022959,15.8466 8.2472959,16.1246 8.0842959,16.4226 C7.9092959,16.7426 7.7972959,17.1436 8.0662959,17.4836 C8.4372959,17.9556 8.7202959,18.4846 9.0742959,18.9686 C9.3362959,19.3266 9.5142959,19.7486 9.7132959,20.1496 C9.9292959,20.5846 9.9562959,21.0616 9.9712959,21.5376 C9.9872959,22.0966 9.8172959,22.6016 9.5222959,23.0726 C8.8772959,24.1026 7.8912959,24.4856 6.7362959,24.5146 C6.3802959,24.5246 6.0212959,24.4476 5.6632959,24.4216 C3.5872959,23.9626 3.3022959,24.5686 2.9792959,25.2486 C2.7312959,25.7706 3.0422959,26.5116 3.5402959,26.7856 C3.7772959,26.9176 4.9302959,27.9656 5.1922959,28.2786 C5.6422959,28.8146 6.0062959,29.4256 6.0912959,30.1366 C6.2222959,31.2346 5.9152959,32.1816 5.0392959,32.9206 C4.5182959,33.3596 3.8902959,33.5236 3.2622959,33.6806 C2.5882959,33.8486 1.9002959,33.9656 1.2152959,34.0806 C0.651295905,34.1746 0.278295905,34.5776 0.186295905,35.3586 C0.145295905,35.7096 0.483295905,36.2226 0.899295905,36.4426 C1.4902959,36.7556 2.0912959,37.0506 2.6622959,37.3966 C3.6002959,37.9666 4.4422959,38.6306 4.5912959,39.8356 C4.6852959,40.5966 4.5802959,41.3076 4.1852959,41.9836 C3.6952959,42.8216 2.8442959,43.1696 2.0632959,43.6046 C1.6702959,43.8236 1.2292959,43.9596 0.806295905,44.1216 C0.398295905,44.2776 0.0872959048,44.5266 0.0182959048,44.9786 C-0.0157040952,45.2076 0.00829590485,45.4466 0.00729590485,45.6816 C0.00629590485,45.7616 0.105295905,46.0596 0.176295905,46.1176 C0.323295905,46.2366 0.462295905,46.3906 0.633295905,46.4486 C1.0782959,46.5996 1.5372959,46.7136 1.9942959,46.8306 C2.7682959,47.0296 3.5402959,47.1976 4.2402959,47.6376 C5.4262959,48.3836 5.8912959,49.9216 5.4912959,51.1276 C5.2802959,51.7616 4.8952959,52.3156 4.3782959,52.7536 C3.9092959,53.1516 3.4142959,53.5176 2.9422959,53.9126 C2.7102959,54.1056 2.4872959,54.3166 2.2902959,54.5446 C1.9652959,54.9196 2.2732959,56.0196 2.8302959,56.2436 C2.9672959,56.2976 3.1112959,56.3656 3.2542959,56.3666 C4.0952959,56.3736 4.9372959,56.3376 5.7782959,56.3656 C6.7152959,56.3966 7.5572959,56.6996 8.2042959,57.4156 C8.3602959,57.5896 8.5082959,57.7826 8.6052959,57.9926 C8.9132959,58.5546 9.0152959,59.4226 8.9872959,59.7636 C8.9292959,60.4426 8.6312959,61.0496 8.2672959,61.6086 C7.9042959,62.1666 7.4812959,62.6866 7.0752959,63.2166 C6.8082959,63.5636 6.6292959,63.9216 6.7982959,64.3736 C6.8162959,64.4216 7.0152959,64.8046 7.0682959,64.8806 C7.3342959,65.2596 7.7252959,65.3626 8.1432959,65.2856 C8.7232959,65.1786 9.2912959,65.0136 9.8652959,64.8806 C10.0652959,64.8346 10.2712959,64.8156 10.4712959,64.7706 C10.7082959,64.7176 10.9392959,64.6126 11.1772959,64.5936 C12.1582959,64.5166 13.0152959,64.8046 13.6842959,65.5476 C13.8302959,65.7086 13.8912959,65.9506 14.0422959,66.1026 C14.3792959,66.4386 14.5252959,66.8456 14.5722959,67.2976 C14.6642959,68.1896 14.3632959,69.0056 14.0562959,69.8156 C13.8802959,70.2776 13.6482959,70.7186 13.4722959,71.1816 C13.4022959,71.3696 13.3492959,71.6076 13.4032959,71.7906 C13.4822959,72.0606 13.6022959,72.3866 13.8132959,72.5356 C14.1972959,72.8056 14.6592959,72.9796 15.1482959,72.7346 C15.2602959,72.6786 15.3572959,72.5926 15.4702959,72.5376 C16.1502959,72.2026 16.8402959,71.8906 17.5102959,71.5376 C18.5162959,71.0076 19.5062959,71.0506 20.4942959,71.5646 C20.7672959,71.7066 21.0252959,71.8706 21.1622959,72.1786 C21.2072959,72.2786 21.3552959,72.3296 21.4182959,72.4276 C21.6272959,72.7506 21.8492959,73.0606 21.8502959,73.4836 C21.8512959,73.8056 22.0072959,74.1296 21.9902959,74.4466 C21.9492959,75.2216 21.8452959,75.9936 21.7692959,76.7666 C21.7402959,77.0706 21.6282959,77.4516 21.7732959,77.8296 C21.9162959,77.9566 22.0662959,78.0786 22.2182959,78.1946 C22.7452959,78.5946 23.2402959,78.5936 23.7732959,78.2066 C23.8422959,78.1576 24.0562959,77.9146 24.1212959,77.8576 C24.7232959,77.3196 25.3172959,76.7716 25.9452959,76.2646 C26.4232959,75.8776 26.9992959,75.6916 27.6162959,75.6526 C27.6822959,75.6476 27.7602959,75.6626 27.8152959,75.6966 C27.8512959,75.7196 27.8572959,75.7926 27.8762959,75.8426 C27.8962959,75.7806 27.9172959,75.7176 27.9502959,75.6146 C28.3012959,75.7116 28.6622959,75.7796 28.9972959,75.9136 C29.2232959,76.0036 29.3942959,76.2316 29.6192959,76.3176 C30.0892959,76.4976 30.2942959,76.9136 30.4792959,77.2976 C30.7012959,77.7576 30.8262959,78.2716 30.9342959,78.7766 C31.0312959,79.2316 31.0452959,79.7036 31.1042959,80.1666 C31.1442959,80.4846 31.1972959,80.7996 31.2482959,81.1166 C31.2682959,81.2416 31.4482959,81.4916 31.4872959,81.5226 C31.7372959,81.7246 32.0202959,81.8276 32.3362959,81.8806 C32.9362959,81.9796 33.2942959,81.7806 33.5942959,81.2616 C34.0322959,80.5026 34.4612959,79.7276 34.9962959,79.0376 C35.7712959,78.0386 37.0472959,77.5196 38.3742959,77.9836 C39.3032959,78.3096 39.9242959,78.9326 40.3322959,79.7866 C40.5392959,80.2196 40.6622959,80.6926 40.8352959,81.1416 C40.9492959,81.4356 41.1212959,81.7106 41.2062959,82.0116 C41.3422959,82.4926 41.8452959,82.8446 42.3892959,82.8186 C43.1562959,82.7816 43.5012959,82.5496 43.6692959,81.9756 C43.8882959,81.2326 44.1142959,80.4896 44.3692959,79.7586 C44.6842959,78.8546 45.2832959,78.1816 46.1492959,77.7656 C46.5892959,77.5546 47.0612959,77.5166 47.5482959,77.5516 C48.1452959,77.5946 48.7032959,77.7376 49.1582959,78.1376 C49.4692959,78.4106 49.7562959,78.7156 50.0312959,79.0266 C50.2962959,79.3266 50.5402959,79.6476 50.7772959,79.9716 C51.0092959,80.2876 51.2132959,80.6246 51.4432959,80.9416 C51.6242959,81.1926 51.8712959,81.3356 52.1952959,81.3386 C52.4612959,81.3406 52.7052959,81.2736 52.9582959,81.1966 C53.3622959,81.0736 53.6142959,80.8266 53.6432959,80.4166 C53.6972959,79.6706 53.7292959,78.9206 53.7412959,78.1726 C53.7602959,76.8276 54.3292959,75.8166 55.4812959,75.1226 C56.0312959,74.7906 56.6282959,74.7036 57.2522959,74.7936 C58.3342959,74.9476 59.1692959,75.5716 59.9472959,76.2746 C60.1872959,76.4926 60.8532959,77.1516 60.9462959,77.2036 C61.2642959,77.3796 61.5912959,77.4606 61.9452959,77.3176 C62.1672959,77.2286 62.4522959,77.1386 62.7282959,76.8156 C63.0012959,76.4336 63.0002959,76.0226 62.8852959,75.5926 C62.7592959,75.1176 62.6232959,74.6456 62.5212959,74.1656 C62.3802959,73.5106 62.2572959,72.8426 62.4132959,72.1786 C62.6512959,71.1616 63.2582959,70.4066 64.1992959,69.9536 C65.0882959,69.5256 66.0012959,69.6796 66.8672959,70.0156 C67.5752959,70.2906 68.2462959,70.6636 68.9242959,71.0126 C69.3272959,71.2186 69.7262959,71.3046 70.1372959,71.0706 C70.8032959,70.6906 71.1382959,70.1366 70.8472959,69.4746 C70.7362959,69.2206 70.6092959,68.9726 70.4812959,68.7256 C70.1462959,68.0816 69.7942959,67.4486 69.5692959,66.7476 C68.9692959,64.8776 70.1222959,62.9466 72.0242959,62.7146 C73.1272959,62.5796 74.1882959,62.8686 75.2382959,63.1396 C76.1112959,63.3656 76.4312959,63.1686 76.8182959,62.6566 C77.2812959,62.0466 77.3042959,61.6816 76.8192959,61.0806 C76.4272959,60.5976 76.0022959,60.1406 75.5842959,59.6796 C74.9442959,58.9726 74.5412959,58.1596 74.4732959,57.2026 C74.3992959,56.1566 75.1402959,54.9276 76.0702959,54.4566 C76.9132959,54.0286 77.8302959,54.0326 78.7332959,53.9566 C79.0742959,53.9276 79.4162959,53.9186 79.7582959,53.9226 C80.3232959,53.9276 80.7222959,53.7396 80.9832959,53.1806 C81.2232959,52.6676 81.1982959,51.9096 80.6232959,51.5626 C80.0772959,51.2326 79.5532959,50.8676 79.0242959,50.5136 C78.2452959,49.9926 77.6592959,49.3026 77.3282959,48.4286 M28.9052959,55.2296 C29.0072959,54.5906 29.4322959,54.1936 29.9302959,53.8836 C30.8472959,53.3126 31.8072959,53.3176 32.7112959,53.9016 C33.7562959,54.5776 34.8452959,55.1506 36.0362959,55.5126 C37.1082959,55.8386 38.1962959,56.0986 39.3172959,56.1956 C39.8892959,56.2456 40.4602959,56.2846 41.0312959,56.3446 C42.0442959,56.4526 42.6072959,57.1076 42.9762959,57.9826 C43.3112959,58.7786 43.0912959,59.5296 42.7702959,60.2686 C42.3142959,61.3136 41.8542959,62.3576 41.3962959,63.4016 C41.3022959,63.6146 41.2092959,63.8296 41.1062959,64.0376 C41.0902959,64.0696 40.9932959,64.3116 40.9522959,64.4046 C40.4732959,65.4816 39.9792959,66.5526 39.5062959,67.6326 C39.0732959,68.6216 38.6312959,69.6076 38.2462959,70.6156 C37.9162959,71.4816 37.5132959,72.3056 37.0322959,73.0926 C36.5172959,73.9346 35.7652959,74.3946 34.6982959,74.1346 C33.5662959,73.8596 32.4152959,73.6576 31.2892959,73.3616 C30.4692959,73.1466 29.6752959,72.8346 28.8742959,72.5516 C28.7822959,72.5196 27.3702959,71.9156 27.0502959,71.5116 C26.6122959,70.9586 26.3332959,70.3256 26.4542959,69.5876 C26.7932959,67.5126 27.1292959,65.4376 27.4792959,63.3646 C27.8272959,61.2996 28.1892959,59.2366 28.5482959,57.1736 C28.6622959,56.5236 28.8002959,55.8796 28.9052959,55.2296 M8.5382959,46.2116 C8.6542959,45.5466 9.0252959,45.1116 9.5722959,44.7186 C10.1732959,44.2886 10.7732959,44.2406 11.4252959,44.4286 C11.8152959,44.5426 12.1892959,44.7196 12.5622959,44.8866 C13.5052959,45.3076 14.4432959,45.7376 15.3812959,46.1656 C16.3952959,46.6276 17.4052959,47.0986 18.4222959,47.5526 C19.1052959,47.8576 19.8002959,48.1336 20.4842959,48.4356 C21.1282959,48.7206 21.7652959,49.0186 22.4032959,49.3166 C22.7682959,49.4876 23.0352959,49.7556 23.2992959,50.0666 C23.4522959,50.2456 23.6402959,50.4106 23.7592959,50.6236 C23.9862959,51.0266 24.0312959,51.4586 23.9532959,51.9156 C23.8212959,52.6856 23.7122959,53.4586 23.5852959,54.2286 C23.4822959,54.8466 23.3732959,55.4626 23.2552959,56.0776 C23.0412959,57.2076 22.4782959,60.6926 22.3302959,61.2856 C22.2632959,61.5546 22.2612959,61.8246 22.2052959,62.0896 C22.1452959,62.3756 22.0942959,62.6636 22.0372959,62.9506 C21.9792959,63.2476 21.9312959,63.5466 21.8592959,63.8396 C21.6672959,64.6126 21.2852959,65.2326 20.4892959,65.5196 C19.8282959,65.7566 19.1952959,65.6776 18.5642959,65.3996 C17.7952959,65.0616 17.2562959,64.4516 16.7032959,63.8586 C16.3902959,63.5226 16.0962959,63.1666 15.8012959,62.8136 C15.4252959,62.3656 15.0272959,61.9316 14.6932959,61.4536 C14.4562959,61.1126 14.1792959,60.8036 13.9572959,60.4516 C13.6072959,59.8956 13.2032959,59.3726 12.8752959,58.8046 C12.3952959,57.9716 11.9552959,57.1146 11.5112959,56.2626 C11.2012959,55.6676 10.8732959,55.0786 10.6272959,54.4586 C10.1682959,53.2986 9.7232959,52.1306 9.3462959,50.9416 C9.0402959,49.9766 8.8222959,48.9806 8.6052959,47.9896 C8.4782959,47.4076 8.4332959,46.8126 8.5382959,46.2116 M14.0882959,26.9356 C15.3912959,27.1896 16.6922959,27.4566 17.9992959,27.6926 C19.9172959,28.0396 21.8402959,28.3616 23.7612959,28.6966 C24.7822959,28.8746 25.8072959,29.0356 26.8222959,29.2506 C27.2062959,29.3316 27.5872959,29.5016 27.9252959,29.7036 C28.1652959,29.8466 28.3382959,30.1056 28.5252959,30.3276 C28.5682959,30.3776 28.7212959,30.6616 28.7572959,30.7346 C29.1312959,31.4956 29.1072959,32.2536 28.6872959,32.9856 C28.3772959,33.5276 28.0212959,34.0446 27.7172959,34.5896 C27.5462959,34.8966 27.4342959,35.2376 27.3002959,35.5646 C26.8032959,36.7796 26.4972959,38.0486 26.2862959,39.3386 C26.2102959,39.8046 26.2132959,40.2836 26.1622959,40.7536 C26.0942959,41.3966 26.1322959,42.0656 25.6522959,42.6046 C24.8112959,43.5486 23.6932959,43.7736 22.5432959,43.2756 C22.1692959,43.1136 21.7892959,42.9636 21.4202959,42.7906 C20.5402959,42.3806 19.6702959,41.9496 18.7872959,41.5496 C18.2262959,41.2946 17.6412959,41.0926 17.0772959,40.8426 C15.9752959,40.3506 14.8812959,39.8376 13.7802959,39.3406 C12.7682959,38.8836 11.7502959,38.4406 10.7392959,37.9806 C10.4562959,37.8526 10.1862959,37.6936 9.9152959,37.5416 C8.9422959,36.9926 8.2952959,35.8866 8.5932959,34.7546 C8.9182959,33.5216 9.2102959,32.2796 9.5492959,31.0496 C9.8352959,30.0136 10.2012959,29.0036 10.7072959,28.0506 C10.9982959,27.5036 11.4112959,27.1206 12.0312959,26.9526 C12.7222959,26.7646 13.4012959,26.8026 14.0882959,26.9356 M37.5012959,12.5596 C37.3232959,12.9306 37.1612959,13.3086 36.9812959,13.6786 C36.5122959,14.6436 36.1472959,15.6526 35.7092959,16.6296 C35.4242959,17.2656 35.1242959,17.8936 34.8252959,18.5226 C34.7842959,18.6106 34.6522959,18.9106 34.6242959,18.9796 C34.4442959,19.4206 34.2932959,19.8786 34.0622959,20.2906 C33.7302959,20.8796 33.5792959,21.5416 33.2572959,22.1306 C33.0402959,22.5296 32.8642959,22.9566 32.5992959,23.3196 C32.0652959,24.0516 31.2792959,24.3506 30.4182959,24.2096 C27.3482959,23.7066 24.2872959,23.1466 21.2222959,22.6096 C20.4792959,22.4806 19.7322959,22.3696 18.9922959,22.2246 C18.6622959,22.1596 18.3452959,22.0336 18.0222959,21.9346 C17.0112959,21.6246 16.5422959,20.3296 16.6692959,19.4396 C16.7692959,18.7366 17.1032959,18.1226 17.6512959,17.6726 C18.7352959,16.6616 20.9092959,14.3456 24.0932959,12.7196 C24.5342959,12.4416 24.9712959,12.1586 25.4222959,11.8986 C25.7592959,11.7036 25.9972959,11.5216 26.6302959,11.2146 C27.5662959,10.8506 28.5202959,10.4546 29.4922959,10.1066 C30.4832959,9.7536 31.4822959,9.4176 32.4942959,9.1286 C33.5892959,8.8166 34.6932959,8.5116 35.8512959,8.5226 C36.2832959,8.5256 36.6952959,8.6266 37.0332959,8.8996 C37.5132959,9.2886 37.8542959,9.7736 37.9772959,10.3986 C38.1342959,11.1936 37.8302959,11.8756 37.5012959,12.5596 M53.7402959,14.3776 C53.6412959,14.8646 53.4702959,15.3386 53.3252959,15.8156 C53.0392959,16.7586 52.7532959,17.7016 52.4602959,18.6416 C52.2292959,19.3856 51.9842959,20.1246 51.7532959,20.8676 C51.5712959,21.4506 51.3922959,22.0346 51.2252959,22.6216 C50.9562959,23.5676 50.4442959,24.3616 49.6302959,24.8986 C49.0752959,25.2656 48.4522959,25.5256 47.7552959,25.6066 C47.2282959,25.6676 46.7222959,25.6926 46.2092959,25.5626 C45.0082959,25.2586 44.0832959,24.5666 43.4742959,23.5016 C42.8542959,22.4176 42.7652959,21.2686 43.1672959,20.0656 C43.5472959,18.9316 43.8592959,17.7746 44.2052959,16.6296 C44.5192959,15.5876 44.8282959,14.5446 45.1572959,13.5076 C45.3692959,12.8406 45.6072959,12.1806 45.8452959,11.5226 C46.0212959,11.0356 46.3532959,10.6666 46.7332959,10.3186 C47.3112959,9.7886 48.0002959,9.5026 48.7442959,9.3616 C50.0522959,9.1696 51.1762959,9.4306 51.6802959,9.6756 C52.0352959,9.8486 52.4112959,10.1126 52.8522959,10.5346 C53.4642959,11.2246 53.8562959,12.0106 53.8952959,12.9246 C53.9162959,13.4066 53.8362959,13.9006 53.7402959,14.3776 M50.6662959,44.0866 C50.4992959,44.5816 50.3332959,45.0816 50.1122959,45.5536 C49.8812959,46.0486 49.5922959,46.5166 49.3122959,46.9876 C49.2432959,47.1046 48.9742959,47.4446 48.9252959,47.5066 C47.6822959,49.0536 46.1302959,50.1616 44.2512959,50.8096 C43.4282959,51.0936 42.5852959,51.2696 41.7142959,51.3016 C40.5202959,51.3446 39.3402959,51.2756 38.1932959,50.8966 C37.0572959,50.5206 35.9692959,50.0436 35.0292959,49.2926 C34.2482959,48.6676 33.5402959,47.9676 32.9662959,47.1376 C32.1002959,45.8846 31.4982959,44.5256 31.2592959,43.0156 C31.0422959,41.6386 31.0432959,40.2626 31.4052959,38.9126 C31.7592959,37.5886 32.3122959,36.3556 33.1592959,35.2546 C34.0192959,34.1356 35.0462959,33.2126 36.2792959,32.5456 C37.0622959,32.1216 37.8912959,31.7926 38.7832959,31.6036 C39.6222959,31.4266 40.4562959,31.3236 41.3082959,31.3366 C42.3332959,31.3506 43.3352959,31.5066 44.2972959,31.8686 C44.7512959,32.0396 45.2112959,32.2076 45.6362959,32.4356 C46.1812959,32.7266 46.7332959,33.0286 47.2082959,33.4166 C47.7602959,33.8656 48.2512959,34.3966 48.7322959,34.9256 C49.3312959,35.5836 49.8212959,36.3256 50.1682959,37.1486 C50.3112959,37.4856 50.7942959,38.8396 50.8062959,38.9376 C50.9062959,39.7706 51.0452959,40.6036 51.0662959,41.4396 C51.0882959,42.3356 50.9542959,43.2286 50.6662959,44.0866 M51.7162959,58.4926 C53.9122959,58.8526 56.1002959,59.2606 58.2912959,59.6466 C58.6722959,59.7136 59.0582959,59.7526 59.4352959,59.8336 C59.7652959,59.9036 60.1002959,59.9326 60.4302959,60.0036 C60.7802959,60.0786 61.1332959,60.1436 61.4862959,60.2096 C61.8472959,60.2786 62.2102959,60.3426 62.5712959,60.4116 C62.9232959,60.4776 63.2732959,60.5586 63.6272959,60.6136 C64.1152959,60.6886 64.5192959,60.9336 64.8282959,61.2866 C65.2082959,61.7206 65.5702959,62.1886 65.5962959,62.8096 C65.6042959,63.0226 65.5872959,63.2386 65.5832959,63.4436 C65.5984097,63.9446 64.7242959,64.9156 64.5682959,65.0536 C63.7672959,65.7666 62.9702959,66.4846 62.1382959,67.1606 C61.4152959,67.7466 60.6652959,68.3036 59.8962959,68.8296 C59.0812959,69.3856 58.2392959,69.9036 57.3942959,70.4146 C56.9322959,70.6936 56.4582959,70.9696 55.9562959,71.1566 C55.6232959,71.2806 55.3562959,71.5056 55.0272959,71.6226 C54.6882959,71.7426 54.3652959,71.9116 54.0322959,72.0496 C53.6872959,72.1926 53.3462959,72.3556 52.9882959,72.4556 C52.5802959,72.5676 52.2102959,72.7736 51.7962959,72.8696 C51.3512959,72.9726 50.9182959,73.1276 50.4782959,73.2536 C50.0352959,73.3806 49.5952959,73.5336 49.1442959,73.6066 C48.8352959,73.6566 48.5642959,73.8066 48.2602959,73.8546 C47.9192959,73.9096 47.5822959,73.9926 47.2402959,74.0466 C46.2632959,74.2016 45.3782959,74.0026 44.7242959,73.2256 C44.1312959,72.5216 43.7932959,71.7016 44.2802959,70.6786 C44.7512959,69.6916 45.1882959,68.6866 45.6392959,67.6896 C46.4142959,65.9786 47.1882959,64.2686 47.9592959,62.5566 C48.3782959,61.6246 48.7342959,60.6596 49.2192959,59.7646 C49.7592959,58.7676 50.6012959,58.3096 51.7162959,58.4926 M72.9512959,37.8226 C72.3962959,38.1886 71.7682959,38.3976 70.8272959,38.1936 C70.4722959,38.0406 69.8872959,37.7916 69.3052959,37.5366 C68.3142959,37.1016 67.3222959,36.6686 66.3352959,36.2256 C64.8662959,35.5656 63.4002959,34.8996 61.9342959,34.2316 C61.1252959,33.8636 60.3132959,33.4996 59.5132959,33.1116 C58.3082959,32.5256 57.9512959,31.4006 58.1642959,30.2506 C58.6752959,27.4856 59.1662959,24.7156 59.6632959,21.9476 C59.8532959,20.8886 60.0262959,19.8276 60.2312959,18.7716 C60.3702959,18.0566 60.7132959,17.4626 61.4022959,17.1386 C62.1932959,16.7646 63.0232959,16.6136 63.8362959,17.0076 C64.6942959,17.3336 65.4442959,18.3966 65.6822959,18.6606 C66.6582959,19.6736 68.8382959,22.6666 69.1772959,23.1616 C69.8942959,24.2046 70.5072959,25.3076 71.0632959,26.4436 C71.3402959,27.0116 71.6062994,27.5886 71.8412959,28.1756 C72.1182959,28.8676 72.3592959,29.5726 72.6102959,30.2746 C72.8222959,30.8686 73.0512959,31.4566 73.2292959,32.0606 C73.4452959,32.8006 73.6592959,33.5446 73.7942959,34.3026 C73.9062959,34.9316 73.9652959,35.5856 73.9342959,36.2226 C73.9012959,36.8996 73.5082959,37.4536 72.9512959,37.8226 M73.8112959,47.6536 C73.6902959,48.2496 73.5612959,48.8446 73.4192959,49.4366 C73.2782959,50.0206 73.1392959,50.6086 72.9582959,51.1806 C72.7192959,51.9416 72.4462959,52.6926 72.1722959,53.4426 C72.1272959,53.5676 71.5602959,54.9586 71.1042959,55.3266 C70.5402959,55.7836 69.8882959,56.0556 69.1362959,55.9236 C67.3442959,55.6066 65.5522959,55.2816 63.7602959,54.9576 C62.5912959,54.7456 61.4232959,54.5226 60.2522959,54.3176 C58.7942959,54.0626 57.3312959,53.8286 55.8732959,53.5706 C55.4102959,53.4886 54.9422959,53.3966 54.5002959,53.2426 C54.0342959,53.0796 53.7142959,52.6996 53.4732959,52.2856 C52.9342959,51.3576 52.9462959,50.4116 53.5302959,49.5086 C54.1192959,48.5966 54.6682959,47.6686 55.0212959,46.6356 C55.4322959,45.4316 55.7632959,44.2096 55.8852959,42.9396 C55.9402959,42.3586 55.9812959,41.7766 56.0512959,41.1986 C56.1742959,40.1916 56.8412959,39.6366 57.7172959,39.2846 C58.4032959,39.0096 59.0812959,39.1286 59.7332959,39.4136 C60.8522959,39.9026 61.9672959,40.4046 63.0792959,40.9076 C63.3172959,41.0156 63.5412959,41.1556 63.7922959,41.2916 C63.7942959,41.2836 64.5002959,41.5416 64.5572959,41.5676 C65.4712959,41.9856 66.3832959,42.4056 67.2912959,42.8336 C67.4642959,42.9146 68.4242959,43.3126 68.7262959,43.4466 C69.7352959,43.8926 70.7342959,44.3636 71.7402959,44.8176 C72.3442959,45.0906 72.9212959,45.3986 73.3782959,45.8946 C73.8442959,46.4016 73.9432959,47.0016 73.8112959,47.6536" id="Fill-1" fill="#12120D"></path>
    </g>
</svg>