<?xml version="1.0" encoding="UTF-8"?>
<svg width="14px" height="14px" viewBox="0 0 14 14" version="1.1" xmlns="http://www.w3.org/2000/svg" xmlns:xlink="http://www.w3.org/1999/xlink">
    <title>footer-icon-location</title>
    <g id="Symbols" stroke="none" stroke-width="1" fill="none" fill-rule="evenodd">
        <g id="footer/desktop" transform="translate(-380.000000, -105.000000)">
            <g id="div" transform="translate(152.000000, 60.000000)">
                <g id="kontakt" transform="translate(228.000000, 0.000000)">
                    <g id="anschrift" transform="translate(0.000000, 42.000000)">
                        <g id="footer-icon-location" transform="translate(0.000000, 3.000000)">
                            <rect id="wrapper" x="0" y="0" width="14" height="14"></rect>
                            <path d="M3.46451429,1.46456545 C2.5268,2.40216162 2,3.67392786 2,4.99997959 C2,8.72510724 6.53,11.7850948 6.72514286,11.9148085 C6.80672857,11.9686026 6.90237429,11.9972853 7.00014286,11.9972853 C7.09791143,11.9972853 7.19355714,11.9686026 7.27514286,11.9148085 C7.47012,11.7848976 12.0002857,8.72482153 12.0002857,4.99997959 C12.0002857,4.12229746 11.76926,3.26004384 11.3304286,2.4999898 C10.8916,1.73993576 10.2603429,1.10870976 9.50028571,0.669854409 C8.74022857,0.231027628 7.87797143,0 7.00028571,0 C5.67382857,0 4.40205714,0.526854992 3.46451429,1.46456545 Z M7,7 C6.46955429,7 5.96089143,6.78928457 5.58580571,6.41419429 C5.21072,6.039104 5,5.53044571 5,5 C5,4.46955429 5.21071543,3.96089143 5.58580571,3.58580571 C5.960896,3.21072 6.46955429,3 7,3 C7.53044571,3 8.03910857,3.21071543 8.41419429,3.58580571 C8.78928,3.960896 9,4.46955429 9,5 C9,5.53044571 8.78928457,6.03910857 8.41419429,6.41419429 C8.039104,6.78928 7.53044571,7 7,7 Z M12,11.9166752 C12,13.2832886 9.5,14 7,14 C4.5,14 2,13.2832886 2,11.9166752 C2,11.2416303 2.61254762,10.7249896 3.53328571,10.3750148 C3.71520476,10.6212043 3.90985714,10.8576319 4.11661905,11.0833452 C3.30411905,11.3166967 2.83333333,11.6542239 2.83333333,11.9166752 C2.83333333,12.4124827 4.5,13.1666701 7,13.1666701 C9.5,13.1666701 11.1666667,12.4124827 11.1666667,11.9166752 C11.1666667,11.6542239 10.695881,11.3167014 9.88338095,11.062512 C10.0833429,10.8499938 10.2792143,10.6208233 10.4667143,10.3792053 C11.3874762,10.7249896 12,11.2416541 12,11.9166752 Z" id="location" fill="#FFFFFF" fill-rule="nonzero"></path>
                        </g>
                    </g>
                </g>
            </g>
        </g>
    </g>
</svg>