<?xml version="1.0" encoding="UTF-8"?>
<svg width="14px" height="14px" viewBox="0 0 14 14" version="1.1" xmlns="http://www.w3.org/2000/svg" xmlns:xlink="http://www.w3.org/1999/xlink">
    <title>footer-icon-tel</title>
    <g id="Symbols" stroke="none" stroke-width="1" fill="none" fill-rule="evenodd">
        <g id="footer/desktop" transform="translate(-380.000000, -181.000000)">
            <g id="div" transform="translate(152.000000, 60.000000)">
                <g id="kontakt" transform="translate(228.000000, 0.000000)">
                    <g id="tel" transform="translate(0.000000, 118.000000)">
                        <g id="footer-icon-tel" transform="translate(0.000000, 3.000000)">
                            <rect id="wrapper" x="0" y="0" width="14" height="14"></rect>
                            <path d="M14,10.7550568 L14,12.4999863 C14,12.8978624 13.8419695,13.2793104 13.5607248,13.560675 C13.2793687,13.8419197 12.8979121,14 12.5000359,14 L11.5000599,14 C9.98938179,14.0044144 8.49270336,13.7088715 7.09702251,13.130314 C5.7013988,12.5518707 4.43468629,11.7020055 3.36996894,10.6300313 C2.29799462,9.56542833 1.44812927,8.29871596 0.869685981,6.90297812 C0.291128412,5.50735457 -0.00440736501,4.01076202 0,2.49994123 L0,1.4999653 C0,1.10208916 0.158080171,0.7206412 0.439324862,0.439276543 C0.720680979,0.158031883 1.10213755,0 1.50001374,0 L3.24494336,0 C3.57162125,-0.000445016776 3.88955649,0.105801712 4.15037882,0.302451265 C4.41119828,0.499209386 4.6005966,0.775754159 4.68988018,1.08991803 L5.31989366,3.29489353 C5.39400045,3.55225305 5.39790607,3.82479506 5.33105396,4.08427453 C5.26420413,4.34364257 5.12916165,4.58034831 4.9398919,4.76985803 L3.7449491,5.9648007 C4.60364282,7.87032627 6.12937769,9.39614669 8.03484633,10.2546975 L9.22978913,9.05975478 C9.41929316,8.87047363 9.65600749,8.73541973 9.91537271,8.66859277 C10.1748522,8.60174295 10.4473885,8.60564857 10.7047538,8.67975307 L12.9097295,9.30976648 C13.2238934,9.39905005 13.5004583,9.58844263 13.6971964,9.84926778 C13.8938431,10.1100872 14,10.4280539 13.9996463,10.7547031 L14,10.7550568 Z" id="tel" fill="#FFFFFF" fill-rule="nonzero"></path>
                        </g>
                    </g>
                </g>
            </g>
        </g>
    </g>
</svg>