<?xml version="1.0" encoding="UTF-8"?>
<svg width="14px" height="14px" viewBox="0 0 14 14" version="1.1" xmlns="http://www.w3.org/2000/svg" xmlns:xlink="http://www.w3.org/1999/xlink">
    <title>footer-icon-quote</title>
    <g id="Symbols" stroke="none" stroke-width="1" fill="none" fill-rule="evenodd">
        <g id="footer/desktop" transform="translate(-380.000000, -289.000000)">
            <g id="div" transform="translate(152.000000, 60.000000)">
                <g id="kontakt" transform="translate(228.000000, 0.000000)">
                    <g id="webformular" transform="translate(0.000000, 226.000000)">
                        <g id="footer-icon-quote" transform="translate(0.000000, 3.000000)">
                            <rect id="wrapper" x="0" y="0" width="14" height="14"></rect>
                            <path d="M12.500102,0 L1.50001224,0 C1.10212328,0 0.720663026,0.158037079 0.4392893,0.439283311 C0.158035576,0.720640968 0,1.10209963 0,1.49997799 L0,9.49983016 C0,9.89770852 0.158035576,10.2791586 0.4392893,10.5605248 C0.720654454,10.8417711 1.10212328,10.9998024 1.50001224,10.9998024 L2.50002041,10.9998024 L2.50002041,13.4997562 C2.50046684,13.5984144 2.53026637,13.6948412 2.58540111,13.7766483 C2.64053584,13.8585667 2.71866219,13.9222941 2.81006865,13.9597934 C2.86933199,13.9876946 2.9344011,14.0014213 3.00002449,13.9998837 C3.13294843,14.0005282 3.26062947,13.9482965 3.35505596,13.8547725 L6.20507923,10.9997967 L12.4999878,10.9997967 C12.8978767,10.9997967 13.279337,10.8417654 13.5607107,10.5605191 C13.8419644,10.2791615 14,9.8977028 14,9.49982444 L14,1.49997228 C14,1.10209392 13.8419644,0.720643825 13.5607107,0.439277596 C13.2793455,0.158031365 12.8978767,0 12.4999878,0 L12.500102,0 Z M7.00005306,1.99996875 C7.1326468,1.99996875 7.25988212,2.05264778 7.35363146,2.14639462 C7.44738079,2.24014146 7.50005306,2.36737339 7.50005306,2.49996875 C7.50005306,2.63254564 7.44738079,2.75977757 7.35363146,2.85352441 C7.25988212,2.94727125 7.1326468,2.99995027 7.00005306,2.99995027 C6.86746749,2.99995027 6.74023217,2.94727125 6.64648283,2.85352441 C6.55273349,2.75977757 6.50005306,2.63254564 6.50005306,2.49996875 C6.50005306,2.36737339 6.55273349,2.24014146 6.64648283,2.14639462 C6.74023217,2.05264778 6.86746749,1.99996875 7.00005306,1.99996875 Z M8.00006531,8.9998394 L6.00005204,8.9998394 C5.82136466,8.9998394 5.65630332,8.90452973 5.56701687,8.74984402 C5.47773043,8.5951583 5.47773043,8.40453611 5.56701687,8.24985326 C5.65630332,8.0951704 5.82137038,7.99985788 6.00005204,7.99985788 L6.50005204,7.99985788 L6.50005204,4.99991332 L6.00005204,4.99991332 C5.82136466,4.99991332 5.65630332,4.90460365 5.56701687,4.74991794 C5.47773043,4.59523222 5.47773043,4.40461003 5.56701687,4.24992718 C5.65630332,4.09524432 5.82137038,3.9999318 6.00005204,3.9999318 L7.00005204,3.9999318 C7.1326468,3.9999318 7.25988212,4.05261082 7.35363146,4.14635766 C7.44738079,4.2401045 7.50005204,4.36733643 7.50005204,4.4999318 L7.50005204,7.99985788 L8.00006531,7.99985788 C8.17874962,7.99985788 8.34381097,8.09516754 8.43309741,8.24985326 C8.52238386,8.40453897 8.52238386,8.59516116 8.43309741,8.74984402 C8.34381097,8.90452687 8.17874391,8.9998394 8.00006531,8.9998394 Z" id="quote" fill="#FFFFFF" fill-rule="nonzero"></path>
                        </g>
                    </g>
                </g>
            </g>
        </g>
    </g>
</svg>