<?xml version="1.0" encoding="UTF-8"?>
<svg width="14px" height="14px" viewBox="0 0 14 14" version="1.1" xmlns="http://www.w3.org/2000/svg" xmlns:xlink="http://www.w3.org/1999/xlink">
    <title>footer-icon-email</title>
    <g id="Symbols" stroke="none" stroke-width="1" fill="none" fill-rule="evenodd">
        <g id="footer/desktop" transform="translate(-380.000000, -256.000000)">
            <g id="div" transform="translate(152.000000, 60.000000)">
                <g id="kontakt" transform="translate(228.000000, 0.000000)">
                    <g id="email" transform="translate(0.000000, 193.000000)">
                        <g id="footer-icon-email" transform="translate(0.000000, 3.000000)">
                            <rect id="wrapper" x="0" y="0" width="14" height="14"></rect>
                            <path d="M6.99997714,7.81993349 L0.85512,2.14999829 C1.05623714,2.05256511 1.27666286,2.00133998 1.50009143,2 L12.5000914,2 C12.7235286,2.00133927 12.9439486,2.05256511 13.1450629,2.14999829 L6.99997714,7.81993349 Z M13.8499771,2.85513308 L7.34997714,8.85506451 C7.25756571,8.94077782 7.13602571,8.98843442 7.01003429,8.98843442 C6.88391714,8.98843442 6.76248857,8.94077782 6.66997714,8.85506451 L0.169977143,2.85513308 C0.0656257143,3.05457366 0.00758857143,3.27509971 0,3.50009714 L0,10.5000171 C0,10.8978983 0.158034286,11.2793511 0.439285714,11.5607193 C0.720648571,11.8419675 1.10211429,12 1.5,12 L12.5,12 C12.8978857,12 13.2793429,11.8419675 13.5607143,11.5607193 C13.8419657,11.2793597 14,10.8978983 14,10.5000171 L14,3.50009714 C13.9986607,3.27666255 13.9474343,3.05624507 13.85,2.85513308 L13.8499771,2.85513308 Z" id="email" fill="#FFFFFF" fill-rule="nonzero"></path>
                        </g>
                    </g>
                </g>
            </g>
        </g>
    </g>
</svg>