<?xml version="1.0" encoding="UTF-8"?>
<svg width="14px" height="14px" viewBox="0 0 14 14" version="1.1" xmlns="http://www.w3.org/2000/svg" xmlns:xlink="http://www.w3.org/1999/xlink">
    <title>footer-icon-fax</title>
    <g id="Symbols" stroke="none" stroke-width="1" fill="none" fill-rule="evenodd">
        <g id="footer/desktop" transform="translate(-380.000000, -217.000000)">
            <g id="div" transform="translate(152.000000, 60.000000)">
                <g id="kontakt" transform="translate(228.000000, 0.000000)">
                    <g id="fax" transform="translate(0.000000, 154.000000)">
                        <g id="footer-icon-fax" transform="translate(0.000000, 3.000000)">
                            <rect id="wrapper" x="0" y="0" width="14" height="14"></rect>
                            <path d="M12,4.00001221 L5,4.00001221 L5,13.0000012 L12,13.0000012 C12.3978857,13.0000012 12.7793429,12.8419671 13.0607143,12.560716 C13.3419657,12.2793535 13.5,11.8978883 13.5,11.5000122 L13.5,5.50001221 C13.5,5.10212515 13.3419657,4.72066847 13.0607143,4.43929739 C12.7793514,4.1580463 12.3978857,4.00001221 12,4.00001221 Z M7,11.0000049 C6.86741143,11.0000049 6.74017714,10.9473237 6.64642857,10.8535753 C6.55268,10.7598268 6.5,10.6325927 6.5,10.5000049 C6.5,10.3674159 6.55268,10.2401817 6.64642857,10.1464333 C6.74017714,10.0526848 6.86741143,10.0000049 7,10.0000049 C7.13258857,10.0000049 7.25982286,10.0526848 7.35357143,10.1464333 C7.44732,10.2401817 7.5,10.3674159 7.5,10.5000049 C7.5,10.6325927 7.44732,10.7598268 7.35357143,10.8535753 C7.25982286,10.9473237 7.13258857,11.0000049 7,11.0000049 Z M7,9.00000732 C6.86741143,9.00000732 6.74017714,8.94732617 6.64642857,8.85357771 C6.55268,8.75982925 6.5,8.63259512 6.5,8.50000732 C6.5,8.3674183 6.55268,8.24018417 6.64642857,8.14643572 C6.74017714,8.05268726 6.86741143,8.00000732 7,8.00000732 C7.13258857,8.00000732 7.25982286,8.05268726 7.35357143,8.14643572 C7.44732,8.24018417 7.5,8.3674183 7.5,8.50000732 C7.5,8.63259512 7.44732,8.75982925 7.35357143,8.85357771 C7.25982286,8.94732617 7.13258857,9.00000732 7,9.00000732 Z M9,11.0000049 C8.86741143,11.0000049 8.74017714,10.9473237 8.64642857,10.8535753 C8.55268,10.7598268 8.5,10.6325927 8.5,10.5000049 C8.5,10.3674159 8.55268,10.2401817 8.64642857,10.1464333 C8.74017714,10.0526848 8.86741143,10.0000049 9,10.0000049 C9.13258857,10.0000049 9.25982286,10.0526848 9.35357143,10.1464333 C9.44732,10.2401817 9.5,10.3674159 9.5,10.5000049 C9.5,10.6325927 9.44732,10.7598268 9.35357143,10.8535753 C9.25982286,10.9473237 9.13258857,11.0000049 9,11.0000049 Z M9,9.00000732 C8.86741143,9.00000732 8.74017714,8.94732617 8.64642857,8.85357771 C8.55268,8.75982925 8.5,8.63259512 8.5,8.50000732 C8.5,8.3674183 8.55268,8.24018417 8.64642857,8.14643572 C8.74017714,8.05268726 8.86741143,8.00000732 9,8.00000732 C9.13258857,8.00000732 9.25982286,8.05268726 9.35357143,8.14643572 C9.44732,8.24018417 9.5,8.3674183 9.5,8.50000732 C9.5,8.63259512 9.44732,8.75982925 9.35357143,8.85357771 C9.25982286,8.94732617 9.13258857,9.00000732 9,9.00000732 Z M11,11.0000049 C10.8674114,11.0000049 10.7401771,10.9473237 10.6464286,10.8535753 C10.55268,10.7598268 10.5,10.6325927 10.5,10.5000049 C10.5,10.3674159 10.55268,10.2401817 10.6464286,10.1464333 C10.7401771,10.0526848 10.8674114,10.0000049 11,10.0000049 C11.1325886,10.0000049 11.2598229,10.0526848 11.3535714,10.1464333 C11.44732,10.2401817 11.5,10.3674159 11.5,10.5000049 C11.5,10.6325927 11.44732,10.7598268 11.3535714,10.8535753 C11.2598229,10.9473237 11.1325886,11.0000049 11,11.0000049 Z M11,9.00000732 C10.8674114,9.00000732 10.7401771,8.94732617 10.6464286,8.85357771 C10.55268,8.75982925 10.5,8.63259512 10.5,8.50000732 C10.5,8.3674183 10.55268,8.24018417 10.6464286,8.14643572 C10.7401771,8.05268726 10.8674114,8.00000732 11,8.00000732 C11.1325886,8.00000732 11.2598229,8.05268726 11.3535714,8.14643572 C11.44732,8.24018417 11.5,8.3674183 11.5,8.50000732 C11.5,8.63259512 11.44732,8.75982925 11.3535714,8.85357771 C11.2598229,8.94732617 11.1325886,9.00000732 11,9.00000732 Z M11.0000071,7.00000977 L7.00000714,7.00000977 C6.82131714,7.00000977 6.65625714,6.90469723 6.56697143,6.75000885 C6.47768571,6.59532047 6.47768571,6.40469499 6.56697143,6.25000946 C6.65625714,6.09532394 6.82132286,6.00000977 7.00000714,6.00000977 L11.0000071,6.00000977 C11.1786829,6.00000977 11.3437429,6.09532108 11.4330286,6.25000946 C11.5223143,6.40469784 11.5223143,6.59532333 11.4330286,6.75000885 C11.3437429,6.90469438 11.1786771,7.00000977 11.0000071,7.00000977 Z M4,4.50001343 L4,12.5000018 C4,12.8978871 3.84196571,13.2793437 3.56071429,13.5607148 C3.27935143,13.8419659 2.89788571,14 2.5,14 L2,14 C1.60211429,14 1.22065714,13.8419659 0.939285714,13.5607148 C0.658034286,13.2793523 0.5,12.8978871 0.5,12.5000018 L0.5,4.50001343 C0.5,4.10212637 0.658034286,3.72066969 0.939285714,3.43929861 C1.22064857,3.15804752 1.60211429,3.00001343 2,3.00001343 L2.5,3.00001343 C2.89788571,3.00001343 3.27934286,3.15804752 3.56071429,3.43929861 C3.84196571,3.72066112 4,4.10212637 4,4.50001343 Z M12.0000144,3.00000845 L5,3.00000845 L5,0.500008451 C5,0.367428071 5.05268,0.24019394 5.14642857,0.146445483 C5.24017714,0.0526970262 5.36741143,8.45091745e-06 5.5,8.45091745e-06 L10,8.45091745e-06 C10.1329229,-0.000764165651 10.2606029,0.0514684563 10.3550286,0.144994056 L11.8550286,1.64499223 C11.9485543,1.73941211 12.0007886,1.8670891 12.0000144,2.00002036 L12.0000144,3.00000845 Z" id="fax" fill="#FFFFFF" fill-rule="nonzero"></path>
                        </g>
                    </g>
                </g>
            </g>
        </g>
    </g>
</svg>