<?xml version="1.0" encoding="UTF-8"?>
<svg width="24px" height="24px" viewBox="0 0 24 24" version="1.1" xmlns="http://www.w3.org/2000/svg" xmlns:xlink="http://www.w3.org/1999/xlink">
    <title>header/mobile/icons/burger_menu</title>
    <g id="header/mobile/icons/burger_menu" stroke="none" stroke-width="1" fill="none" fill-rule="evenodd">
        <rect id="wrapper" x="0" y="0" width="24" height="24"></rect>
        <path d="M1,3 L23,3 C23.5522847,3 24,3.44771525 24,4 C24,4.55228475 23.5522847,5 23,5 L1,5 C0.44771525,5 6.76353751e-17,4.55228475 0,4 C-6.76353751e-17,3.44771525 0.44771525,3 1,3 Z M1,11 L23,11 C23.5522847,11 24,11.4477153 24,12 C24,12.5522847 23.5522847,13 23,13 L1,13 C0.44771525,13 6.76353751e-17,12.5522847 0,12 C-6.76353751e-17,11.4477153 0.44771525,11 1,11 Z M1,19 L23,19 C23.5522847,19 24,19.4477153 24,20 C24,20.5522847 23.5522847,21 23,21 L1,21 C0.44771525,21 6.76353751e-17,20.5522847 0,20 C-6.76353751e-17,19.4477153 0.44771525,19 1,19 Z" id="burger-menu" fill="#1A1A18"></path>
    </g>
</svg>