<?xml version="1.0" encoding="UTF-8"?>
<svg width="24px" height="24px" viewBox="0 0 24 24" version="1.1" xmlns="http://www.w3.org/2000/svg" xmlns:xlink="http://www.w3.org/1999/xlink">
    <title>header/mobile/icons/close</title>
    <g id="header/mobile/icons/close" stroke="none" stroke-width="1" fill="none" fill-rule="evenodd">
        <rect id="wrapper" x="0" y="0" width="24" height="24"></rect>
        <path d="M3.51471863,2.10050506 L11.9996118,10.5846118 L20.4852814,2.10050506 C20.8457653,1.7400211 21.4129964,1.71229157 21.8052876,2.01731646 L21.8994949,2.10050506 C22.2900192,2.49102936 22.2900192,3.12419433 21.8994949,3.51471863 L21.8994949,3.51471863 L13.4136118,11.9996118 L21.8994949,20.4852814 C22.2900192,20.8758057 22.2900192,21.5089706 21.8994949,21.8994949 C21.5089706,22.2900192 20.8758057,22.2900192 20.4852814,21.8994949 L11.9996118,13.4136118 L3.51471863,21.8994949 C3.15423466,22.2599789 2.58700361,22.2877084 2.1947124,21.9826835 L2.10050506,21.8994949 C1.70998077,21.5089706 1.70998077,20.8758057 2.10050506,20.4852814 L2.10050506,20.4852814 L10.5846118,11.9996118 L2.10050506,3.51471863 C1.70998077,3.12419433 1.70998077,2.49102936 2.10050506,2.10050506 C2.49102936,1.70998077 3.12419433,1.70998077 3.51471863,2.10050506 Z" id="close" fill="#1A1A18"></path>
    </g>
</svg>