<?xml version="1.0" encoding="UTF-8"?>
<svg width="151px" height="62px" viewBox="0 0 151 62" version="1.1" xmlns="http://www.w3.org/2000/svg" xmlns:xlink="http://www.w3.org/1999/xlink">
    <title>logo/header</title>
    <g id="logo/header" stroke="none" stroke-width="1" fill="none" fill-rule="evenodd">
        <path d="M32.6572197,0.695942545 C32.890358,0.127006266 33.5371288,-0.17243388 34.0786114,0.104548255 C34.3117497,0.21683831 34.5072851,0.403988402 34.5599293,0.688456541 C34.6351352,1.09270074 34.7028205,1.50443094 34.8081088,1.90118913 C34.9660412,2.50755543 35.1390148,3.11392173 35.6052914,3.57056795 C36.312227,4.26676629 37.1470127,4.46140239 38.0870866,4.11704622 C38.5684044,3.94486813 38.944434,3.62296998 39.27534,3.24118379 C39.3430253,3.15135175 39.4483136,3.08397771 39.478396,2.98665967 C39.5310401,2.82196758 39.7566578,2.75459355 39.7416167,2.54498545 C39.7416167,2.51504143 39.8544255,2.48509742 39.8995491,2.4401814 C40.0574815,2.26800331 40.1928521,2.08833923 40.3507845,1.91616114 C40.7493759,1.48197293 40.8997877,1.51940295 41.4111879,1.69906704 C41.9451499,1.88621713 42.0203558,2.16319926 42.0203558,2.8444256 C42.0203558,3.37593186 41.9752323,3.90743812 41.997794,4.43894438 C42.035397,5.26240478 42.3738236,5.95860312 43.103321,6.39279133 C43.6222418,6.69971748 44.2088479,6.84943756 44.8029746,6.70720349 C45.1489218,6.61737144 45.494869,6.45267936 45.8032132,6.26552927 C46.1190781,6.07089317 46.3822988,5.79391104 46.6831224,5.56933093 C46.9087402,5.39715284 47.1569197,5.23994677 47.4050992,5.09022669 C47.7510464,4.88061859 48.1045142,4.95547863 48.4128584,5.17257273 C48.9242586,5.53190091 48.8941763,5.94363111 48.751285,6.43022135 C48.585832,6.98418562 48.3978172,7.53066389 48.2850084,8.09960017 C48.089473,9.08775265 48.5331879,10.1133352 49.32285,10.5550094 C50.150115,11.0116556 50.9999418,11.0191416 51.8572892,10.6448414 C52.3235659,10.4427193 52.782322,10.2331112 53.2485986,10.0309891 C53.609587,9.87378304 54.0457813,9.97110108 54.2864402,10.2780272 C54.3917285,10.4127753 54.4819756,10.5624954 54.5496609,10.7197014 C54.677511,11.0191416 54.5496609,11.2736657 54.3917285,11.5281898 C54.0984254,11.9998081 53.7900812,12.4714263 53.5494223,12.9655025 C53.2636398,13.5344388 53.113228,14.1557771 53.3087634,14.7920874 C53.5494223,15.5706318 54.0457813,16.1245961 54.842964,16.3791202 C54.9632934,16.4165502 55.1137053,16.3866062 55.2265141,16.4315222 C55.7379143,16.6336443 56.2493146,16.5213543 56.7531942,16.4315222 C57.0841002,16.3716342 57.4074856,16.2967742 57.730871,16.2219141 C58.1896271,16.1096241 58.6032596,16.4015782 58.761192,16.7459344 C58.9868098,17.2400106 58.9492068,17.6517408 58.4904508,18.041013 C58.1445036,18.3329672 57.8060769,18.6398933 57.5127739,18.9842495 C57.1442649,19.4184377 56.7832765,19.8675979 56.70055,20.4664782 C56.6328647,20.9231244 56.6779883,21.3348546 56.8735236,21.7615569 C57.1217031,22.3005491 57.4826915,22.7122793 58.0241741,22.9443454 C58.5280537,23.1539535 59.0544951,23.2737296 59.6110189,23.2961876 C60.0171308,23.3111596 60.4307633,23.3635616 60.8368752,23.4309357 C61.2505078,23.4983097 61.4009196,23.8276939 61.4686049,24.187022 C61.5663726,24.6885843 61.393399,24.9955104 60.9271223,25.2500346 C60.5962163,25.4296986 60.2577897,25.5943907 59.9344043,25.7815408 C59.2725923,26.155841 58.7235891,26.6349452 58.4378066,27.3760596 C58.1821065,28.0497999 58.3851625,29.1202985 58.8890421,29.6443187 C59.3477982,30.1234229 59.8892807,30.4378351 60.5210104,30.6174992 C60.8895194,30.7223032 61.2580284,30.8420793 61.6190167,30.9843134 C62.092814,31.1714635 62.2507464,31.5083336 62.220664,32.0098959 C62.1905817,32.5114581 61.9123198,32.7285522 61.4686049,32.8558143 C60.8669576,33.0279924 60.2653103,33.1926844 59.6787042,33.4022925 C59.0244127,33.6343587 58.5130125,34.0685469 58.264833,34.7198292 C58.0768182,35.2139054 57.9790505,35.7454117 58.1745859,36.2619459 L58.1745859,36.2619459 L58.1445036,36.2619459 C58.3926831,36.9132283 58.836398,37.4297625 59.4230041,37.8190347 C59.8215954,38.0885308 60.2126662,38.358027 60.6262987,38.6050651 C61.0549724,38.8670752 61.0775342,39.4360115 60.89704,39.8177977 C60.693984,40.2370139 60.4006809,40.371762 59.9720072,40.371762 C59.7163071,40.364276 59.460607,40.371762 59.2049069,40.39422 C58.5280537,40.454108 57.8361593,40.446622 57.2044296,40.7685202 C56.5050147,41.1278483 55.9484909,42.0411408 56.001135,42.8271712 C56.0537792,43.5458275 56.3546028,44.1521938 56.8359207,44.6837001 C57.1517855,45.0280562 57.4751709,45.3724124 57.768474,45.7317406 C58.136983,46.1809008 58.1144212,46.4578829 57.768474,46.9145292 C57.4751709,47.2963153 57.234512,47.4460354 56.5802206,47.2738573 C55.7905585,47.0717352 54.9933758,46.8621271 54.1661108,46.9594452 C52.7296778,47.1316233 51.8648098,48.576422 52.3160453,49.9763047 C52.4814983,50.5003249 52.7522396,50.9794291 53.0004191,51.4585334 C53.0981868,51.6456835 53.1959545,51.8328336 53.278681,52.0199837 C53.4967781,52.5215459 53.2485986,52.9332761 52.744719,53.2177442 C52.4363748,53.3899223 52.1355511,53.3300343 51.8347275,53.1728282 C51.3233273,52.9108181 50.8194476,52.633836 50.2854857,52.4242279 C49.6311942,52.1771897 48.9468204,52.0574137 48.2774878,52.3793118 C47.5705522,52.716182 47.1117961,53.2776323 46.9313019,54.0412046 C46.8184931,54.5427669 46.9087402,55.0368431 47.0140284,55.5309194 C47.0892344,55.8902476 47.187002,56.2495757 47.2847697,56.6014179 C47.3674962,56.9233161 47.3674962,57.2302422 47.1644403,57.5147103 C46.9613843,57.7542625 46.7432872,57.8216365 46.5778341,57.8890105 C46.3146134,58.0013006 46.0664339,57.9414126 45.825775,57.8066645 C45.7580897,57.7692345 45.2542101,57.2751582 45.0737159,57.1104661 C44.4946304,56.5864459 43.8629007,56.1148277 43.0506768,56.0025376 C42.5844002,55.9351636 42.1331647,56.0025376 41.7195322,56.2495757 C40.8546642,56.76611 40.4259905,57.5221963 40.4109493,58.5328068 C40.4034287,59.0867711 40.3733463,59.6482214 40.3357434,60.2096717 C40.3207022,60.5165978 40.1251668,60.7037479 39.8243432,60.79358 C39.6363284,60.845982 39.4558342,60.898384 39.2527782,60.898384 C39.0121193,60.890898 38.8241045,60.7860939 38.6887339,60.5989439 L38.6887339,60.5989439 L38.1848543,59.8728015 C38.0043601,59.6332494 37.8163453,59.3936973 37.6208099,59.1691172 C37.4177539,58.937051 37.1996568,58.7049849 36.9665185,58.5028628 C36.6280919,58.2034227 36.2069387,58.0911326 35.7557033,58.0611886 C35.3871943,58.0312446 35.0337265,58.0611886 34.7028205,58.2183947 C34.048529,58.5253208 33.5972936,59.0343691 33.3641552,59.7081094 C33.1686199,60.2545877 33.0031669,60.816038 32.8377138,61.3700022 C32.7098638,61.7967044 32.4541637,61.9688825 31.8750782,61.9994371 C31.4689662,62.0137985 31.0929367,61.7517884 30.9876484,61.3924602 C30.9274837,61.1678801 30.792113,60.958272 30.7093865,60.7411779 C30.5815365,60.4043078 30.4912894,60.0449796 30.3333569,59.7230814 C30.0250127,59.0867711 29.558736,58.6226389 28.859321,58.3756008 C27.8590824,58.0237586 26.9039673,58.4130308 26.3173612,59.1616312 C25.9187699,59.6781654 25.5953844,60.2545877 25.2644784,60.823524 C25.0388607,61.2127962 24.7681194,61.3625162 24.3168839,61.2876562 C24.076225,61.2502262 23.8656484,61.1678801 23.6776336,61.0181601 C23.6475513,60.995702 23.5121806,60.801066 23.4971395,60.7112339 C23.4595365,60.4716818 23.4219335,60.2396157 23.3918512,60.0000636 C23.3467276,59.6557074 23.339207,59.2963792 23.2640011,58.9595091 C23.1887952,58.5777229 23.0910275,58.1959367 22.9255745,57.8515805 C22.7902039,57.5671124 22.6322715,57.2527002 22.2788037,57.1179522 C22.1133507,57.0580641 21.9855006,56.885886 21.812527,56.818512 C21.7272936,56.7860727 21.640389,56.758624 21.5526488,56.7336706 L21.0228649,56.5939319 C21.0003031,56.6762779 20.985262,56.721194 20.9702208,56.76611 C20.9551796,56.72868 20.9551796,56.6687919 20.9250972,56.6538199 C20.8799737,56.6238759 20.8273295,56.6238759 20.7746854,56.6238759 C20.3084087,56.6538199 19.879735,56.788568 19.5187467,57.0805221 C19.05247,57.4548223 18.6012345,57.8665525 18.149999,58.2707967 C18.0973549,58.3157127 17.9394225,58.4953768 17.8867783,58.5328068 C17.4806664,58.824761 17.1121574,58.824761 16.7135661,58.5253208 C16.6007572,58.4354888 16.4879484,58.3456568 16.3826601,58.2483387 C16.2773718,57.9638706 16.3600983,57.6794024 16.3826601,57.4548223 C16.4353042,56.8784 16.5180307,56.3019778 16.5481131,55.7180695 C16.5631543,55.4860034 16.4428248,55.2389652 16.4428248,54.9994131 C16.4428248,54.677515 16.2773718,54.4454488 16.1194394,54.2058967 C16.0667953,54.1310367 15.961507,54.0936067 15.923904,54.0187466 C15.8186157,53.7941665 15.6230804,53.6669045 15.4200244,53.5621004 C14.6830065,53.1728282 13.9384679,53.1428842 13.1788882,53.5396424 C12.6750086,53.8016525 12.1560878,54.0412046 11.6446876,54.2882428 C11.5619611,54.3331588 11.4867552,54.3930468 11.4040286,54.4379628 C11.0355197,54.6176269 10.6820519,54.4903649 10.3962694,54.2882428 C10.238337,54.1834387 10.1480899,53.9364006 10.0879252,53.7342785 C10.0503222,53.5995304 10.0879252,53.4198663 10.1405693,53.2776323 C10.2684194,52.9257901 10.441393,52.5964059 10.5767636,52.2520498 C10.8099019,51.6456835 11.0355197,51.0318312 10.9678344,50.3655768 C10.9302314,50.0287067 10.8249431,49.7292665 10.569243,49.4747424 C10.4564341,49.3549664 10.4113106,49.1753023 10.2985017,49.0555262 C9.79462211,48.5015619 9.14785126,48.2844678 8.41083331,48.3443559 C8.23033912,48.3593279 8.05736552,48.4416739 7.87687133,48.4791039 C7.7264595,48.5090479 7.56852709,48.5240199 7.41811526,48.56145 C6.98944156,48.658768 6.56076785,48.7785441 6.12457356,48.8608901 C5.80870872,48.9207781 5.51540566,48.8459181 5.3123497,48.56145 C5.27474674,48.5015619 5.12433491,48.2170938 5.10929373,48.1796638 C4.98144368,47.8427936 5.11681432,47.5732975 5.31987029,47.3112874 C5.62069394,46.9145292 5.94407937,46.525257 6.21482065,46.1060408 C6.48556194,45.6868246 6.71117968,45.2301783 6.75630323,44.7211301 C6.778865,44.466606 6.70365909,43.8153236 6.47052076,43.3961074 C6.39531484,43.2389014 6.29002656,43.0891813 6.1696971,42.9619192 C5.68085867,42.422927 5.049129,42.1983469 4.34219342,42.1758888 C3.71046375,42.1534308 3.07873408,42.1758888 2.44700441,42.1758888 C2.34171613,42.1758888 2.23642786,42.1234868 2.13113958,42.0860568 C1.70998647,41.9138787 1.48436873,41.0979043 1.72502765,40.8134362 C1.87543947,40.6412581 2.04089248,40.484052 2.21386608,40.3418179 C2.57485446,40.0423778 2.94336344,39.7728817 3.29683123,39.4734415 C3.68038138,39.1440574 3.97368445,38.7248412 4.13161686,38.2532229 C4.43244051,37.3474165 4.08649331,36.2020579 3.19154295,35.6406076 C2.66510156,35.3112235 2.07849544,35.1839614 1.49940991,35.0342413 C1.15346271,34.9444093 0.815036101,34.8620633 0.476609492,34.7497732 C0.34875944,34.7048572 0.243471162,34.5925671 0.130662293,34.5027351 C0.0780181536,34.4578191 0.00281224065,34.233239 0.00281224065,34.1733509 C0.0103328319,34.0011728 -0.0122289419,33.8215088 0.0103328319,33.6493307 C0.062976971,33.3049745 0.296115301,33.1253104 0.604459544,33.0055344 C0.92784497,32.8782723 1.25875099,32.7809542 1.55205405,32.6162622 C1.61071466,32.5840723 1.66990171,32.5524814 1.72929182,32.5210627 L2.08548207,32.3312026 C2.49784361,32.1041447 2.88846312,31.8437066 3.1464194,31.4035296 C3.44724305,30.8944813 3.52244897,30.3629751 3.45476365,29.7940388 C3.34195478,28.8882323 2.71022511,28.3941561 2.00328953,27.9674539 C1.57461582,27.7129298 1.12338034,27.4883497 0.679665457,27.2562835 C0.371321214,27.0915915 0.11562111,26.7098053 0.145703475,26.4477951 C0.213388797,25.8638869 0.499171266,25.5569607 0.920324379,25.4895867 C1.43924518,25.3997546 1.95816598,25.3174086 2.46204559,25.1901465 C2.93584285,25.0703705 3.4096401,24.9505944 3.80071085,24.6212103 C4.45500229,24.067246 4.68814062,23.3635616 4.59037293,22.5401012 C4.52268761,22.008595 4.25194632,21.5519487 3.91351972,21.1477046 C3.71798434,20.9156384 2.85311634,20.1296081 2.67262215,20.03229 C2.29659259,19.8226819 2.06345426,19.2687176 2.25146904,18.8794454 C2.49212796,18.3703972 2.70270452,17.913751 4.26698751,18.2581071 C4.53772879,18.2730791 4.80094949,18.3254812 5.07169077,18.3254812 C5.94407937,18.3030232 6.68109731,18.018555 7.16993575,17.2474966 C7.39555349,16.8956545 7.52340354,16.5213543 7.50836236,16.1021381 C7.49332117,15.7428099 7.47827999,15.3909677 7.31282698,15.0615836 C7.16241516,14.7621434 7.02704451,14.4477313 6.83150914,14.1782351 C6.56076785,13.818907 6.3501913,13.4221488 6.07192942,13.0703066 C5.86887345,12.8157825 5.95159996,12.5163423 6.0869706,12.2767902 C6.21482065,12.0522101 6.40283543,11.842602 6.61341199,11.7003679 C6.73374145,11.6255079 6.95935919,11.6554519 7.11729161,11.7003679 C7.44819762,11.797686 7.77910364,11.947406 8.11000966,12.0671821 C8.66653341,12.2767902 9.23057776,12.4489683 9.83974566,12.4190243 C10.6970931,12.3815943 11.3589051,12.0072941 11.7499758,11.2437217 C12.1034436,10.5624954 12.1410466,9.82886701 11.8703053,9.11021066 C11.8101406,8.93803258 11.80262,8.76585449 11.7198935,8.60116241 C11.637167,8.43647033 11.5845228,8.25680624 11.5243581,8.08462816 C11.4491522,7.88250606 11.3739463,7.68038396 11.306261,7.47077586 C11.2460962,7.29111177 11.2761786,7.11144768 11.3589051,6.9467556 C11.5544405,6.54999741 12.0658407,6.16072522 12.5396379,6.35536131 C12.7351733,6.43770735 12.9231881,6.55748341 13.0886411,6.69223148 C13.6677266,7.15636371 14.2994563,7.53066389 15.0063919,7.74027199 C15.224489,7.80764602 15.4726685,7.77021601 15.7058069,7.77770201 C15.8486981,7.77770201 15.9991099,7.80016002 16.1344806,7.77770201 C16.7812514,7.66541195 17.2625693,7.28362577 17.5784341,6.7371475 C17.9319019,6.1307812 17.9995872,5.44206887 17.9319019,4.74587053 C17.8942989,4.31916832 17.8416548,3.89995211 17.8266136,3.4732499 C17.8040518,2.78453757 18.1349579,2.6572755 18.6463581,2.50006943 C19.0374288,2.38029337 19.3156907,2.58241547 19.5563496,2.8519116 C20.045188,3.39838987 20.4964235,3.98229815 21.1206326,4.40151436 C21.9027741,4.93302062 22.7225185,4.96296463 23.542263,4.55123443 C23.8054837,4.41648637 24.0311014,4.19190626 24.2341574,3.94486813 C24.7831606,3.27861381 24.8433253,2.49258342 24.9862165,1.71403904 C25.0539019,1.36219687 25.1591901,1.0178407 25.2644784,0.673484534 C25.2795196,0.613596504 25.3622461,0.553708475 25.4224108,0.516278457 C25.9638934,0.179408292 26.6257054,0.209352306 26.9340497,0.853148621 C27.1220645,1.25739282 27.3025586,1.66163702 27.5131352,2.0434232 C27.7387529,2.45515341 28.0245354,2.83693959 28.4156062,3.12140773 C29.1977477,3.69034401 30.0174921,3.78017605 30.8823601,3.35347384 C31.1681426,3.21123978 31.3711985,2.97168766 31.5892957,2.73962154 C32.1458194,2.15571326 32.3639166,1.40711289 32.6572197,0.695942545 Z M24.5876252,40.35679 C23.910772,39.9151157 23.1887952,39.9151157 22.4969008,40.3418179 C22.1283918,40.5738841 21.8050064,40.8733242 21.7298005,41.3524284 L21.7298005,41.3524284 L21.7298005,41.3674004 L21.7298005,41.3674004 L21.4590592,42.8196852 C21.1883179,44.3618019 20.9175766,45.9039187 20.6543559,47.4535214 C20.3911352,49.0031242 20.1429557,50.5602129 19.8872556,52.1098157 C19.7970085,52.656294 20.0075851,53.1353982 20.3384911,53.5471284 C20.57915,53.8465686 21.6395534,54.3032148 21.7072387,54.3256728 L21.7072387,54.3256728 L22.6078295,54.6456994 C22.9086532,54.7505035 23.211357,54.849693 23.5197012,54.9320391 C24.369528,55.1491332 25.234396,55.2988533 26.0842229,55.5084614 C26.8814055,55.7030975 27.4529705,55.3587413 27.8365206,54.729917 C28.197509,54.1385227 28.4983327,53.5246704 28.7465122,52.8733881 C29.0322946,52.1173017 29.3707213,51.3836733 29.6941067,50.642559 L29.6941067,50.642559 L30.7845924,48.2245798 C30.8146748,48.1497198 30.8823601,47.9700557 30.8974013,47.9475977 C30.9726072,47.7903916 31.0478131,47.6256995 31.1154984,47.4684934 C31.453925,46.689949 31.7998722,45.9039187 32.1458194,45.1253743 C32.393999,44.57141 32.5519314,44.0099597 32.3037519,43.4110794 C32.0330106,42.7523111 31.6043369,42.2657209 30.8447571,42.1833748 C30.4160834,42.1384588 29.9874097,42.1085148 29.558736,42.0710848 C28.7164298,42.0037108 27.8966854,41.8090747 27.0919821,41.5620365 C26.1895111,41.2925404 25.3697667,40.8658382 24.5876252,40.35679 Z M38.8993104,43.7853796 C38.0570042,43.6506316 37.4252745,43.9875017 37.0191626,44.7361021 C36.6506536,45.4023564 36.3874329,46.1284988 36.0715681,46.8246971 C35.4924826,48.1048037 34.9058765,49.3849104 34.3267909,50.665017 C33.9883643,51.4136174 33.6574583,52.1622177 33.3039905,52.9033321 C32.9354815,53.6743905 33.1911816,54.2882428 33.6348965,54.812263 C34.1312555,55.3961713 34.7930676,55.5384054 35.5300855,55.4261153 C35.7857856,55.3886853 36.0414857,55.3287973 36.2971858,55.2838813 C36.5228036,55.2464512 36.7258595,55.1341612 36.9589979,55.0967312 C37.2974245,55.0443291 37.6283305,54.9320391 37.9592365,54.834721 C38.2901425,54.744889 38.6210486,54.6251129 38.9519546,54.5502529 C39.2602988,54.4828789 39.5385607,54.3256728 39.8469049,54.2433267 C40.1101256,54.1684667 40.3658257,54.0412046 40.6290464,53.9364006 C40.8772259,53.8315965 41.1178849,53.7043345 41.373585,53.6145024 C41.6217645,53.5246704 41.8248204,53.3524923 42.073,53.2626603 C42.4490295,53.1279122 42.8100179,52.9183041 43.1559651,52.708696 C43.7876948,52.3269098 44.4194244,51.9451236 45.0361129,51.5259074 C45.6151985,51.1291492 46.1792428,50.717419 46.7207254,50.2757448 C47.3449345,49.7666966 47.9465818,49.2277043 48.5482291,48.696198 C48.6610379,48.591394 49.32285,47.8652516 49.3078088,47.4909514 C49.3153294,47.3412314 49.3153294,47.1765393 49.3153294,47.0193332 C49.2927676,46.555201 49.0220263,46.2033588 48.7362438,45.8814607 C48.5031055,45.6194505 48.2022819,45.4323004 47.8337729,45.3798984 C47.5630316,45.3424684 47.2998109,45.2825804 47.0365902,45.2301783 L47.0365902,45.2301783 L46.2243664,45.0804583 C45.9536251,45.0280562 45.6904044,44.9831402 45.4271837,44.9232522 C45.1865248,44.8708502 44.9308246,44.8483921 44.6826451,44.7959901 C44.4043833,44.7361021 44.1110802,44.7061581 43.8252977,44.6537561 C42.1782882,44.3692879 40.5387993,44.0623618 38.8842692,43.7928656 L38.8842692,43.7928656 Z M8.57628632,33.2825165 C8.08744788,33.1402824 7.63621241,33.1777124 7.18497693,33.4996106 C6.778865,33.7915647 6.50060312,34.1134629 6.41035603,34.6150251 C6.33515011,35.0641854 6.36523248,35.5133456 6.46300016,35.9475338 C6.62845317,36.6886482 6.78638559,37.4297625 7.01952392,38.1559049 C7.30530639,39.0467393 7.63621241,39.9226017 7.98215961,40.7909782 C8.1626538,41.2551104 8.41083331,41.6892986 8.64397164,42.1384588 C8.97487766,42.7747691 9.30578368,43.4185654 9.66677206,44.0399038 C9.91495157,44.466606 10.2157752,44.8558782 10.4789959,45.2750944 C10.6519695,45.5371045 10.8550255,45.7691706 11.0355197,46.0236947 C11.2912198,46.3830229 11.5845228,46.7049211 11.8703053,47.0417912 C12.0884025,47.3112874 12.3140202,47.5732975 12.5471585,47.8278216 C12.960791,48.2694958 13.366903,48.726142 13.9459885,48.9806662 C14.4197858,49.1902743 14.893583,49.2501623 15.389942,49.0704982 C15.9915893,48.8534041 16.2773718,48.3892719 16.420263,47.8128496 C16.4729072,47.5957555 16.5105101,47.3711754 16.5556337,47.1465953 L16.5556337,47.1465953 L16.6834837,46.502799 C16.7210867,46.3081629 16.7210867,46.1060408 16.7737308,45.9039187 C16.8865397,45.4622444 17.3152134,42.8496292 17.4731458,42.0037108 C17.5633929,41.5395785 17.6461194,41.0829323 17.7213253,40.6188001 C17.819093,40.0423778 17.9018195,39.4659555 17.9995872,38.8895332 C18.0597519,38.5451771 18.0296696,38.2232789 17.856696,37.9238388 C17.7664489,37.7591467 17.6235576,37.6393706 17.5107488,37.5046226 C17.3076928,37.2725564 17.1046369,37.0704343 16.8338956,36.9431723 C16.3525777,36.7185922 15.8712599,36.4940121 15.389942,36.284404 C14.8785418,36.0598238 14.3521004,35.8577017 13.8407002,35.6256356 C13.0735999,35.2812795 12.3140202,34.9294373 11.5544405,34.5850811 C10.8475049,34.263183 10.1405693,33.9412848 9.43363373,33.6268727 C9.14785126,33.4996106 8.86958938,33.3648625 8.57628632,33.2825165 Z M44.9458658,29.4871126 C44.4495068,29.2700185 43.9456272,29.1876725 43.4267064,29.3897946 C42.7648944,29.6518047 42.2610147,30.0635349 42.1707676,30.8196213 C42.1181235,31.2538095 42.0880411,31.6879977 42.0429176,32.1221859 C41.9526705,33.0729084 41.704491,33.9936868 41.3961467,34.8920073 C41.132926,35.6630657 40.7192935,36.359264 40.2755786,37.0404903 C39.8318637,37.7217167 39.8243432,38.425401 40.2304551,39.1215993 C40.4109493,39.4360115 40.6516082,39.7204796 41.005076,39.8402557 C41.335982,39.9600318 41.6894498,40.0274058 42.035397,40.0872938 C43.1334033,40.2819299 44.2314097,40.454108 45.329416,40.6487441 C46.2093252,40.7984642 47.0892344,40.9706423 47.9691435,41.1278483 C49.32285,41.3748864 50.6690358,41.6144386 52.0152217,41.8539907 C52.579266,41.9513087 53.075625,41.7491866 53.4967781,41.4048305 C53.8427253,41.1353343 54.271399,40.0872938 54.3014814,39.9974618 C54.512058,39.4360115 54.7151139,38.8745612 54.8956081,38.3056249 C55.0309788,37.8789227 55.136267,37.4372485 55.2415553,37.0030603 C55.3468436,36.5613861 55.4446113,36.1197119 55.5348584,35.6705517 L55.5348584,35.6705517 L55.5198172,35.6555797 C55.6251055,35.1689894 55.5498996,34.7198292 55.1964318,34.338043 C54.8504846,33.9637428 54.4142903,33.7316767 53.9630548,33.5295546 C53.2109957,33.1926844 52.4589365,32.8408423 51.6993568,32.5039721 C51.4737391,32.4066541 50.7517623,32.1072139 50.6239123,32.0473259 C49.947059,31.7254277 49.2551646,31.4110156 48.5707908,31.0966034 C48.5331879,31.0741454 47.9992259,30.8869953 47.9992259,30.8869953 C47.8112111,30.7896773 47.6457581,30.6848732 47.4652639,30.6025272 C46.6229577,30.228227 45.7881721,29.8539268 44.9458658,29.4871126 Z M31.0553337,23.4608797 C30.4085629,23.4533937 29.7843538,23.5282537 29.1526241,23.6630018 C28.4832915,23.8052359 27.8590824,24.052274 27.2724763,24.3666861 C26.3474436,24.8682484 25.5728227,25.5569607 24.9260518,26.3953931 C24.2943221,27.2188535 23.873169,28.147118 23.6099483,29.1352705 C23.3316864,30.145881 23.3316864,31.1714635 23.4971395,32.204532 C23.6776336,33.3349185 24.1288691,34.353015 24.7831606,35.2887655 C25.2118343,35.9101038 25.7457963,36.434124 26.3324024,36.8982563 C27.039338,37.4597065 27.8515618,37.8115487 28.7089092,38.0960168 C29.5737772,38.380485 30.461207,38.432887 31.3561574,38.402943 C32.0104488,38.380485 32.6496991,38.2457369 33.2663875,38.0361288 C34.6727381,37.5495386 35.8459504,36.7260782 36.7785037,35.5657476 C36.8161066,35.5208316 37.0191626,35.2663075 37.0718067,35.1764754 C37.2823833,34.8246332 37.5004804,34.4727911 37.673454,34.1059769 C37.8389071,33.7466487 37.9592365,33.3723485 38.0870866,33.0055344 L38.0870866,33.0055344 C38.3127043,32.361738 38.410472,31.6954837 38.3954308,31.0217434 C38.3803896,30.4004051 38.2751014,29.7715808 38.1998954,29.1502425 C38.1923748,29.0753824 37.8238659,28.0647719 37.7185776,27.8102478 C37.4553569,27.1963955 37.0868479,26.6424312 36.6356124,26.148355 C36.2746241,25.7515968 35.9061151,25.3548386 35.4924826,25.0179684 C35.1390148,24.7260143 34.7253823,24.5014342 34.3117497,24.2843401 C33.9883643,24.112162 33.6424171,23.9848999 33.3039905,23.8576379 C32.5820137,23.5881417 31.8299546,23.4683657 31.0553337,23.4608797 Z M10.5918048,20.1670381 C10.072884,20.06972 9.56148378,20.039776 9.04256298,20.1820101 C8.57628632,20.3092721 8.26794208,20.5937403 8.04984493,21.0054705 C7.66629477,21.7166408 7.39555349,22.4727272 7.17745634,23.2512716 C6.92175623,24.164564 6.69613849,25.1003145 6.45547957,26.0210929 C6.22986183,26.8744974 6.71870027,27.6979578 7.44819762,28.109688 C7.65125359,28.221978 7.85430955,28.3417541 8.06488611,28.4390721 C8.82446583,28.7834283 9.59156614,29.1128124 10.3511459,29.4571686 C11.1784109,29.8239828 12.005676,30.213255 12.832941,30.5800692 C13.2540941,30.7672193 13.697809,30.9244253 14.1189621,31.1115754 C14.7807741,31.4110156 15.4350656,31.7329137 16.0968776,32.0398399 C16.3751395,32.1745879 16.660922,32.286878 16.9391838,32.4066541 C17.8040518,32.7809542 18.6463581,32.6087762 19.2780877,31.9050918 C19.6390761,31.5008476 19.6089938,30.9992854 19.6616379,30.5201811 C19.6992408,30.160853 19.6917203,29.8090108 19.751885,29.4571686 C19.9098174,28.4914741 20.1354351,27.5407517 20.5114647,26.6349452 C20.616753,26.3879071 20.6994795,26.133383 20.8273295,25.9013169 C21.0529473,25.4970727 21.3236886,25.1078005 21.5568269,24.7035563 C21.8726917,24.157078 21.8877329,23.5881417 21.609471,23.0192055 C21.5869093,22.9593174 21.4665798,22.7497093 21.4364974,22.7122793 C21.2936062,22.5475872 21.1657562,22.3529511 20.985262,22.2481471 C20.7295619,22.098427 20.4437794,21.971165 20.1579969,21.9112769 C19.3984172,21.7540708 18.6237963,21.6342948 17.856696,21.4995467 C16.4127425,21.2525086 14.9687889,21.0129565 13.5248354,20.7509464 C12.5396379,20.5712823 11.5619611,20.3691602 10.5842842,20.1820101 L10.5842842,20.1820101 Z M48.0142671,12.7334364 C47.4050992,12.4414823 46.7808901,12.5537723 46.1867634,12.8307545 C45.6678426,13.0703066 45.4121425,13.5119808 45.3068542,14.0509731 C45.1489218,14.8444895 45.0210717,15.6380059 44.8781805,16.4315222 C44.5021509,18.4976593 44.133642,20.5712823 43.7500918,22.6449053 C43.5921594,23.5057957 43.8629007,24.3442281 44.7653716,24.7859023 C45.3670189,25.0778565 45.9761868,25.3473526 46.5853547,25.6243347 C47.6833611,26.118411 48.788888,26.6199732 49.8944149,27.1140495 C50.6389534,27.4434336 51.383492,27.7728178 52.1280305,28.094716 C52.5642248,28.289352 53.0079397,28.4765021 53.2711604,28.5887922 C53.978096,28.7385123 54.4443726,28.5887922 54.8655258,28.3118101 L54.8655258,28.3118101 L54.8880875,28.3118101 C55.30172,28.0348279 55.6025437,27.6230977 55.6251055,27.1140495 C55.6476672,26.6349452 55.6025437,26.148355 55.5198172,25.6767368 C55.4145289,25.1078005 55.2565965,24.5538362 55.0911435,23.9998719 C54.9557728,23.5432257 54.7827992,23.1015515 54.6248668,22.6598773 C54.436852,22.135857 54.2563579,21.6043508 54.0457813,21.0878165 C53.8652871,20.6536283 53.6697517,20.2194401 53.4591752,19.7927379 C53.0380221,18.9468195 52.579266,18.1158731 52.0377834,17.3373287 C51.7820833,16.9705145 50.1425944,14.7247134 49.4055765,13.968627 C49.2250823,13.7739909 48.6610379,12.9804746 48.0142671,12.7334364 Z M38.8466663,7.24619575 C38.4631161,7.06653166 37.6208099,6.87189557 36.6356124,7.01412964 C36.0790887,7.11893369 35.5601679,7.33602779 35.1239736,7.73278599 C34.8381911,7.98731011 34.5900116,8.26429225 34.454641,8.63110643 C34.2741468,9.11769667 34.0936526,9.61177291 33.9357202,10.1133352 C33.6875407,10.8843935 33.4544023,11.6704239 33.221264,12.4489683 C32.9580433,13.3098587 32.724905,14.1782351 32.4391225,15.0241536 C32.1382989,15.92996 32.2059842,16.7908504 32.6722608,17.5993388 C33.1310169,18.3928552 33.8304319,18.9168755 34.7329029,19.1414556 C35.1239736,19.2387736 35.5000032,19.2163156 35.8985945,19.1713996 C36.4250359,19.1115116 36.8913126,18.9168755 37.3124657,18.6398933 C37.9291542,18.2356491 38.3127043,17.6442548 38.5157603,16.9330845 C38.6436103,16.4988963 38.778981,16.0572221 38.9143516,15.6230338 C39.0873252,15.0615836 39.27534,14.5076193 39.4483136,13.953655 C39.6664107,13.2499707 39.8769873,12.5388003 40.0950844,11.835116 C40.2078933,11.4757878 40.3357434,11.1239456 40.4109493,10.7571315 L40.4109493,10.7571315 L40.3959081,10.7646175 C40.4635934,10.4127753 40.5237581,10.0384751 40.508717,9.67914694 C40.4786346,8.99792061 40.1853315,8.40652632 39.7265755,7.88999206 C39.3956695,7.57557991 39.1174076,7.37345781 38.8466663,7.24619575 Z M26.964132,6.37033332 C26.0917434,6.36284732 25.2569578,6.59491343 24.4372134,6.82697954 C23.6776336,7.04407365 22.9255745,7.29859778 22.181036,7.5606079 C21.4515386,7.82261803 20.7370824,8.12205818 20.0301469,8.39155431 C19.548829,8.61613442 19.3758554,8.75836849 19.1201553,8.90060256 C18.7817287,9.09523865 18.4508227,9.30484676 18.1199167,9.51445486 C15.7283686,10.7271875 14.0888797,12.4639403 13.2766559,13.2200267 C12.8630234,13.5568968 12.6148438,14.0210291 12.5396379,14.5450493 C12.4418702,15.2113036 12.795338,16.1844841 13.5549178,16.4165502 C13.7955767,16.4914103 14.0362356,16.5812423 14.2844151,16.6336443 C14.8409389,16.7459344 15.4049832,16.8282804 15.961507,16.9255985 C18.2703285,17.3298427 20.5716294,17.7490589 22.880451,18.1233591 C23.5272218,18.2281631 24.1213485,18.003583 24.5199399,17.4571047 C24.7229958,17.1876086 24.8508459,16.8657105 25.0162989,16.5662703 C25.2569578,16.1245961 25.3697667,15.6305199 25.6179462,15.1888456 C25.7909198,14.8819195 25.9037287,14.5375633 26.0390993,14.2081792 C26.0616611,14.1557771 26.1594288,13.931197 26.1895111,13.863823 C26.4076083,13.3922048 26.6407466,12.9280725 26.8513232,12.4489683 C27.1822292,11.7153399 27.4529705,10.9667396 27.8064383,10.2405972 C27.9418089,9.96361508 28.0621384,9.67914694 28.197509,9.3946788 C28.4456885,8.88563055 28.6788269,8.3765823 28.5584974,7.77770201 C28.4682503,7.30608378 28.2125502,6.9467556 27.8515618,6.65480146 C27.5958617,6.44519336 27.2875175,6.37033332 26.964132,6.37033332 Z M84.562901,20.0854167 L79.1935401,20.0854167 L79.1935401,21.7284167 L83.3740266,21.7284167 L83.3740266,24.2471667 L79.1935401,24.2471667 L79.1935401,28.4166667 L76.6681533,28.4166667 L76.6681533,17.5666667 L84.562901,17.5666667 L84.562901,20.0854167 Z M95.2239185,28.4166667 L92.6208275,28.4166667 L92.1779135,26.6341667 L88.7744691,26.6341667 L88.3315551,28.4166667 L85.7284641,28.4166667 L88.4481114,17.5666667 L92.5042712,17.5666667 L95.2239185,28.4166667 Z M90.4217983,20.0854167 L89.4116436,24.1154167 L91.540739,24.1154167 L90.5383547,20.0854167 L90.4217983,20.0854167 Z M105.908247,28.4166667 L103.38286,28.4166667 L103.38286,24.2471667 L100.23584,24.2471667 L100.23584,28.4166667 L97.7104532,28.4166667 L97.7104532,17.5666667 L100.23584,17.5666667 L100.23584,21.7284167 L103.38286,21.7284167 L103.38286,17.5666667 L105.908247,17.5666667 L105.908247,28.4166667 Z M109.016416,17.5666667 L113.111427,17.5666667 C113.660537,17.5666667 114.194106,17.6725833 114.712134,17.8844167 C115.209441,18.1014167 115.641995,18.3933333 116.009795,18.7601667 C116.387955,19.1425 116.680641,19.5765 116.887852,20.0621667 C117.105424,20.5633333 117.21421,21.0929167 117.21421,21.6509167 C117.21421,22.20375 117.105424,22.7333333 116.887852,23.2396667 C116.675461,23.7356667 116.382775,24.1696667 116.009795,24.5416667 C115.93209,24.6243333 115.831075,24.71475 115.706748,24.8129167 L117.21421,28.4166667 L114.471251,28.4166667 L113.352311,25.7351667 L111.541802,25.7351667 L111.541802,28.4166667 L109.016416,28.4166667 L109.016416,17.5666667 Z M111.541802,20.0854167 L111.541802,23.2164167 L113.111427,23.2164167 C113.546571,23.2164167 113.918256,23.064 114.226483,22.7591667 C114.53471,22.4543333 114.688823,22.0849167 114.688823,21.6509167 C114.688823,21.2220833 114.53471,20.8539583 114.226483,20.5465417 C113.918256,20.239125 113.546571,20.0854167 113.111427,20.0854167 L111.541802,20.0854167 Z M119.856153,17.5666667 L123.951165,17.5666667 C124.500274,17.5666667 125.033843,17.6725833 125.551871,17.8844167 C126.049178,18.1014167 126.481732,18.3933333 126.849532,18.7601667 C127.227692,19.1425 127.520378,19.5765 127.727589,20.0621667 C127.945161,20.5633333 128.053947,21.0929167 128.053947,21.6509167 C128.053947,22.20375 127.945161,22.7333333 127.727589,23.2396667 C127.515198,23.7356667 127.222512,24.1696667 126.849532,24.5416667 C126.771828,24.6243333 126.670812,24.71475 126.546485,24.8129167 L128.053947,28.4166667 L125.310988,28.4166667 L124.192048,25.7351667 L122.38154,25.7351667 L122.38154,28.4166667 L119.856153,28.4166667 L119.856153,17.5666667 Z M122.38154,20.0854167 L122.38154,23.2164167 L123.951165,23.2164167 C124.386308,23.2164167 124.757993,23.064 125.06622,22.7591667 C125.374447,22.4543333 125.52856,22.0849167 125.52856,21.6509167 C125.52856,21.2220833 125.374447,20.8539583 125.06622,20.5465417 C124.757993,20.239125 124.386308,20.0854167 123.951165,20.0854167 L122.38154,20.0854167 Z M139.725119,28.4166667 L137.122028,28.4166667 L136.679114,26.6341667 L133.27567,26.6341667 L132.832756,28.4166667 L130.229665,28.4166667 L132.949312,17.5666667 L137.005472,17.5666667 L139.725119,28.4166667 Z M134.922999,20.0854167 L133.912844,24.1154167 L136.04194,24.1154167 L135.039555,20.0854167 L134.922999,20.0854167 Z M142.211654,17.5666667 L146.609712,17.5666667 C147.200264,17.5666667 147.770095,17.6803333 148.319205,17.9076667 C148.847593,18.135 149.313819,18.4501667 149.717881,18.8531667 C150.116762,19.251 150.430169,19.7134167 150.658101,20.2404167 C150.886034,20.7880833 151,21.359 151,21.9531667 L151,24.0301667 C151,24.6243333 150.886034,25.19525 150.658101,25.7429167 C150.430169,26.2699167 150.116762,26.7323333 149.717881,27.1301667 C149.308638,27.5383333 148.842413,27.8509167 148.319205,28.0679167 C147.775275,28.3004167 147.205444,28.4166667 146.609712,28.4166667 L142.211654,28.4166667 L142.211654,17.5666667 Z M144.737041,20.0854167 L144.737041,25.8979167 L146.609712,25.8979167 C147.11738,25.8979167 147.557704,25.7170833 147.930684,25.3554167 C148.293303,24.9834167 148.474613,24.5416667 148.474613,24.0301667 L148.474613,21.9531667 C148.474613,21.4416667 148.293303,20.9999167 147.930684,20.6279167 C147.557704,20.26625 147.11738,20.0854167 146.609712,20.0854167 L144.737041,20.0854167 Z M76.6681533,34.1 L80.7631651,34.1 C81.3122749,34.1 81.8458438,34.2059167 82.3638718,34.41775 C82.8611788,34.63475 83.2937322,34.9266667 83.6615321,35.2935 C84.0396926,35.6758333 84.3323785,36.1098333 84.5395897,36.5955 C84.7571615,37.0966667 84.8659474,37.62625 84.8659474,38.18425 C84.8659474,38.7370833 84.7571615,39.2666667 84.5395897,39.773 C84.3271982,40.269 84.0345123,40.703 83.6615321,41.075 C83.5838279,41.1576667 83.4828124,41.2480833 83.3584857,41.34625 L84.8659474,44.95 L82.1229888,44.95 L81.0040482,42.2685 L79.1935401,42.2685 L79.1935401,44.95 L76.6681533,44.95 L76.6681533,34.1 Z M79.1935401,36.61875 L79.1935401,39.74975 L80.7631651,39.74975 C81.1983087,39.74975 81.5699938,39.5973333 81.8782205,39.2925 C82.1864472,38.9876667 82.3405606,38.61825 82.3405606,38.18425 C82.3405606,37.7554167 82.1864472,37.3872917 81.8782205,37.079875 C81.5699938,36.7724583 81.1983087,36.61875 80.7631651,36.61875 L79.1935401,36.61875 Z M95.9854197,34.1 L95.9854197,40.5635 C95.9854197,41.1576667 95.8714536,41.7285833 95.6435212,42.27625 C95.4207692,42.7980833 95.104772,43.2605 94.6955299,43.6635 C94.2966483,44.0665 93.8330131,44.3790833 93.3046245,44.60125 C92.760695,44.83375 92.188274,44.95 91.5873615,44.95 C90.9916292,44.95 90.4217983,44.83375 89.8778689,44.60125 C89.3546605,44.38425 88.8884353,44.0716667 88.4791931,43.6635 C88.0751312,43.2553333 87.7617242,42.7929167 87.5389722,42.27625 C87.3110398,41.7285833 87.1970737,41.1576667 87.1970737,40.5635 L87.1970737,34.1 L89.7224605,34.1 L89.7224605,40.5635 C89.7224605,41.075 89.9037703,41.51675 90.2663899,41.88875 C90.6393701,42.2504167 91.079694,42.43125 91.5873615,42.43125 C92.1002093,42.43125 92.5431233,42.2504167 92.9161035,41.88875 C93.2787231,41.51675 93.4600329,41.075 93.4600329,40.5635 L93.4600329,34.1 L95.9854197,34.1 Z M107.648822,44.95 L105.418711,44.95 L101.385862,39.02125 L101.385862,44.95 L98.8604755,44.95 L98.8604755,34.1 L101.090586,34.1 L105.123435,40.02875 L105.123435,34.1 L107.648822,34.1 L107.648822,44.95 Z M110.75699,34.1 L115.155048,34.1 C115.7456,34.1 116.315431,34.2136667 116.864541,34.441 C117.392929,34.6683333 117.859155,34.9835 118.263217,35.3865 C118.662098,35.7843333 118.975505,36.24675 119.203438,36.77375 C119.43137,37.3214167 119.545336,37.8923333 119.545336,38.4865 L119.545336,40.5635 C119.545336,41.1576667 119.43137,41.7285833 119.203438,42.27625 C118.975505,42.80325 118.662098,43.2656667 118.263217,43.6635 C117.853974,44.0716667 117.387749,44.38425 116.864541,44.60125 C116.320611,44.83375 115.75078,44.95 115.155048,44.95 L110.75699,44.95 L110.75699,34.1 Z M113.282377,36.61875 L113.282377,42.43125 L115.155048,42.43125 C115.662716,42.43125 116.10304,42.2504167 116.47602,41.88875 C116.838639,41.51675 117.019949,41.075 117.019949,40.5635 L117.019949,38.4865 C117.019949,37.975 116.838639,37.53325 116.47602,37.16125 C116.10304,36.7995833 115.662716,36.61875 115.155048,36.61875 L113.282377,36.61875 Z" id="logo" fill="#1A1A18" fill-rule="nonzero"></path>
    </g>
</svg>