<?xml version="1.0" encoding="UTF-8"?>
<svg width="111px" height="73px" viewBox="0 0 111 73" version="1.1" xmlns="http://www.w3.org/2000/svg" xmlns:xlink="http://www.w3.org/1999/xlink">
    <title>icon 2</title>
    <g id="implementation" stroke="none" stroke-width="1" fill="none" fill-rule="evenodd">
        <g id="Home-–-Mobile" transform="translate(-52.000000, -2578.000000)">
            <g id="services" transform="translate(30.000000, 2305.000417)">
                <g id="tile-3" transform="translate(0.000000, 250.999583)">
                    <g id="icon" transform="translate(22.000000, 22.000000)">
                        <polygon id="wrapper" points="0 73 111 73 111 0 0 0"></polygon>
                        <path d="M38.2430195,32.0178146 C39.7696761,32.0178146 41.0372124,32.9245471 41.7635875,34.389542 L41.8592579,34.5927416 L51.5750579,56.0417707 L73.464,56.042 L73.4691619,56.0262801 C73.5207289,55.8560355 73.5841479,55.6637711 73.6605222,55.4527166 L73.7412559,55.2355184 C74.1169701,54.2503882 74.6297309,53.2656409 75.3025385,52.3435817 C77.1187056,49.854588 79.7298433,48.2934316 83.2246389,48.1073672 L83.641,48.092 L83.641,45.18 L50.7621951,45.1809256 C50.4223747,45.1809256 50.1410466,44.9304903 50.0927044,44.6041132 L50.0853659,44.5040963 C50.0853659,44.1642759 50.3358012,43.8829478 50.6621783,43.8346056 L50.7621951,43.8272671 L84.3187134,43.8272671 C84.6585339,43.8272671 84.939862,44.0777024 84.9882041,44.4040795 L84.9955427,44.5040963 L84.9955427,48.770828 C84.9955427,49.1520673 84.6808177,49.4580847 84.2997285,49.447391 C81.9811401,49.3823295 80.0921877,49.9400114 78.5728637,50.9900679 L80.9147907,54.1035225 C83.9371953,52.2019513 87.9509224,52.5087188 90.6534805,55.0238248 L90.8640744,55.2269738 L91.0599523,55.4297644 C93.9981207,58.5786241 93.9328292,63.5135944 90.8641308,66.5830162 C89.1450543,68.3020927 86.8407501,69.0788461 84.5928109,68.9132764 L75.2303854,68.9119811 C74.8565829,68.9119811 74.5535561,68.6089543 74.5535561,68.2351518 C74.5535561,67.8953314 74.8039915,67.6140033 75.1303685,67.5656611 L75.2303854,67.5583226 L80.6898875,67.5598969 C80.2732329,67.2777008 79.8772025,66.9520739 79.5081448,66.5830162 C76.3720399,63.4469113 76.3720399,58.363135 79.5082012,55.2269738 C79.6147051,55.1204949 79.7234553,55.0176322 79.8342991,54.9183855 L77.5231345,51.8473676 C77.1152022,52.2374151 76.7400651,52.6700082 76.3960379,53.1414855 C75.7992563,53.9593539 75.3413184,54.8388148 75.0060509,55.7178927 C74.9183168,55.9479331 74.8440568,56.1650717 74.7823286,56.3659838 L74.6829379,56.7154985 L74.6489849,56.8568577 C74.5911077,57.1361362 74.3659937,57.3451774 74.0913296,57.3881831 L73.9862378,57.3963402 L30.4973973,57.3963266 C30.14623,63.8154514 24.830318,68.9119134 18.3234604,68.9119134 L6.80795488,68.9119811 C6.43415239,68.9119811 6.13112561,68.6089543 6.13112561,68.2351518 C6.13112561,67.8953314 6.38156097,67.6140033 6.70793801,67.5656611 L6.80795488,67.5583226 L12.736178,67.5593298 C8.81296111,65.5331593 6.13105793,61.4396898 6.13105793,56.719511 C6.13105793,49.9855439 11.5894932,44.5271085 18.3234604,44.5271085 C21.0555423,44.5271085 23.5776641,45.4255993 25.6104776,46.9432326 L28.9840579,42.9067707 L27.3880579,39.3837707 L24.2979677,39.3847628 C23.9241652,39.3847628 23.6211384,39.081736 23.6211384,38.7079335 C23.6211384,38.3681131 23.8715738,38.086785 24.1979508,38.0384428 L24.2979677,38.0311043 L31.6848823,38.0311043 C32.0586848,38.0311043 32.3617116,38.3341311 32.3617116,38.7079335 C32.3617116,39.047754 32.1112762,39.3290821 31.7848992,39.3774242 L31.6848823,39.3847628 L28.8740579,39.3837707 L30.2980579,42.5277707 L43.9670579,42.5277707 L40.6247271,35.1480004 C40.1498964,34.0847805 39.3629133,33.4492445 38.421338,33.3781546 L38.2430195,33.3714732 L34.3810317,33.3714732 C34.0072292,33.3714732 33.7042024,33.0684464 33.7042024,32.6946439 C33.7042024,32.3548235 33.9546378,32.0734953 34.2810148,32.0251532 L34.3810317,32.0178146 L38.2430195,32.0178146 Z M81.7320184,55.1901451 L85.7268091,60.4981868 C85.9515734,60.796866 85.8916535,61.2212009 85.5929742,61.4459652 C85.3241629,61.6482531 84.9535705,61.6199467 84.718287,61.3945254 L84.6451958,61.3121303 L80.6510579,56.0047707 L80.4653259,56.1842113 C77.9184964,58.7310408 77.8592678,62.8226524 80.2876402,65.4413322 L80.4653259,65.625835 C81.6281641,66.7886732 83.1130393,67.4329269 84.6327125,67.5586011 L85.6650622,67.5583226 L85.7025822,67.5615596 C87.2351225,67.4433557 88.7346535,66.7981313 89.9068933,65.6258915 C92.4531352,63.0790493 92.5123501,58.9873545 90.0845381,56.3686588 L89.9068933,56.1841549 L89.7225022,56.0066229 C87.5044764,53.9502749 84.2297177,53.6781262 81.7320184,55.1901451 Z M18.3234604,45.8807671 C12.3370982,45.8807671 7.48471646,50.7331488 7.48471646,56.719511 C7.48471646,62.7058731 12.3370982,67.5582549 18.3234604,67.5582549 C24.0824966,67.5582549 28.7920407,63.0674043 29.1414162,57.3963794 L18.3237988,57.3963402 C17.7833004,57.3963402 17.4739546,56.8026875 17.7464473,56.3654607 L17.8044437,56.2854969 L24.7414396,47.9841489 C22.9448028,46.6619586 20.7254121,45.8807671 18.3234604,45.8807671 Z M16.3247776,49.9781298 C16.4362601,50.334921 16.237398,50.7145318 15.8806068,50.8260142 L15.7461097,50.8746072 C15.7184426,50.8855612 15.6882571,50.8979693 15.6557138,50.9118711 L15.4334453,51.0135242 C15.3921133,51.0335596 15.3487448,51.0551681 15.3035002,51.0783893 C14.8413037,51.3156062 14.3776887,51.6280188 13.9458412,52.023072 C12.4725295,53.3708544 11.7137456,55.317578 12.0551953,58.0494658 C12.1015549,58.4203823 11.8384496,58.7586515 11.467533,58.8050111 C11.0966165,58.8513708 10.7583473,58.5882654 10.7119877,58.2173489 C10.314878,55.0401334 11.2417613,52.6621367 13.0321555,51.0242878 C13.9361069,50.197355 14.8423947,49.7322134 15.4768932,49.533959 C15.8336844,49.4224765 16.2132952,49.6213386 16.3247776,49.9781298 Z M25.7787899,48.851838 L19.771,56.042 L29.1413545,56.0416417 C28.966964,53.2151746 27.7094702,50.6819345 25.7787899,48.851838 Z M29.6030579,44.2747707 L26.6483796,47.8113586 C28.8744095,49.8925077 30.3197052,52.7983326 30.497355,56.0419214 L34.9330579,56.0417707 L29.6030579,44.2747707 Z M44.5800579,43.8817707 L30.9110579,43.8817707 L36.4190579,56.0417707 L50.0890579,56.0417707 L44.5800579,43.8817707 Z M95.1013482,4.16277073 C95.4751507,4.16277073 95.7781774,4.46579752 95.7781774,4.8396 L95.7722397,5.14015276 L95.759914,5.4413153 C95.7373969,5.90791119 95.6969597,6.4266324 95.6341137,6.98475472 C95.4543268,8.58140379 95.1304449,10.1793633 94.6240725,11.6783587 C93.8457103,13.9825158 92.7087605,15.839629 91.1423689,17.0826935 C92.1330525,18.0419085 92.9579993,19.1856248 93.6309413,20.4815461 C97.3507504,19.6066235 101.390591,21.0321941 103.682809,24.37249 C105.066623,26.3896785 105.605121,28.8110425 105.252132,31.1751391 L107.422579,29.6863608 C107.699983,29.4960268 108.068982,29.5405191 108.294178,29.7760181 L108.363595,29.8615319 C108.553929,30.1389358 108.509436,30.5079349 108.273937,30.7331312 L108.188424,30.8025477 L104.676058,33.2117707 L106.493808,33.4759036 C106.863725,33.5296575 107.120026,33.8731108 107.066273,34.2430282 C107.017405,34.5793166 106.729117,34.8217074 106.399181,34.8226131 L106.299148,34.8154927 L101.771837,34.1576147 C101.40192,34.1038608 101.145619,33.7604074 101.199373,33.3904901 C101.24824,33.0542017 101.536528,32.8118109 101.866464,32.8109052 L101.966497,32.8180256 L103.668058,33.0647707 L101.409096,29.773244 C101.1976,29.4650273 101.276007,29.0437165 101.584224,28.83222 C101.861619,28.6418732 102.23062,28.6863484 102.455827,28.9218368 L102.525248,29.0073474 L103.905058,31.0197707 L103.917256,30.9485479 C104.212267,28.9276631 103.749366,26.8624231 102.566619,25.1383314 C100.00837,21.4103643 94.9134473,20.4617479 91.1859074,23.0197041 C87.4583217,25.5770667 86.5098277,30.6725632 89.0673194,34.4003371 C91.338949,37.7109914 95.6657827,38.8716223 99.2651712,37.1945196 C99.6039989,37.0366459 100.006655,37.183338 100.164529,37.5221657 C100.322402,37.8609934 100.17571,38.2636494 99.8368825,38.4215231 C95.6401627,40.376947 90.5986149,39.0246009 87.9511246,35.1661703 C86.8397268,33.5462082 86.2964671,31.7046163 86.2774211,29.8774107 L78.3525311,29.876936 C77.9989857,29.876936 77.7050015,29.6048259 77.6777199,29.2523346 L77.6682697,29.0787423 C77.636448,28.3037837 77.6796377,27.2958224 77.8562346,26.1377876 C78.1202349,24.4066043 78.636515,22.696326 79.4664745,21.0920031 C80.2531401,19.5713678 81.2903472,18.2117139 82.6031386,17.0551475 C81.0240874,15.7962837 79.8507919,14.0241891 79.0250378,11.8742442 C78.4330882,10.3330362 78.0544216,8.68986699 77.8442234,7.04804178 C77.7854309,6.58882286 77.743405,6.1554924 77.7154596,5.75472842 L77.6899628,5.32141961 L77.6776966,4.98828766 L77.6757018,4.8396 C77.6757018,4.49977956 77.9261372,4.21845143 78.2525142,4.1701093 L78.3525311,4.16277073 L95.1013482,4.16277073 Z M96.3427207,25.3664104 C96.9136984,25.3664104 97.4661533,25.5211413 97.9648028,25.8118027 C98.2877468,26.0000458 98.3969435,26.4144448 98.2087004,26.7373888 C98.0204573,27.0603328 97.6060583,27.1695295 97.2831142,26.9812864 C96.9878134,26.8091564 96.6697334,26.7200689 96.3427207,26.7200689 C95.5758841,26.7200689 94.8761258,27.2192093 94.4560055,27.9938346 L96.1949012,27.9946061 C96.5687037,27.9946061 96.8717305,28.2976329 96.8717305,28.6714354 C96.8717305,29.0112558 96.6212951,29.2925839 96.2949181,29.3409261 L96.1949012,29.3482646 L94.0609901,29.3476004 C94.0521415,29.4525664 94.0475927,29.5593404 94.0475927,29.6676604 C94.0475927,29.7760187 94.0521413,29.8828291 94.0609894,29.9878293 L96.1949012,29.9876652 C96.5687037,29.9876652 96.8717305,30.290692 96.8717305,30.6644945 C96.8717305,31.004315 96.6212951,31.2856431 96.2949181,31.3339852 L96.1949012,31.3413238 L94.4559887,31.3419612 C94.8760962,32.1167535 95.5758451,32.6159287 96.3427207,32.6159287 C96.7528963,32.6159287 97.1493613,32.4756999 97.5010855,32.2087663 C97.7988465,31.982787 98.223422,32.0409775 98.4494013,32.3387386 C98.6753807,32.6364996 98.6171902,33.061075 98.3194291,33.2870544 C97.7378377,33.7284408 97.056051,33.9695872 96.3427207,33.9695872 C94.8101493,33.9695872 93.5281012,32.8763384 92.9797919,31.3415549 L92.0080354,31.3413238 C91.6342329,31.3413238 91.3312061,31.038297 91.3312061,30.6644945 C91.3312061,30.3246741 91.5816415,30.0433459 91.9080185,29.9950038 L92.0080354,29.9876652 L92.7038718,29.9874366 C92.6972835,29.8817746 92.6939341,29.7751328 92.6939341,29.6676604 C92.6939341,29.5602134 92.6972837,29.4535963 92.7038724,29.3479579 L92.0080354,29.3482646 C91.6342329,29.3482646 91.3312061,29.0452378 91.3312061,28.6714354 C91.3312061,28.3316149 91.5816415,28.0502868 91.9080185,28.0019447 L92.0080354,27.9946061 L92.9799178,27.9937999 C93.5283142,26.4594458 94.8103335,25.3664104 96.3427207,25.3664104 Z M94.388688,5.7145697 L94.399,5.516 L79.056,5.516 L79.0659062,5.66151804 C79.0855446,5.94293202 79.1126702,6.24232196 79.1483508,6.55677441 L79.1869226,6.87613979 C79.2391179,7.28382923 79.3023322,7.69142471 79.3772439,8.09691245 L90.8160037,8.09589329 C91.1898061,8.09589329 91.4928329,8.39892008 91.4928329,8.77272256 C91.4928329,9.112543 91.2423976,9.39387113 90.9160205,9.44221326 L90.8160037,9.44955183 L79.6740675,9.4491659 C79.8435116,10.1108712 80.0473499,10.7605275 80.2886949,11.3888968 C81.1437096,13.615025 82.3884964,15.3574972 84.0770598,16.4518417 C84.0953022,16.4637314 84.107597,16.4724804 84.1196327,16.4816761 L84.0770598,16.4518417 C84.1072062,16.4713793 84.1352819,16.4929101 84.1612261,16.5161488 C84.1727532,16.526556 84.1841529,16.5375498 84.1952211,16.5490078 C84.2103585,16.5644386 84.2242709,16.5802376 84.2373541,16.5965658 C84.2396345,16.5997705 84.2421656,16.6029888 84.244673,16.6062361 L84.2582865,16.624115 L84.2774944,16.6522725 L84.2774944,16.6522725 L84.2850579,16.6647707 L84.2640579,16.6347707 L84.2880579,16.6707707 L84.3188401,16.7260701 L84.3188401,16.7260701 L84.3342537,16.7606135 L84.3342537,16.7606135 C84.3422197,16.7796242 84.349033,16.7984168 84.3549782,16.8173911 C84.3610369,16.8372299 84.3663709,16.8575083 84.37076,16.8779891 C84.3729157,16.8874254 84.3746498,16.8964778 84.3761964,16.9055504 C84.3796816,16.9264547 84.3823613,16.9481759 84.3839885,16.970003 L84.385608,17.0024331 L84.385608,17.0024331 L84.3858664,17.019348 C84.3860729,17.1458478 84.350862,17.273854 84.2769358,17.3879214 C84.268115,17.4017322 84.2619491,17.4106049 84.255553,17.4193483 L84.2620579,17.4077707 L84.2444261,17.433851 C84.2330638,17.4485797 84.2211896,17.4627244 84.2088452,17.4762761 C84.2019631,17.4838901 84.19435,17.4918304 84.1865123,17.499613 C84.1691917,17.5169161 84.151054,17.533118 84.1322116,17.5482157 C84.1290746,17.5505638 84.1258563,17.5530948 84.122609,17.5556023 C82.6386671,18.7014244 81.5010199,20.1052471 80.6687759,21.713986 C79.911536,23.177741 79.4374378,24.7482834 79.1944225,26.3418572 C79.0860469,27.0525313 79.0323555,27.6993819 79.0170335,28.2569638 L79.012,28.523 L86.3594022,28.5234847 C86.7011679,25.9351332 88.0978515,23.4967028 90.420046,21.9035286 C91.025361,21.4881422 91.6616193,21.1521045 92.3165101,20.8931223 C91.5998173,19.5679732 90.7084209,18.437291 89.6275488,17.5407696 L89.5933671,17.5105146 L89.5933671,17.5105146 L89.5710579,17.4877707 L89.6100579,17.5237707 L89.5528197,17.4685437 C89.5301301,17.4429801 89.5096692,17.4160193 89.4914625,17.3879353 L89.4690579,17.3477707 L89.4372401,17.2859717 C89.4237631,17.2545628 89.412841,17.2225303 89.4044119,17.1901423 C89.4020825,17.1806319 89.3998216,17.1710536 89.3977704,17.1614354 C89.392592,17.1379701 89.3888561,17.1143465 89.3863828,17.0906795 C89.3851751,17.0777342 89.3841845,17.0647502 89.3835667,17.0517453 C89.3825505,17.0322589 89.3824933,17.0128693 89.3832616,16.9935427 C89.3839325,16.9766375 89.3852277,16.9595258 89.3871745,16.9424618 L89.3903914,16.9187267 L89.3903914,16.9187267 L89.3943812,16.8952223 C89.3970665,16.8801486 89.4004126,16.8650598 89.4042855,16.8500665 C89.4089853,16.832542 89.4142396,16.8151402 89.4201873,16.7979631 C89.425254,16.7828497 89.4310939,16.7677651 89.4375023,16.7528486 C89.4457101,16.733979 89.4546456,16.7154716 89.4644323,16.6973664 C89.469987,16.6871075 89.4759406,16.6767949 89.4821932,16.6666018 C89.4950451,16.6454416 89.5091226,16.6249944 89.5243793,16.6052892 L89.5386969,16.5877213 L89.5386969,16.5877213 C89.5881526,16.5292887 89.6407475,16.4834124 89.7014064,16.4455708 C91.3418235,15.4222095 92.5393269,13.6201057 93.3416112,11.2451332 C93.8139318,9.84693977 94.1192097,8.34076832 94.2889561,6.83328648 C94.3335741,6.43704386 94.3662204,6.06228995 94.388688,5.7145697 Z" id="Combined-Shape" fill="#333333" fill-rule="nonzero"></path>
                    </g>
                </g>
            </g>
        </g>
    </g>
</svg>