<?xml version="1.0" encoding="UTF-8"?>
<svg width="111px" height="73px" viewBox="0 0 111 73" version="1.1" xmlns="http://www.w3.org/2000/svg" xmlns:xlink="http://www.w3.org/1999/xlink">
    <title>icon</title>
    <g id="implementation" stroke="none" stroke-width="1" fill="none" fill-rule="evenodd">
        <g id="Home-–-Mobile" transform="translate(-227.000000, -2578.000000)">
            <g id="services" transform="translate(30.000000, 2305.000417)">
                <g id="tile-4" transform="translate(175.000000, 251.000000)">
                    <g id="icon" transform="translate(22.000000, 22.000000)">
                        <polygon id="wrapper" points="0 73 111 73 111 0 0 0"></polygon>
                        <path d="M41.0134137,33.9046116 C42.3704435,33.9046116 43.5820752,34.7317558 44.0828504,35.9783704 L44.1494929,36.1592677 L48.2900827,48.4289073 C49.1661556,48.1947851 50.0868903,48.0699713 51.0367814,48.0699713 C56.896962,48.0699713 61.6474339,52.8204432 61.6474339,58.6806238 C61.6474339,64.4447358 57.0514385,69.1352248 51.3240763,69.2874623 L51.0367814,69.2912762 L41.1893893,69.2911409 C40.8155869,69.2911409 40.5125601,68.9881141 40.5125601,68.6143116 C40.5125601,68.2744911 40.7629954,67.993163 41.0893725,67.9448209 L41.1893893,67.9374823 L45.848434,67.9384766 C42.6124835,66.1210963 40.426129,62.6562259 40.426129,58.6806238 C40.426129,54.2466035 43.1457608,50.4478883 47.007949,48.8615536 L46.0527698,46.0319403 L46.0368078,46.0297581 C38.819172,44.8918098 31.5840197,47.9510654 24.7402802,53.792871 C23.890195,54.5185024 23.0728172,55.265751 22.290639,56.025676 C23.6292726,57.4344512 24.4492357,59.3381591 24.4492357,61.4334238 C24.4492357,65.6914462 21.0628812,69.1583613 16.8366589,69.2876724 L16.5919247,69.2914116 L7.99659911,69.2911409 C7.62279662,69.2911409 7.31976984,68.9881141 7.31976984,68.6143116 C7.31976984,68.2744911 7.5702052,67.993163 7.89658224,67.9448209 L7.99659911,67.9374823 L12.1806729,67.9374448 C10.1003883,66.5238204 8.73393691,64.138274 8.73393691,61.4334238 C8.73393691,57.0934018 12.2519027,53.575436 16.5919247,53.575436 C18.3475737,53.575436 19.9687393,54.1512866 21.2768691,55.124435 C22.099369,54.3212984 22.9623054,53.5307927 23.8614364,52.7632958 C24.0742984,52.5815971 24.2875845,52.4024622 24.5012843,52.2259327 L24.4588631,52.1510819 L22.0387698,46.8739403 L18.7238692,46.8739463 C18.3500667,46.8739463 18.04704,46.5709196 18.04704,46.1971171 C18.04704,45.8572966 18.2974753,45.5759685 18.6238524,45.5276264 L18.7238692,45.5202878 L26.280668,45.5202878 C26.6544705,45.5202878 26.9574973,45.8233146 26.9574973,46.1971171 C26.9574973,46.5369375 26.7070619,46.8182656 26.3806849,46.8666078 L26.280668,46.8739463 L23.5277698,46.8739403 L25.5839224,51.3568168 C31.9846363,46.3675257 38.7365514,43.7481647 45.5692152,44.5969047 L42.8665975,36.5912051 C42.6157613,35.8443543 41.9447801,35.3263239 41.1697199,35.2644874 L41.0134137,35.2582701 L36.3351698,35.2582701 C35.9613674,35.2582701 35.6583406,34.9552433 35.6583406,34.5814409 C35.6583406,34.2416204 35.9087759,33.9602923 36.235153,33.9119502 L36.3351698,33.9046116 L41.0134137,33.9046116 Z M16.5919247,54.9290945 C12.9995077,54.9290945 10.0875954,57.8410068 10.0875954,61.4334238 C10.0875954,65.0258408 12.9995077,67.937753 16.5919247,67.937753 C20.1837597,67.937753 23.0955772,65.025746 23.0955772,61.4334238 C23.0955772,59.7113518 22.4264384,58.145617 21.3340184,56.9820648 C20.5714117,57.758263 19.8487162,58.5437185 19.1655248,59.3290953 L18.6148438,59.9726233 L18.111736,60.5807994 C18.0319028,60.6790189 17.9540921,60.7756176 17.8783239,60.8705213 L17.4579087,61.4065735 L17.1411639,61.8285651 C16.9229334,62.1320511 16.4999986,62.2011643 16.1965127,61.9829337 C15.8930267,61.7647032 15.8239135,61.3417684 16.042144,61.0382825 L16.214748,60.8047351 L16.481968,60.4557552 L16.819885,60.0266617 L17.3132552,59.419726 L17.8552592,58.7755844 C17.9495948,58.6653231 18.0459184,58.5536586 18.1442108,58.4406645 C18.8268553,57.6559165 19.5478175,56.8712431 20.3049405,56.0951204 C19.2543426,55.3598857 17.9734333,54.9290945 16.5919247,54.9290945 Z M51.0367814,49.4236299 C50.2385021,49.4236299 49.4638262,49.52467 48.7248448,49.7146593 L51.6778648,58.4641762 C51.7974055,58.818349 51.6071987,59.2023695 51.2530259,59.3219102 C50.9310507,59.4305836 50.5844079,59.2832672 50.4342301,58.9894891 L50.3952919,58.8970713 L47.4417659,50.1475914 C44.1148861,51.5508996 41.7797875,54.8430162 41.7797875,58.6806238 C41.7797875,63.7931993 45.9242059,67.9376177 51.0367814,67.9376177 C56.149357,67.9376177 60.2937753,63.7931993 60.2937753,58.6806238 C60.2937753,53.5680482 56.149357,49.4236299 51.0367814,49.4236299 Z M46.9492554,53.7651507 C47.2172721,54.025718 47.2233109,54.4542201 46.9627436,54.7222368 C45.9386106,55.7756485 45.3559503,57.1814949 45.3559503,58.6809622 C45.3559503,59.5448714 45.5490151,60.3809232 45.9157251,61.1427895 C46.0778453,61.4796059 45.9362261,61.884074 45.5994096,62.0461943 C45.2625932,62.2083145 44.8581251,62.0666953 44.6960048,61.7298788 C44.2416599,60.7859446 44.0022918,59.7493801 44.0022918,58.6809622 C44.0022918,56.8255039 44.7247932,55.0822477 45.9921693,53.7786388 C46.2527367,53.5106222 46.6812387,53.5045833 46.9492554,53.7651507 Z M94.9378229,23.0709439 C96.8430298,23.0709439 98.6562193,23.6598512 100.138089,24.729965 C102.160835,26.1900249 103.405148,28.4232468 103.494545,30.8625053 L103.499713,31.1448402 L103.499734,33.4350342 C104.03186,33.9021125 104.322805,34.6071687 104.322805,35.4486622 C104.322805,35.683138 104.292123,35.9104134 104.234554,36.1266948 C104.490121,36.2608839 104.764356,36.4507662 105.036084,36.7076273 C105.951694,37.573144 106.457512,38.8965042 106.381641,40.6702982 L106.363581,40.9701 L106.363581,43.6232707 C106.363581,43.9469408 106.135617,44.220304 105.827285,44.2854209 L105.720345,44.2993056 L105.681853,44.3010253 C104.989841,44.3256838 104.123371,44.1795324 103.268908,43.7033379 C102.222568,43.1202101 101.465809,42.1634269 101.093569,40.8057499 C99.9579766,42.3432629 98.1292728,43.2903882 95.8512247,43.4274586 L95.5378194,43.4411084 L95.2702137,43.4447232 C93.0716571,43.4447232 90.9079879,42.3643005 89.5581272,40.684509 C89.2075144,42.1043583 88.4539924,43.0992641 87.3989169,43.7002264 C86.6350377,44.1353257 85.8609074,44.2963639 85.2143326,44.3033966 L84.9738074,44.2984818 C84.6512627,44.2761378 84.3944566,44.0303188 84.3504302,43.7186043 L84.3437528,43.6232707 L84.3456265,41.0204277 C84.1985028,39.04732 84.6963551,37.6264774 85.6417873,36.7128696 C85.8714087,36.4909776 86.1031373,36.3187306 86.3241007,36.1882089 C86.2876496,36.0661163 86.2602614,35.9400244 86.2423929,35.8108322 L86.222787,35.6148312 L86.2176223,35.4486622 C86.2176223,35.1336294 86.2730119,34.8315836 86.3745849,34.5517328 L86.3752558,31.1448402 C86.3752558,28.5887395 87.6430054,26.2339778 89.7539614,24.7173687 C91.2340667,23.6551932 93.0404625,23.0709439 94.9378229,23.0709439 Z M74.2842104,22.6874688 L74.2251948,22.6819745 C75.9955513,22.8075572 77.6411303,23.473802 78.9474652,24.5654491 C80.7264462,26.0503775 81.7357062,28.1992649 81.6656214,30.4662445 L81.6512168,30.7501925 L81.5855644,31.6842169 C81.5617311,32.0232884 81.2920594,32.2863965 80.963008,32.311633 L80.8626976,32.3119059 L80.3977698,32.2779403 L80.398,32.889 C81.3411063,33.1066362 81.8068533,33.8260205 81.851089,34.9610298 L81.8545778,35.1436829 C81.8545778,36.4310968 81.3891657,37.3504378 80.4049108,37.6211232 L80.318,37.641 L80.2857987,37.8227904 C79.6463193,41.0641716 77.0584398,43.3341636 73.5811808,43.440421 L73.3251753,43.4443171 C70.0301223,43.4443171 67.0464671,40.9960784 66.3663258,37.7933601 L66.336,37.642 L66.2434796,37.6202337 C65.3006693,37.3605472 64.8114905,36.5114349 64.7649296,35.3325288 L64.7612546,35.1436829 C64.7612546,33.9716411 65.2009487,33.200349 66.0969179,32.9298472 L66.222,32.896 L66.2217698,31.2769403 L61.8599449,30.9690699 C61.4870757,30.9426721 61.2062051,30.6190022 61.232603,30.246133 C61.256601,29.907161 61.5262784,29.6442209 61.8552545,29.6190481 L61.9555399,29.6187911 L65.712,29.884 L65.7375723,29.6262465 C65.8990974,27.3404206 67.1384926,25.3046909 69.0663185,24.0222356 L69.3009372,23.8719889 C70.7447323,22.9820405 72.4615546,22.5577947 74.2251948,22.6819745 L74.2787698,22.6869403 L74.2842104,22.6874688 Z M103.557621,37.3003945 L103.531597,37.3280991 C103.252607,37.6006113 102.913125,37.8114671 102.535118,37.938701 L102.343005,37.9952477 L102.262,38.012 L102.229418,38.1934379 C102.208544,38.2975571 102.185592,38.4004348 102.160595,38.5020425 C102.177508,38.5607659 102.186833,38.6240508 102.186867,38.6895109 C102.187927,40.7320148 102.844059,41.9168889 103.927881,42.5209055 C104.263803,42.7081161 104.60885,42.8243385 104.929259,42.8878148 L105.01,42.901 L105.011884,40.9186032 C105.125446,39.4303778 104.807995,38.4377838 104.219642,37.8056701 L104.106191,37.6913401 C103.910223,37.5060943 103.717674,37.379779 103.557621,37.3003945 Z M87.0274631,37.3462098 L86.9279279,37.4072913 C86.8188553,37.4793186 86.701407,37.5713362 86.5824449,37.6862938 C85.9743807,38.2738898 85.6206102,39.2160144 85.6811632,40.6878754 L85.6974113,40.9701 L85.697,42.898 L85.7566194,42.8882562 C86.0053566,42.8378466 86.269545,42.7539264 86.5323563,42.6272042 L86.7289436,42.523992 C87.7866561,41.9215278 88.4293862,40.7352856 88.430448,38.6895109 L88.4363992,38.6075283 L88.3701743,38.3803215 L88.3130073,38.1498701 L88.285,38.014 L88.1969656,37.9952393 C87.7505392,37.8822251 87.34973,37.6549049 87.0274631,37.3462098 Z M91.24,31.325 L91.2302912,31.4043395 C90.9989647,32.9529871 90.2475706,34.0784775 89.0081486,34.1695798 L88.8437198,34.1755463 L88.7135623,34.1821136 C88.0716754,34.2472547 87.5712808,34.7889984 87.5712808,35.4486622 C87.5712808,36.108326 88.0716754,36.6500697 88.7135623,36.7152108 L88.8437198,36.721778 L88.8741772,36.721778 C89.221067,36.721778 89.511802,36.9840413 89.5474276,37.3290969 C89.8215781,39.984409 92.5244642,42.0910646 95.2702137,42.0910646 C98.5443801,42.0910646 100.689856,40.2586702 100.992323,37.3290969 C101.024386,37.0185468 101.263088,36.7750586 101.56339,36.7294665 L101.665573,36.721778 L101.826296,36.7152115 C102.468692,36.6500777 102.969147,36.1083901 102.969147,35.4486622 C102.969147,34.6242379 102.564463,34.1755463 101.603968,34.1692559 C100.767177,34.0543672 100.272261,33.7418395 99.7020603,33.0981413 L99.5577002,32.9302401 L99.3311327,32.6589718 C98.3852982,31.5465226 97.2414593,31.212084 93.9554765,31.7464298 C92.9916107,31.9024885 92.1834194,31.8032114 91.5361191,31.4911191 L91.3635756,31.4007585 L91.24,31.325 Z M67.5757698,31.3729403 L67.5761875,33.4989878 C67.5761875,33.8727903 67.2731607,34.1758171 66.8993583,34.1758171 C66.2702288,34.1758171 66.1149131,34.3620136 66.1149131,35.1436829 C66.1149131,35.954929 66.3163383,36.3025047 66.7929811,36.3452426 L66.9298156,36.3497927 C67.2767054,36.3497927 67.5674404,36.6120559 67.603066,36.9571115 C67.8965191,39.7993802 70.4833007,42.0906585 73.3251753,42.0906585 C76.4839456,42.0906585 78.7354481,39.9839906 79.0479615,36.9571115 C79.0800245,36.6465615 79.3187262,36.4030733 79.6190286,36.3574811 L79.7212119,36.3497927 L79.7516692,36.3497927 C80.2899869,36.3497927 80.5009192,36.0303786 80.5009192,35.1436829 C80.5009192,34.3951528 80.3813943,34.1994533 79.8611453,34.1779148 L79.7212119,34.1758171 C79.3813915,34.1758171 79.1000633,33.9253817 79.0517212,33.5990047 L79.0443826,33.4989878 L79.0437698,32.1829403 L67.5757698,31.3729403 Z M94.9378229,24.4246024 C93.3243726,24.4246024 91.7938582,24.9196224 90.543491,25.8169297 C88.8524811,27.0318299 87.8176585,28.8736935 87.7343591,30.8819834 L87.7289143,31.1448402 L87.7290514,33.0694079 C88.0673787,32.9106151 88.4451542,32.8218878 88.8437198,32.8218878 C89.573133,32.8218878 90.0983052,31.4327264 89.9167261,29.5877065 L89.8926096,29.3728496 L89.867,29.194 L89.8581226,29.0765371 C89.8509569,28.2795063 91.0811011,28.1396245 91.2062476,28.9923111 C91.3479016,29.9574711 91.9976349,30.6921356 93.7386658,30.410247 C97.3460041,29.8236443 98.9809585,30.2503851 100.244351,31.6475578 L100.365508,31.785796 L100.72202,32.2085263 C101.085326,32.6193775 101.320685,32.7646395 101.696031,32.8218878 C101.852594,32.8218878 102.003106,32.8316607 102.147306,32.850671 L102.146055,31.1448402 C102.146055,29.0412809 101.101556,27.0948804 99.3457105,25.8274745 C98.0938889,24.9234873 96.5578698,24.4246024 94.9378229,24.4246024 Z M74.1067698,24.1449403 L74.0000033,24.2180726 C73.6662206,24.4568496 73.330615,24.7548199 73.0172827,25.1140858 C72.2844949,25.954298 71.7888993,26.9916353 71.6350968,28.2529146 C71.5898498,28.6239685 71.2523713,28.8880873 70.8813174,28.8428404 C70.5102635,28.7975934 70.2461447,28.4601149 70.2913917,28.089061 C70.4796102,26.5455485 71.0936975,25.2601948 71.9971092,24.2243456 L72.0192381,24.1985694 C71.305708,24.3656881 70.6279397,24.6441868 70.0111299,25.0243854 C68.3863156,26.0255214 67.3201572,27.641465 67.1096449,29.4873744 L67.062,29.979 L80.282,30.913 L80.3009023,30.655102 C80.4306703,28.8157828 79.6800575,27.0471527 78.283603,25.7817196 L78.0797414,25.6044133 C77.5307071,25.1456094 76.908764,24.7765529 76.2365535,24.5098827 C76.9969292,25.6199773 77.454998,26.9428267 77.4764414,28.4754323 C77.4816709,28.8491982 77.1829132,29.1564347 76.8091473,29.1616642 C76.4353814,29.1668938 76.1281449,28.868136 76.1229153,28.4943701 C76.1039031,27.1355218 75.6699923,25.9925351 74.9561338,25.0478887 C74.7005419,24.7096648 74.4270588,24.4222486 74.1553705,24.186048 L74.1067698,24.1449403 Z M77.0532072,8.33251976 L77.0939744,8.42412793 L78.2276634,11.5740913 C78.3542482,11.925808 78.1717427,12.3135479 77.8200261,12.4401326 C77.5002836,12.5552097 77.15077,12.4148402 76.9947595,12.1241176 L76.9539848,12.0324952 L76.3203049,10.2731268 C74.6851248,13.9102278 75.9139063,18.2930123 79.3711032,20.5114797 C81.9137639,22.1429084 85.1025448,22.2289982 87.7093461,20.8126491 C88.0377988,20.6341914 88.4487308,20.7557864 88.6271884,21.0842391 C88.8056461,21.4126917 88.6840511,21.8236237 88.3555985,22.0020814 C85.3191378,23.6518768 81.6025065,23.5515362 78.6400681,21.6507686 C74.6661191,19.1007037 73.2187725,14.096686 75.0088024,9.89322076 L73.2817373,10.5146068 C72.9619681,10.6296093 72.6124872,10.4891584 72.4565445,10.1983993 L72.4157911,10.1067675 C72.3007886,9.78699827 72.4412395,9.43751733 72.7319986,9.28157468 L72.8236304,9.24082128 L76.2280816,8.01643714 C76.5477981,7.9014536 76.8972275,8.04183858 77.0532072,8.33251976 Z M89.0189438,5.63899204 C92.9692984,8.22555705 94.3705306,13.2427997 92.5420901,17.4298816 L94.2741238,16.8239581 C94.5949078,16.7118172 94.9431199,16.855385 95.0964585,17.1475257 L95.1363916,17.239518 C95.2485325,17.560302 95.1049647,17.9085141 94.812824,18.0618527 L94.7208317,18.1017858 L91.3055512,19.2957126 C90.9847432,19.4078619 90.6365078,19.2642639 90.4831864,18.9720879 L90.4432597,18.8800849 L89.3386744,15.7192922 C89.2153569,15.3664167 89.4014504,14.9803861 89.7543258,14.8570686 C90.0751217,14.7449617 90.4233186,14.8885665 90.5766261,15.1807235 L90.6165494,15.27272 L91.2342245,17.0377677 C92.9024963,13.4156128 91.7140648,9.02168656 88.2774616,6.77150945 C85.7499911,5.11684329 82.5619002,5.00153194 79.9423982,6.39406488 C79.6123355,6.56952691 79.2025267,6.44419833 79.0270647,6.11413565 C78.8516027,5.78407297 78.9769313,5.37426422 79.3069939,5.19880219 C82.3583089,3.5767166 86.0741511,3.7111164 89.0189438,5.63899204 Z M84.7855192,9.30234146 C85.3564969,9.30234146 85.9089518,9.45707241 86.4076013,9.74773376 C86.7305453,9.93597686 86.839742,10.3503759 86.6514989,10.6733199 C86.4632558,10.9962639 86.0488567,11.1054606 85.7259127,10.9172175 C85.4306119,10.7450875 85.1125319,10.656 84.7855192,10.656 C84.0186826,10.656 83.3189242,11.1551404 82.898804,11.9297657 L84.637632,11.9305372 C85.0114345,11.9305372 85.3144613,12.233564 85.3144613,12.6073665 C85.3144613,12.9471869 85.0640259,13.228515 84.7376489,13.2768572 L84.637632,13.2841957 L82.5037298,13.2842302 C82.4949199,13.3889713 82.4903912,13.4955118 82.4903912,13.6035915 C82.4903912,13.7120516 82.4949483,13.8189607 82.5038128,13.9240561 L84.637632,13.9235963 C85.0114345,13.9235963 85.3144613,14.2266231 85.3144613,14.6004256 C85.3144613,14.940246 85.0640259,15.2215742 84.7376489,15.2699163 L84.637632,15.2772549 L82.8987872,15.2778923 C83.3188947,16.0526846 84.0186436,16.5518598 84.7855192,16.5518598 C85.1956948,16.5518598 85.5921598,16.411631 85.943884,16.1446974 C86.241645,15.9187181 86.6662205,15.9769086 86.8921998,16.2746697 C87.1181792,16.5724307 87.0599887,16.9970061 86.7622276,17.2229855 C86.1806362,17.6643719 85.4988494,17.9055183 84.7855192,17.9055183 C83.2530506,17.9055183 81.9710717,16.8124162 81.4227008,15.2777949 L80.4507662,15.2772549 C80.0769637,15.2772549 79.7739369,14.9742281 79.7739369,14.6004256 C79.7739369,14.2606052 80.0243723,13.979277 80.3507493,13.9309349 L80.4507662,13.9235963 L81.1466703,13.9233677 C81.140082,13.8177056 81.1367326,13.7110639 81.1367326,13.6035915 C81.1367326,13.4961445 81.1400822,13.3895274 81.1466709,13.283889 L80.4507662,13.2841957 C80.0769637,13.2841957 79.7739369,12.9811689 79.7739369,12.6073665 C79.7739369,12.267546 80.0243723,11.9862179 80.3507493,11.9378758 L80.4507662,11.9305372 L81.4226059,11.9300398 C81.9709407,10.3955236 83.2530292,9.30234146 84.7855192,9.30234146 Z" id="Combined-Shape" fill="#333333" fill-rule="nonzero"></path>
                    </g>
                </g>
            </g>
        </g>
    </g>
</svg>