<?xml version="1.0" encoding="UTF-8"?>
<svg width="23px" height="23px" viewBox="0 0 23 23" version="1.1" xmlns="http://www.w3.org/2000/svg" xmlns:xlink="http://www.w3.org/1999/xlink">
    <title>←</title>
    <g id="Symbols" stroke="none" stroke-width="1" fill="none" fill-rule="evenodd">
        <g id="←">
            <rect id="Rectangle" x="0" y="0" width="23" height="23"></rect>
            <path d="M1.7578125,11.6279297 C1.7578125,11.9443359 1.86914062,12.2080078 2.09179688,12.4189453 L6.54785156,16.875 C6.77636719,17.0976562 7.02832031,17.2089844 7.30371094,17.2089844 C7.61425781,17.2089844 7.86767578,17.1108398 8.06396484,16.9145508 C8.26025391,16.7182617 8.35839844,16.4765625 8.35839844,16.1894531 C8.35839844,16.0253906 8.32617188,15.8803711 8.26171875,15.7543945 C8.19726562,15.628418 8.11523438,15.5185547 8.015625,15.4248047 L6.61816406,14.0185547 L4.28027344,11.8828125 L3.82324219,12.5507812 L6.59179688,12.7089844 L14.1064453,12.7089844 C14.4462891,12.7089844 14.7172852,12.609375 14.9194336,12.4101562 C15.121582,12.2109375 15.2226562,11.9501953 15.2226562,11.6279297 C15.2226562,11.3115234 15.121582,11.0537109 14.9194336,10.8544922 C14.7172852,10.6552734 14.4462891,10.5556641 14.1064453,10.5556641 L6.59179688,10.5556641 L3.82324219,10.7138672 L4.28027344,11.3818359 L6.61816406,9.24609375 L8.015625,7.83105469 C8.11523438,7.73730469 8.19726562,7.62744141 8.26171875,7.50146484 C8.32617188,7.37548828 8.35839844,7.23046875 8.35839844,7.06640625 C8.35839844,6.77929688 8.26025391,6.53759766 8.06396484,6.34130859 C7.86767578,6.14501953 7.61425781,6.046875 7.30371094,6.046875 C7.02832031,6.046875 6.77636719,6.15820312 6.54785156,6.38085938 L2.09179688,10.8369141 C1.86914062,11.0537109 1.7578125,11.3173828 1.7578125,11.6279297 Z" id="Path" fill="#4643EF" fill-rule="nonzero"></path>
        </g>
    </g>
</svg>