<?xml version="1.0" encoding="UTF-8"?>
<svg width="23px" height="23px" viewBox="0 0 23 23" version="1.1" xmlns="http://www.w3.org/2000/svg" xmlns:xlink="http://www.w3.org/1999/xlink">
    <title>↓</title>
    <g id="implementation" stroke="none" stroke-width="1" fill="none" fill-rule="evenodd">
        <g id="Home-–-Desktop" transform="translate(-289.000000, -460.000000)">
            <g id="hero-section" transform="translate(83.000000, 122.000000)">
                <g id="cta" transform="translate(69.000000, 85.000000)">
                    <g transform="translate(0.000000, 241.000000)" id="button-text">
                        <g transform="translate(30.000000, 12.000000)">
                            <g id="↓" transform="translate(107.000000, 0.000000)">
                                <rect id="wrapper" x="0" y="0" width="23" height="23"></rect>
                                <path d="M11.3388672,5.03613281 C11.0166016,5.03613281 10.7558594,5.13867188 10.5566406,5.34375 C10.3574219,5.54882812 10.2578125,5.81835938 10.2578125,6.15234375 L10.2578125,13.5263672 L10.3808594,16.2158203 L10.9960938,15.8027344 L8.94824219,13.4208984 L7.54199219,12.0146484 C7.44824219,11.9208984 7.33837891,11.8417969 7.21240234,11.7773438 C7.08642578,11.7128906 6.94140625,11.6806641 6.77734375,11.6806641 C6.49023438,11.6806641 6.24853516,11.7773438 6.05224609,11.9707031 C5.85595703,12.1640625 5.7578125,12.4130859 5.7578125,12.7177734 C5.7578125,13.0048828 5.86914062,13.2626953 6.09179688,13.4912109 L10.5478516,17.9472656 C10.7587891,18.1699219 11.0224609,18.28125 11.3388672,18.28125 C11.6552734,18.28125 11.9189453,18.1699219 12.1298828,17.9472656 L16.5859375,13.4912109 C16.8085938,13.2626953 16.9199219,13.0048828 16.9199219,12.7177734 C16.9199219,12.4130859 16.8217773,12.1640625 16.6254883,11.9707031 C16.4291992,11.7773438 16.1875,11.6806641 15.9003906,11.6806641 C15.7363281,11.6806641 15.5913086,11.7128906 15.465332,11.7773438 C15.3393555,11.8417969 15.2294922,11.9208984 15.1357422,12.0146484 L13.7207031,13.4208984 L11.6728516,15.8027344 L12.296875,16.2158203 L12.4111328,13.5263672 L12.4111328,6.15234375 C12.4111328,5.81835938 12.3115234,5.54882812 12.1123047,5.34375 C11.9130859,5.13867188 11.6552734,5.03613281 11.3388672,5.03613281 Z" id="Path" fill="#FFFFFF" fill-rule="nonzero"></path>
                            </g>
                        </g>
                    </g>
                </g>
            </g>
        </g>
    </g>
</svg>