<?xml version="1.0" encoding="UTF-8"?>
<svg width="111px" height="74px" viewBox="0 0 111 74" version="1.1" xmlns="http://www.w3.org/2000/svg" xmlns:xlink="http://www.w3.org/1999/xlink">
    <title>icon 3</title>
    <g id="implementation" stroke="none" stroke-width="1" fill="none" fill-rule="evenodd">
        <g id="Home-–-Mobile" transform="translate(-227.000000, -2403.000000)">
            <g id="services" transform="translate(30.000000, 2305.000417)">
                <g id="tile-2" transform="translate(175.000000, 75.999583)">
                    <g id="icon" transform="translate(22.000000, 22.000000)">
                        <polygon id="wrapper" points="0 73.097561 111 73.097561 111 0 0 0"></polygon>
                        <path d="M51.8979146,21.3876018 C53.2309394,21.3876018 54.436417,22.159857 54.998328,23.3558075 L55.0777234,23.5383342 L63.0756668,43.4739628 C64.4259685,43.0107793 65.8746321,42.7593659 67.3820085,42.7593659 C74.7088781,42.7593659 80.6478622,48.69835 80.6478622,56.0252195 C80.6478622,63.3520891 74.7088781,69.2910732 67.3820085,69.2910732 L67.3957396,69.2901243 L67.3820762,69.2911409 L54.7930518,69.2911409 C54.4192493,69.2911409 54.1162226,68.9881141 54.1162226,68.6143116 C54.1162226,68.2744911 54.3666579,67.993163 54.693035,67.9448209 L54.7930518,67.9374823 L61.5400283,67.9387892 C57.1427876,65.7784653 54.1161549,61.2553474 54.1161549,56.0252195 C54.1161549,50.6851247 57.2713995,46.0820832 61.8191953,43.9785322 L59.2357396,37.5401243 L47.1649242,56.390234 L47.1472714,56.4164354 C47.1397618,56.4268536 47.1317028,56.4375851 47.1233081,56.4480908 C47.1116177,56.4628372 47.0996154,56.4766229 47.0871168,56.4898626 C47.0780153,56.4994133 47.0682963,56.5091176 47.0582479,56.5185494 C47.0443206,56.5317091 47.0302545,56.5438431 47.0157386,56.5553622 C47.005493,56.5633714 46.9944415,56.5716139 46.9830835,56.5795521 L46.9337226,56.6111685 C46.9274887,56.6145942 46.9205297,56.6184681 46.9134768,56.622235 L46.8377396,56.6561243 L46.8035043,56.6691293 C46.7803419,56.6766291 46.7567925,56.6828826 46.7328807,56.6878594 C46.7212112,56.6903908 46.7098176,56.6924599 46.6984085,56.6942302 L46.6537396,56.6981243 L46.6613906,56.6989253 C46.6366532,56.7013673 46.6118989,56.702426 46.5872387,56.702135 L35.0755523,56.701956 C34.7234476,63.7094987 28.9337662,69.2837273 21.840685,69.2910659 L21.8265933,69.2911409 L9.2375689,69.2911409 C8.86376642,69.2911409 8.56073963,68.9881141 8.56073963,68.6143116 C8.56073963,68.2744911 8.81117499,67.993163 9.13755203,67.9448209 L9.2375689,67.9374823 L15.9838003,67.9384931 C11.5868975,65.7780894 8.56080732,61.255239 8.56080732,56.0252195 C8.56080732,48.69835 14.4997914,42.7593659 21.826661,42.7593659 C24.309943,42.7593659 26.9942964,43.5538618 29.00178,44.9446886 L35.2737396,36.2651243 L32.0807396,30.2861243 L28.2233744,30.2868915 C27.8495719,30.2868915 27.5465451,29.9838647 27.5465451,29.6100622 C27.5465451,29.2702418 27.7969805,28.9889136 28.1233575,28.9405715 L28.2233744,28.9332329 L37.0004963,28.9332329 C37.3742988,28.9332329 37.6773256,29.2362597 37.6773256,29.6100622 C37.6773256,29.9498826 37.4268903,30.2312108 37.1005132,30.2795529 L37.0004963,30.2868915 L33.6147396,30.2861243 L36.4757396,35.6431243 L58.4747396,35.6431243 L53.8213659,24.042276 C53.5271578,23.3086599 52.8441297,22.8111313 52.0660043,22.7480547 L51.8979146,22.7412604 L48.364189,22.7412604 C47.9903865,22.7412604 47.6873598,22.4382336 47.6873598,22.0644311 C47.6873598,21.7246107 47.9377951,21.4432825 48.2641722,21.3949404 L48.364189,21.3876018 L51.8979146,21.3876018 Z M21.826661,44.1130244 C15.2473964,44.1130244 9.91446585,49.4459549 9.91446585,56.0252195 C9.91446585,62.6044841 15.2473964,67.9374146 21.826661,67.9374146 C28.1783519,67.9374146 33.3690988,62.9661466 33.7199522,56.7020254 L21.8263902,56.7020488 C21.3086428,56.7020488 20.9952148,56.1520678 21.2246387,55.714529 L21.2778618,55.6287168 L28.2082329,46.0417187 C26.4386987,44.8237279 24.0341332,44.1130244 21.826661,44.1130244 Z M67.3820085,44.1130244 C66.0528473,44.1130244 64.774524,44.3307171 63.580751,44.732395 L68.0099003,55.773005 C68.1490824,56.1199295 67.9806738,56.5139968 67.6337493,56.6531789 C67.3183634,56.7797081 66.9640165,56.6520302 66.7976267,56.3671208 L66.7535754,56.277028 L62.3236727,45.2372242 C58.2739115,47.1393899 55.4698134,51.2547912 55.4698134,56.0252195 C55.4698134,62.6042447 60.8031814,67.9374146 67.3820085,67.9374146 C73.9612731,67.9374146 79.2942037,62.6044841 79.2942037,56.0252195 C79.2942037,49.4459549 73.9612731,44.1130244 67.3820085,44.1130244 Z M18.8660781,48.3371067 C19.0283134,48.672746 18.8877417,49.0763531 18.5521024,49.2385885 C15.9691892,50.4870708 14.2930079,53.1050732 14.2930079,56.0252195 C14.2930079,56.3980117 13.9908001,56.7002195 13.6180079,56.7002195 C13.2452157,56.7002195 12.9430079,56.3980117 12.9430079,56.0252195 C12.9430079,52.5823018 14.9197162,49.4949107 17.9645964,48.0231311 C18.3002357,47.8608958 18.7038428,48.0014675 18.8660781,48.3371067 Z M35.9827396,37.5931243 L23.15,55.348 L45.4647396,55.3471243 L35.9827396,37.5931243 Z M57.977,36.996 L37.1977396,36.9951243 L46.6467396,54.6871243 L57.977,36.996 Z M31.628959,47.0865705 C33.1258703,48.7274573 34.1923947,50.7178651 34.7186943,52.8863881 C34.8068566,53.2496452 34.5838482,53.6155929 34.2205912,53.7037552 C33.8573341,53.7919176 33.4913864,53.5689092 33.403224,53.2056521 C32.930913,51.2595791 31.9734811,49.472766 30.6289105,47.9988722 C30.3769853,47.7227164 30.3966281,47.2946223 30.6727839,47.0426971 C30.9489397,46.7907719 31.3770338,46.8104147 31.628959,47.0865705 Z M86.9759558,7.14381085 C88.4650251,9.28203613 88.7169864,12.1655495 87.5847651,14.5415607 L87.518,14.674 L89.9047396,16.9041243 L93.049953,14.125327 C93.2782337,13.9235405 93.6085689,13.901763 93.8588541,14.0596106 L93.9486031,14.1272226 L94.4427396,14.5681243 L97.8963921,10.8330777 C98.4726079,10.24649 98.8538359,9.51514552 99.0071854,8.71716453 C99.0813474,8.30475145 99.0994993,7.89301396 99.0594016,7.4908912 C99.0420074,7.31645276 99.0930285,7.14353855 99.1992511,7.00739831 L99.2695031,6.93040904 L102.392393,3.99703099 C102.632197,3.77177964 102.993979,3.75453844 103.252377,3.94178225 L103.334372,4.01176553 L105.650481,6.32787529 C105.890261,6.56765447 105.912269,6.94211789 105.717881,7.20663884 L105.645072,7.29040498 L103.48328,9.40414278 C103.216008,9.66547374 102.78749,9.66065741 102.526159,9.39338521 C102.290961,9.15284023 102.271343,8.78168654 102.464612,8.51935099 L102.536917,8.43626453 L104.209,6.8 L102.841,5.432 L100.428,7.699 L100.433166,7.99519866 C100.429978,8.20922803 100.414731,8.42432489 100.387598,8.64022513 L100.338005,8.96464504 C100.150187,9.94229771 99.7084298,10.8412062 99.058618,11.5717756 L95.4447396,15.4791243 L96.725131,16.6653045 C96.9618356,16.884652 97.0076125,17.2358862 96.8481381,17.5056437 L96.7873584,17.5922525 L90.7167396,24.9571243 L95.6144945,31.3206798 C96.5896994,32.5894716 98.4390811,32.727572 99.6110628,31.6218507 C100.685552,30.6023567 100.717572,28.910598 99.712617,27.8461071 L99.5815971,27.7164068 L95.0197678,23.4875775 C94.7456335,23.2334542 94.7294113,22.8052167 94.9835347,22.5310824 C95.2122457,22.2843615 95.5819891,22.2465495 95.8534946,22.4267102 L95.9400298,22.4948493 L100.501435,26.7232856 C102.211744,28.3060325 102.229649,31.0033056 100.541395,32.6051456 C98.8404369,34.2099425 96.1744331,34.063341 94.678271,32.3145847 L94.5414982,32.1459495 L89.8347396,26.0291243 L84.440016,32.5865839 C83.6647024,33.5426988 82.510328,34.0723299 81.2902409,34.0723299 C80.3253264,34.0723299 79.3922297,33.7339658 78.6573446,33.0936264 C76.8249191,31.5509031 76.7227231,28.800574 78.3889896,27.0956372 L78.5503843,26.9389308 L85.6987396,20.6221243 L83.851,18.22 L83.6056035,18.3283949 C81.0786787,19.3829965 78.1360155,18.9960409 75.9867042,17.2443561 L75.7672413,17.0582822 C73.5367411,15.1504146 72.6582133,12.2000132 73.4681541,9.46438144 C73.5987804,9.02318191 74.1146482,8.8463055 74.4849771,9.0880834 L74.5619123,9.14635716 L77.9909304,12.1358617 C78.2401884,12.3504546 78.5929414,12.3861722 78.8785318,12.2261532 L78.9821467,12.156938 L81.6043981,10.1745288 C81.9923296,9.87919579 82.0470162,9.34804926 81.7483394,9.00316658 L81.6662968,8.92107066 L77.7230894,5.50037554 C77.3416054,5.16944178 77.4438215,4.552388 77.9116397,4.36214267 C81.1606377,3.04088875 84.8921547,4.09298632 86.9759558,7.14381085 Z M93.496,15.537 L87.1165712,21.1749916 C87.0918051,21.2014004 87.0645879,21.2261648 87.0349619,21.2489591 L87.0257396,21.2541243 L79.4571901,27.9438645 C78.2778962,29.0307471 78.2649808,30.8531231 79.4015928,31.9430953 L79.5378408,32.0655275 C80.0310471,32.4951951 80.6473209,32.7186713 81.2902409,32.7186713 C82.0462605,32.7186713 82.7568927,32.4193126 83.2680867,31.8721819 L83.3916411,31.7302672 L89.2342613,24.6271173 C89.2785661,24.5377635 89.3433881,24.4568619 89.427748,24.3919348 L89.4307396,24.3891243 L95.336,17.223 L94.1573392,16.1343385 C94.1059298,16.1073222 94.0571772,16.0731935 94.0124966,16.0318965 C93.9708578,15.9934109 93.9351472,15.9509105 93.90541,15.9055407 L93.496,15.537 Z M89.5386491,21.6032155 C89.7747286,21.8428953 89.7957098,22.2139745 89.6034046,22.4770179 L89.5314058,22.5603693 L81.6463448,30.3269851 C81.3800339,30.5892956 80.9515016,30.5860527 80.6891911,30.3197418 C80.4531116,30.080062 80.4321305,29.7089828 80.6244357,29.4459394 L80.6964344,29.3625881 L88.5814954,21.5959722 C88.8478063,21.3336617 89.2763386,21.3369046 89.5386491,21.6032155 Z M79.6545708,5.25591888 L79.535,5.279 L82.5538162,7.89896484 C83.5543016,8.76854567 83.523648,10.2851115 82.5542998,11.1446778 L82.4225472,11.252962 L79.8087863,13.2288003 C79.0517425,13.8243415 78.004644,13.8227511 77.2437376,13.2692046 L77.1045621,13.1589575 L74.554,10.935 L74.5433997,11.0503008 C74.4049989,12.8204272 75.085631,14.5877008 76.4627245,15.8651575 L76.6548153,16.0362744 C78.6098013,17.760064 81.4495301,18.0360323 83.7159543,16.7724231 C83.9764,16.6272157 84.2964609,16.6710631 84.5080422,16.8693318 L84.5819719,16.9508534 L86.7157396,19.7241243 L88.8867396,17.8051243 L86.1961196,15.2930357 C85.9548014,15.067647 85.9146508,14.7061495 86.0864132,14.4359187 L86.1558218,14.3431526 L86.2904025,14.1059569 L86.2921568,14.1071403 C87.2978705,12.1947926 87.1212557,9.72114158 85.8616422,7.91235431 C84.4005419,5.77324011 81.9831397,4.82996526 79.6545708,5.25591888 Z" id="Combined-Shape" fill="#333333" fill-rule="nonzero"></path>
                    </g>
                </g>
            </g>
        </g>
    </g>
</svg>