<?xml version="1.0" encoding="UTF-8"?>
<svg width="111px" height="73px" viewBox="0 0 111 73" version="1.1" xmlns="http://www.w3.org/2000/svg" xmlns:xlink="http://www.w3.org/1999/xlink">
    <title>icon 4</title>
    <g id="implementation" stroke="none" stroke-width="1" fill="none" fill-rule="evenodd">
        <g id="Home-–-Mobile" transform="translate(-52.000000, -2403.000000)">
            <g id="services" transform="translate(30.000000, 2305.000417)">
                <g id="tile-1" transform="translate(0.000000, 75.999583)">
                    <g id="icon" transform="translate(22.000000, 22.000000)">
                        <polygon id="wrapper" points="0 73 111 73 111 0 0 0"></polygon>
                        <path d="M67.1162177,29.4323268 C68.2732579,29.4323268 69.3203455,30.0995869 69.8141699,31.1338737 L69.8912752,31.3096017 L76.5845992,47.9924584 C77.7042434,47.6197836 78.9019551,47.4179817 80.1468055,47.4179817 C86.371797,47.4179817 91.4180433,52.464228 91.4180433,58.6892195 C91.4180433,64.8169455 86.5282602,69.8024743 80.4377239,69.9567761 L80.1468055,69.9604573 L68.8086293,69.960525 C68.4348268,69.960525 68.1318,69.6574982 68.1318,69.2836957 C68.1318,68.9438753 68.3822354,68.6625472 68.7086124,68.614205 L68.8086293,68.6068665 L74.7871656,68.6071032 C71.2665593,66.700568 68.8755677,62.9741479 68.8755677,58.6892195 C68.8755677,54.1879451 71.5140968,50.3030008 75.3289085,48.4966333 L73.2695522,43.3656268 L63.2232377,59.0542378 C63.2214376,59.0570485 63.2196187,59.0598431 63.2177811,59.0626215 C63.2089895,59.0762009 63.1996278,59.0893299 63.1897732,59.1021437 L63.1543098,59.1442751 C63.146588,59.1530221 63.1386069,59.1613614 63.1303875,59.1695155 C63.1152295,59.1843417 63.0997855,59.1983069 63.0837663,59.2115082 C63.0728512,59.2206105 63.0614122,59.2294266 63.0496296,59.2379164 C63.0360009,59.2476865 63.0224959,59.2567033 63.0086908,59.2652207 L63.0009084,59.2699523 L62.9925368,59.2748799 C62.9501262,59.2994476 62.9061571,59.3188975 62.861345,59.3334202 C62.8491818,59.3372208 62.8364793,59.3409279 62.8236567,59.3442638 C62.80469,59.3493621 62.7859518,59.3533806 62.7671547,59.3565856 L62.7107324,59.3636342 L62.7083133,59.3639657 C62.6959618,59.3649646 62.6836074,59.3656208 62.6712641,59.365938 L53.0604565,59.3665259 C52.7102096,65.2761648 47.8068197,69.9604573 41.8092329,69.9604573 L30.470989,69.960525 C30.0971865,69.960525 29.7941598,69.6574982 29.7941598,69.2836957 C29.7941598,68.9438753 30.0445951,68.6625472 30.3709722,68.614205 L30.470989,68.6068665 L36.449593,68.6071032 C32.9289867,66.700568 30.5379951,62.9741479 30.5379951,58.6892195 C30.5379951,55.9926495 31.4849173,53.5172697 33.0643859,51.5774559 C31.8232645,49.0919548 29.5280696,47.581024 26.7612338,47.5320488 L26.9661384,49.5273085 C26.9934451,49.7930534 26.8620788,50.0465126 26.6371055,50.1792757 L26.5484797,50.2231925 L19.4465102,53.1200218 C19.2851425,53.1858423 19.1059709,53.1864188 18.9459185,53.1242715 L18.8524767,53.0794765 L5.46208649,45.3487326 C5.16778818,45.1788238 5.04936567,44.8212722 5.17069082,44.5144475 L5.21434466,44.4241602 L11.4959971,33.5441297 C11.6659067,33.2498406 12.0234492,33.1314214 12.330269,33.2527402 L12.420555,33.2963918 L25.8109452,41.0271357 C25.9677067,41.1176396 26.0803332,41.266259 26.1263698,41.4383287 L26.1458213,41.5441073 L26.6219862,46.1771204 C29.7917622,46.1768762 32.494797,47.8052498 34.0380089,50.5255884 C36.0588982,48.6003851 38.7959676,47.4179817 41.8092329,47.4179817 C43.8843354,47.4179817 46.1230132,48.0702579 47.8213342,49.2168417 L52.5745522,42.6406268 L49.3845522,37.1356268 L46.6522171,37.1361329 C46.2784146,37.1361329 45.9753878,36.8331061 45.9753878,36.4593037 C45.9753878,36.1194832 46.2258232,35.8381551 46.5522002,35.789813 L46.6522171,35.7824744 L54.0391317,35.7824744 C54.4129342,35.7824744 54.715961,36.0855012 54.715961,36.4593037 C54.715961,36.7991241 54.4655256,37.0804522 54.1391486,37.1287944 L54.0391317,37.1361329 L50.9495522,37.1356268 L53.4820306,41.5067743 C53.5457937,41.473348 53.6148618,41.4500999 53.6867199,41.4383152 L53.7962854,41.4293963 L72.4925522,41.4286268 L68.6349677,31.8136682 C68.4037084,31.2372988 67.868549,30.8452154 67.2582785,30.7921442 L67.1162177,30.7859854 L64.1422299,30.7859854 C63.7684274,30.7859854 63.4654006,30.4829586 63.4654006,30.1091561 C63.4654006,29.7693357 63.715836,29.4880075 64.042213,29.4396654 L64.1422299,29.4323268 L67.1162177,29.4323268 Z M41.8092329,48.7716402 C38.8510187,48.7716402 36.1953372,50.066773 34.3782696,52.1209574 C34.3724723,52.1292781 34.365706,52.1369193 34.358756,52.144416 C32.8229658,53.8896972 31.8916537,56.1806848 31.8916537,58.6892195 C31.8916537,64.1666061 36.3318464,68.6067988 41.8092329,68.6067988 C47.0589315,68.6067988 51.3558737,64.5280799 51.7040392,59.3666623 L41.8089622,59.3660488 C41.2912109,59.3660488 40.9777835,58.8160605 41.2072145,58.3785216 L41.2604391,58.2927094 L47.0284037,50.3148962 C45.5665296,49.3399067 43.6084241,48.7716402 41.8092329,48.7716402 Z M80.1468055,48.7716402 C79.080104,48.7716402 78.0527392,48.9400398 77.0898458,49.2517043 L80.7753666,58.4369188 C80.9145589,58.7838393 80.746162,59.1779115 80.3992416,59.3171038 C80.0838593,59.4436423 79.7295087,59.3159748 79.5631105,59.0310702 L79.5190565,58.9409788 L75.833627,49.7561153 C72.5168405,51.3604866 70.2292262,54.7576688 70.2292262,58.6892195 C70.2292262,64.1666061 74.6694189,68.6067988 80.1468055,68.6067988 C85.624192,68.6067988 90.0643848,64.1666061 90.0643848,58.6892195 C90.0643848,53.211833 85.624192,48.7716402 80.1468055,48.7716402 Z M53.3165522,43.9226268 L43.133,58.012 L61.4785522,58.0116268 L53.3165522,43.9226268 Z M72.036,42.783 L54.2215522,42.7826268 L62.6815522,57.3886268 L72.036,42.783 Z M50.1376814,51.0944913 C51.4097885,52.4886213 52.3164565,54.1803806 52.7631983,56.0227466 C52.8512862,56.3860217 52.6282029,56.7519238 52.2649278,56.8400117 C51.9016526,56.9280996 51.5357506,56.7050163 51.4476627,56.3417412 C51.0549123,54.7220361 50.2574246,53.2339974 49.1377406,52.0069111 C48.8857828,51.7307851 48.9053751,51.3026886 49.1815011,51.0507308 C49.4576271,50.7987731 49.8857236,50.8183653 50.1376814,51.0944913 Z M12.329,34.807 L6.724,44.514 L19.241,51.741 L25.567,49.161 L25.4096809,47.6212815 C24.7663498,47.7160896 24.1043852,47.8865512 23.4301328,48.1379765 C23.0798888,48.2685807 22.6900844,48.0905274 22.5594802,47.7402834 C22.428876,47.3900395 22.6069293,47.000235 22.9571733,46.8696308 C23.7420485,46.5769549 24.5158103,46.3804929 25.2700803,46.2737576 L24.834,42.026 L12.329,34.807 Z M15.3480381,39.185251 C15.4928769,39.5298522 15.3309374,39.9266218 14.9863362,40.0714606 C14.5793131,40.2425359 14.2598693,40.5155985 14.054768,40.8707856 C13.6714176,41.5350066 13.7538099,42.3907065 14.214557,43.1418243 L15.0844831,41.6364951 C15.2713904,41.3127761 15.6853348,41.2018684 16.0090537,41.3887758 C16.3033437,41.5586915 16.4217565,41.9162412 16.3004278,42.2230608 L16.256773,42.3133464 L15.1892231,44.1605267 C15.2757203,44.2206734 15.3659356,44.2779961 15.4597663,44.3321475 C15.5536749,44.3863594 15.6485138,44.4358539 15.7439315,44.4807157 L16.8105331,42.6329908 C16.9974404,42.3092719 17.4113848,42.1983642 17.7351037,42.3852715 C18.0293937,42.5551873 18.1478065,42.9127369 18.0264778,43.2195565 L17.982823,43.3098421 L17.1141041,44.8157352 C17.9950951,44.8393282 18.7771068,44.4828454 19.1607222,43.8183969 C19.3242453,43.5352463 19.4059156,43.2159759 19.4043918,42.8739225 C19.4027265,42.5001238 19.7044004,42.19575 20.0781991,42.1940848 C20.4519979,42.1924195 20.7563716,42.4940933 20.7580712,42.8678921 C20.7606102,43.4455149 20.6185699,44.0007868 20.3329852,44.4952949 C19.5663497,45.8231607 17.978326,46.3867778 16.3746921,46.0937676 L15.8893901,46.9356165 C15.7024827,47.2593355 15.2885384,47.3702432 14.9648194,47.1833358 C14.6705295,47.0134201 14.5521166,46.6558704 14.6734454,46.3490508 L14.7171002,46.2587652 L15.0659809,45.6562977 C14.9708408,45.6090314 14.8764747,45.558448 14.7830684,45.5045261 C14.6899335,45.4507762 14.5991965,45.3945342 14.5109315,45.3359708 L14.1633401,45.9391208 C13.9764327,46.2628397 13.5624884,46.3737474 13.2387694,46.1868401 C12.9444795,46.0169243 12.8260666,45.6593746 12.9473954,45.3525551 L12.9910502,45.2622694 L13.4764519,44.4201127 C12.4219647,43.1781563 12.1164325,41.5212409 12.8824369,40.1940056 C13.2391855,39.576201 13.7887038,39.1064691 14.4618284,38.8235491 C14.8064297,38.6787103 15.2031992,38.8406498 15.3480381,39.185251 Z M30.202,12.265 L19.245,12.265 L19.2456402,16.6156848 C19.2456402,17.9046675 19.6923327,19.1220282 20.4878102,20.0900323 L20.6635725,20.2935804 L20.8497979,20.4891064 C21.8072892,21.4465977 23.0796167,22.0192918 24.4355549,22.0872964 L24.7077888,22.0941325 L24.9898347,22.0876113 C26.3635038,22.0220679 27.6399429,21.4471583 28.5979948,20.4891064 C29.5549222,19.532179 30.1275149,18.2598532 30.195351,16.8907343 L30.2021524,16.6156848 L30.202,12.265 Z M42.512,12.265 L31.556,12.265 L31.556,16.6156848 C31.556,17.9046675 32.0027636,19.1220282 32.7982506,20.0900323 L32.974014,20.2935804 L33.1602393,20.4891064 C34.1177307,21.4465977 35.3900582,22.0192918 36.7459963,22.0872964 L37.0182302,22.0941325 L37.3002762,22.0876113 C38.6739453,22.0220679 39.9503843,21.4471583 40.9084363,20.4891064 C41.8653637,19.532179 42.4379564,18.2598532 42.5057925,16.8907343 L42.5125939,16.6156848 L42.512,12.265 Z M54.8230354,12.265 L43.866,12.265 L43.8665232,16.6156848 C43.8665232,17.9046675 44.3132156,19.1220282 45.1086931,20.0900323 L45.2844555,20.2935804 L45.4706808,20.4891064 C46.4281722,21.4465977 47.7004996,22.0192918 49.0564378,22.0872964 L49.3286717,22.0941325 L49.6107176,22.0876113 C50.9843867,22.0220679 52.2608258,21.4471583 53.2188777,20.4891064 C54.1758051,19.532179 54.7483978,18.2598532 54.8162339,16.8907343 L54.8230354,16.6156848 L54.8230354,12.265 Z M67.133,12.265 L56.1765522,12.2646268 L56.1769646,16.6156848 C56.1769646,17.9046675 56.6236571,19.1220282 57.4191346,20.0900323 L57.5948969,20.2935804 L57.7811223,20.4891064 C58.7386136,21.4465977 60.0109411,22.0192918 61.3668792,22.0872964 L61.6391132,22.0941325 L61.9211591,22.0876113 C63.2948282,22.0220679 64.5712673,21.4471583 65.5293192,20.4891064 C66.4862466,19.532179 67.0588393,18.2598532 67.1266754,16.8907343 L67.1334768,16.6156848 L67.133,12.265 Z M79.443,12.265 L68.487,12.265 L68.4874061,16.6156848 C68.4874061,17.9046675 68.9340986,19.1220282 69.7295761,20.0900323 L69.9053384,20.2935804 L70.0915637,20.4891064 C71.0490551,21.4465977 72.3213826,22.0192918 73.6773207,22.0872964 L73.9495546,22.0941325 L74.2316006,22.0876113 C75.6052696,22.0220679 76.8817087,21.4471583 77.8397607,20.4891064 C78.7966881,19.532179 79.3692808,18.2598532 79.4371168,16.8907343 L79.4439183,16.6156848 L79.443,12.265 Z M91.754,12.265 L80.7975522,12.2646268 L80.7978476,16.6156848 C80.7978476,17.9046675 81.24454,19.1220282 82.0400175,20.0900323 L82.2157799,20.2935804 L82.4020052,20.4891064 C83.3594966,21.4465977 84.631824,22.0192918 85.9877622,22.0872964 L86.2599961,22.0941325 L86.542042,22.0876113 C87.9157111,22.0220679 89.1921502,21.4471583 90.1502021,20.4891064 C91.1071295,19.532179 91.6797222,18.2598532 91.7475583,16.8907343 L91.7543598,16.6156848 L91.754,12.265 Z M85.987,5.844 L26.258,5.844 L20.3875522,10.9106268 L90.8435522,10.9106268 L85.987,5.844 Z M92.9710284,11.1798808 L92.9918463,11.2087056 L92.9918463,11.2087056 C93.0010098,11.2224004 93.0101188,11.2369592 93.0186762,11.251875 C93.0281762,11.2682797 93.0367638,11.2848647 93.0446182,11.3017018 C93.0717943,11.3599172 93.0909531,11.4225114 93.1006797,11.4881801 L93.1080183,11.588197 L93.1080183,16.6156848 C93.1080183,18.451487 92.379465,20.1742057 91.1073832,21.4462875 C89.9974735,22.5561972 88.5420668,23.2546302 86.9533084,23.4135532 L86.9529329,30.9475445 C86.9529329,31.321347 86.6499061,31.6243738 86.2761037,31.6243738 C85.9362832,31.6243738 85.6549551,31.3739384 85.606613,31.0475614 L85.5992744,30.9475445 L85.598599,23.4143008 C84.0196095,23.2584121 82.559584,22.5610475 81.4448241,21.4462875 C80.8979253,20.8993887 80.4514895,20.2691965 80.1202197,19.5825346 C79.7902764,20.2691965 79.3438406,20.8993887 78.7969418,21.4462875 C77.6732661,22.5699632 76.1954701,23.2718919 74.5836907,23.4192172 L74.2799657,23.440309 L73.9656622,23.4475994 C72.1297181,23.4475994 70.4070473,22.7189522 69.1343826,21.4462875 C68.5872161,20.899121 68.140611,20.2685796 67.8092919,19.5815262 C67.4802719,20.2685796 67.0336668,20.899121 66.4865003,21.4462875 C65.3628246,22.5699632 63.8850286,23.2718919 62.2732493,23.4192172 L61.9695243,23.440309 L61.6552207,23.4475994 C59.8192766,23.4475994 58.0966058,22.7189522 56.8239411,21.4462875 C56.2770423,20.8993887 55.8306066,20.2691965 55.4993368,19.5825346 C55.1693934,20.2691965 54.7229577,20.8993887 54.1760589,21.4462875 C53.0523832,22.5699632 51.5745871,23.2718919 49.9628078,23.4192172 L49.6590828,23.440309 L49.3447793,23.4475994 C47.5088352,23.4475994 45.7861643,22.7189522 44.5134997,21.4462875 C43.9663332,20.899121 43.5197281,20.2685796 43.188409,19.5815262 C42.859389,20.2685796 42.4127839,20.899121 41.8656174,21.4462875 C40.7419417,22.5699632 39.2641457,23.2718919 37.6523664,23.4192172 L37.3486414,23.440309 L37.0343378,23.4475994 C35.1983937,23.4475994 33.4757229,22.7189522 32.2030582,21.4462875 C31.6561594,20.8993887 31.2097236,20.2691965 30.8784539,19.5825346 C30.5485105,20.2691965 30.1020747,20.8993887 29.5551759,21.4462875 C28.4453121,22.5561514 26.9899799,23.2545724 25.4012981,23.4135335 L25.4007256,30.9475445 C25.4007256,31.321347 25.0976988,31.6243738 24.7238963,31.6243738 C24.3840759,31.6243738 24.1027478,31.3739384 24.0544056,31.0475614 L24.0470671,30.9475445 L24.0463916,23.4143008 C22.4674022,23.2584121 21.0073767,22.5610475 19.8926168,21.4462875 C18.6912062,20.2448769 17.9746096,18.6415093 17.8986958,16.9205468 L17.8919817,16.6156848 L17.8919817,11.588197 C17.8919817,11.5783422 17.8921923,11.5685366 17.8926093,11.5587844 C17.8930333,11.5455172 17.8940308,11.5318263 17.8954411,11.5181758 C17.8976016,11.49843 17.900413,11.479347 17.9040027,11.4605402 C17.9072266,11.443013 17.9114375,11.4248985 17.9163947,11.4069598 C17.9196741,11.3956173 17.9229526,11.3848835 17.9264869,11.3742666 C17.9330364,11.3539705 17.9408978,11.3335579 17.9497697,11.3135072 C17.9550659,11.3022124 17.9603888,11.2910783 17.9660019,11.2801173 C17.9749641,11.2618327 17.985351,11.2435798 17.9966393,11.2257611 C18.0043488,11.2143633 18.0116979,11.203519 18.019347,11.1929053 C18.0282755,11.1797797 18.0384243,11.1666986 18.04911,11.1539354 C18.065262,11.1356877 18.0753345,11.1247301 18.0857542,11.1141144 L18.1264298,11.0754949 L25.5647835,4.65509246 C25.6631158,4.57021703 25.7832365,4.51588428 25.9104853,4.4975462 L26.0070293,4.49062683 L86.2759683,4.49062683 C86.4235355,4.49062683 86.5659886,4.53880972 86.6824249,4.62625796 L86.7645474,4.69906705 L92.9196328,11.1194695 L92.9326348,11.1336017 L92.9495522,11.1536268 L92.9315522,11.1326268 L92.9645522,11.1726268 L92.9710284,11.1798808 Z" id="Combined-Shape" fill="#333333" fill-rule="nonzero"></path>
                    </g>
                </g>
            </g>
        </g>
    </g>
</svg>