<?xml version="1.0" encoding="UTF-8"?>
<svg width="462px" height="212px" viewBox="0 0 462 212" version="1.1" xmlns="http://www.w3.org/2000/svg" xmlns:xlink="http://www.w3.org/1999/xlink">
    <title>shapes</title>
    <g id="implementation" stroke="none" stroke-width="1" fill="none" fill-rule="evenodd">
        <g id="Verkauf-–-Desktop" transform="translate(-558.000000, -590.000000)" fill="#A9DFF3" fill-rule="nonzero">
            <path d="M582.345575,591.986398 C581.716098,590.742032 580.199595,590.262854 578.978438,590.887904 L578.820929,590.975722 L560.152016,602.267289 C558.970592,602.981852 558.592127,604.518855 559.306691,605.700279 C559.990187,606.830337 561.426159,607.225741 562.583663,606.632634 L562.739681,606.545605 L579.102031,596.649442 L587.732466,613.71217 C588.361942,614.956536 589.878445,615.435714 591.099602,614.810665 L591.257113,614.722847 L607.618821,604.826499 L616.249896,621.889412 C616.879373,623.133778 618.395876,623.612956 619.617033,622.987906 L619.774542,622.900088 L636.136847,613.002872 L644.767326,630.066654 C645.363472,631.245131 646.765459,631.747916 647.964473,631.243975 L648.126622,631.168985 C649.305099,630.572839 649.807885,629.170852 649.303943,627.971838 L649.228953,627.809689 L639.380436,608.340881 C638.750959,607.096515 637.234456,606.617338 636.013299,607.242387 L635.85579,607.330205 L619.495292,617.225411 L610.863005,600.16364 C610.233529,598.919274 608.717026,598.440096 607.495869,599.065146 L607.338359,599.152964 L590.977265,609.049039 L582.345575,591.986398 Z M1016.4774,673.291605 C1017.82136,672.975156 1019.16738,673.808118 1019.48383,675.152077 C1019.78762,676.442278 1019.03212,677.734383 1017.78214,678.115661 L1017.62336,678.158511 L952.668854,693.452699 C951.324895,693.769148 949.978869,692.936186 949.66242,691.592227 C949.35863,690.302027 950.114136,689.009921 951.364111,688.628643 L951.522893,688.585793 L1016.4774,673.291605 Z M692.346137,757.761995 L682.244172,788.387969 C681.642873,790.210917 679.296566,790.704183 678.012132,789.277674 L656.599952,765.497039 C655.315518,764.070531 656.051338,761.788637 657.927152,761.381183 L689.441297,754.535843 C691.331624,754.125236 692.952088,755.924943 692.346137,757.761995 Z M686.227728,760.350102 L663.199436,765.353077 L678.845717,782.730033 L686.227728,760.350102 Z M946.360531,761.763487 L974.617263,768.287068 C975.962587,768.59766 976.801403,769.940046 976.49081,771.285371 L969.96723,799.542103 C969.656637,800.887427 968.314251,801.726243 966.968927,801.41565 L938.712195,794.89207 C937.366871,794.581477 936.528055,793.239091 936.838648,791.893767 L943.362228,763.637035 C943.672821,762.291711 945.015207,761.452895 946.360531,761.763487 Z M947.672539,767.197325 L942.273714,790.582207 L965.658595,795.981032 L971.057421,772.59615 L947.672539,767.197325 Z" id="shapes"></path>
        </g>
    </g>
</svg>