<?xml version="1.0" encoding="UTF-8"?>
<svg width="157px" height="186px" viewBox="0 0 157 186" version="1.1" xmlns="http://www.w3.org/2000/svg" xmlns:xlink="http://www.w3.org/1999/xlink">
    <title>shapes-left</title>
    <g id="implementation" stroke="none" stroke-width="1" fill="none" fill-rule="evenodd">
        <g id="Lastenrad-Leasing-–-Desktop" transform="translate(-343.000000, -162.000000)" fill="#FFF2AB" fill-rule="nonzero">
            <path d="M420.673764,174.133414 C421.799562,173.310453 423.368318,173.57198 424.17261,174.683297 L424.273083,174.833051 L435.780943,193.369419 C436.509194,194.542456 436.148625,196.083755 434.975588,196.812006 C433.853553,197.508595 432.394583,197.208984 431.632505,196.155026 L431.533001,196.006652 L421.446824,179.760959 L406.010715,191.045622 C404.884917,191.868583 403.31616,191.607056 402.511868,190.495739 L402.411394,190.345985 L392.325872,174.10042 L376.889108,185.384955 C375.76331,186.207917 374.194554,185.946389 373.390262,184.835072 L373.289789,184.685318 L363.205111,168.438898 L347.767502,179.724288 C346.701314,180.503674 345.223875,180.315171 344.384331,179.321815 L344.2739,179.181384 C343.494514,178.115197 343.683017,176.637757 344.676373,175.798213 L344.816804,175.687782 L362.43055,162.81208 C363.556349,161.989119 365.125105,162.250646 365.929397,163.361963 L366.029871,163.511717 L376.115853,179.756317 L391.552157,168.472747 C392.677955,167.649786 394.246712,167.911313 395.051004,169.02263 L395.151477,169.172384 L405.236614,185.417838 L420.673764,174.133414 Z M480.320098,309.118229 C490.813508,309.118229 499.320098,317.624819 499.320098,328.118229 C499.320098,338.611639 490.813508,347.118229 480.320098,347.118229 C469.826687,347.118229 461.320098,338.611639 461.320098,328.118229 C461.320098,317.624819 469.826687,309.118229 480.320098,309.118229 Z M480.320098,314.118229 C472.588111,314.118229 466.320098,320.386242 466.320098,328.118229 C466.320098,335.850215 472.588111,342.118229 480.320098,342.118229 C488.052084,342.118229 494.320098,335.850215 494.320098,328.118229 C494.320098,320.386242 488.052084,314.118229 480.320098,314.118229 Z" id="shapes-left"></path>
        </g>
    </g>
</svg>