<?xml version="1.0" encoding="UTF-8"?>
<svg width="164px" height="101px" viewBox="0 0 164 101" version="1.1" xmlns="http://www.w3.org/2000/svg" xmlns:xlink="http://www.w3.org/1999/xlink">
    <title>shapes</title>
    <g id="implementation" stroke="none" stroke-width="1" fill="none" fill-rule="evenodd">
        <g id="Impressum-–-Mobile" transform="translate(-176.000000, -97.000000)" fill="#F7D0DA" fill-rule="nonzero">
            <path d="M201.139328,100.239806 L195.128921,121.099456 C194.707248,122.562907 192.86981,123.036843 191.792893,121.959926 L176.943651,107.110684 C175.866734,106.033767 176.34067,104.196329 177.804121,103.774656 L198.663771,97.7642488 C200.175368,97.328704 201.574873,98.7282089 201.139328,100.239806 Z M196.294036,102.609541 L182.170285,106.679648 L192.224636,116.733999 L196.294036,102.609541 Z M321.199029,196.103892 C321.407356,197.19295 322.456199,197.893983 323.526279,197.695064 L323.686848,197.658413 L337.811176,193.828316 C338.877244,193.53923 339.507113,192.440659 339.218027,191.374591 C338.944156,190.36463 337.943768,189.746163 336.932776,189.92966 L336.764302,189.967739 L324.721481,193.233055 L322.377343,180.973986 C322.169016,179.884928 321.120173,179.183894 320.050093,179.382814 L319.889524,179.419465 L307.847443,182.684269 L305.502565,170.425712 C305.294238,169.336655 304.245395,168.635621 303.175315,168.83454 L303.014746,168.871192 L290.971498,172.13665 L288.627787,159.877439 C288.431178,158.84964 287.480493,158.157197 286.45851,158.263613 L286.287636,158.288825 C285.259837,158.485433 284.567394,159.436118 284.67381,160.458102 L284.699022,160.628976 L287.449473,175.007346 C287.657799,176.096403 288.706642,176.797437 289.776723,176.598517 L289.937292,176.561866 L301.978307,173.296631 L304.324251,185.555619 C304.532577,186.644677 305.58142,187.34571 306.651501,187.146791 L306.81207,187.110139 L318.853722,183.845099 L321.199029,196.103892 Z M258.775851,103.587832 C259.653826,104.162529 259.931287,105.310006 259.438174,106.215689 L259.353886,106.356563 L237.296135,140.054575 C236.691191,140.97876 235.451587,141.237554 234.527403,140.63261 C233.649428,140.057913 233.371967,138.910436 233.86508,138.004753 L233.949369,137.863878 L256.007119,104.165866 C256.612063,103.241682 257.851667,102.982887 258.775851,103.587832 Z" id="shapes"></path>
        </g>
    </g>
</svg>