<?xml version="1.0" encoding="UTF-8"?>
<svg width="95px" height="111px" viewBox="0 0 95 111" version="1.1" xmlns="http://www.w3.org/2000/svg" xmlns:xlink="http://www.w3.org/1999/xlink">
    <title>shapes-right</title>
    <g id="implementation" stroke="none" stroke-width="1" fill="none" fill-rule="evenodd">
        <g id="Lastenrad-Leasing-–-Desktop" transform="translate(-1185.000000, -254.000000)" fill="#FFF2AB" fill-rule="nonzero">
            <path d="M1224.09711,345.132885 C1222.75985,344.789248 1221.3972,345.594743 1221.05357,346.932008 C1220.72368,348.215783 1221.45282,349.522944 1222.69481,349.929491 L1222.85269,349.975552 L1284.0225,365.694365 C1285.35977,366.038002 1286.72241,365.232508 1287.06605,363.895242 C1287.39594,362.611467 1286.66679,361.304307 1285.4248,360.89776 L1285.26692,360.851699 L1224.09711,345.132885 Z M1194.6707,254.536519 L1222.92743,261.0601 C1224.27276,261.370692 1225.11157,262.713078 1224.80098,264.058403 L1218.2774,292.315135 C1217.96681,293.660459 1216.62442,294.499275 1215.2791,294.188682 L1187.02237,287.665102 C1185.67704,287.354509 1184.83823,286.012123 1185.14882,284.666799 L1191.6724,256.410067 C1191.98299,255.064743 1193.32538,254.225927 1194.6707,254.536519 Z M1195.98289,259.970365 L1190.58406,283.355246 L1213.96894,288.754071 L1219.36777,265.36919 L1195.98289,259.970365 Z" id="shapes-right"></path>
        </g>
    </g>
</svg>