<?xml version="1.0" encoding="UTF-8"?>
<svg width="378px" height="203px" viewBox="0 0 378 203" version="1.1" xmlns="http://www.w3.org/2000/svg" xmlns:xlink="http://www.w3.org/1999/xlink">
    <title>shapes</title>
    <g id="implementation" stroke="none" stroke-width="1" fill="none" fill-rule="evenodd">
        <g id="Werkstatt-–-Desktop" transform="translate(-42.000000, -475.000000)" fill="#F7D0DA" fill-rule="nonzero">
            <path d="M112.399286,510.646159 C113.114031,511.843583 114.660266,512.215808 115.834847,511.507098 L115.985847,511.408506 L133.821623,498.842168 C134.950324,498.046933 135.220652,496.487274 134.425416,495.358573 C133.664757,494.278946 132.2047,493.984674 131.091389,494.657079 L130.941821,494.75478 L115.309801,505.768614 L105.510004,489.34908 C104.795258,488.151656 103.249023,487.779431 102.074442,488.488141 L101.923442,488.586733 L86.2913041,499.59952 L76.4916249,483.181033 C75.7768792,481.983609 74.2306446,481.611384 73.0560635,482.320094 L72.9050638,482.418686 L57.2735774,493.431612 L47.4732461,477.012986 C46.7963459,475.878965 45.3627015,475.475202 44.2017619,476.061554 L44.0452389,476.147673 C42.9112177,476.824573 42.5074543,478.258218 43.093807,479.419157 L43.1799257,479.57568 L54.3625271,498.310065 C55.0772738,499.50749 56.6235083,499.879715 57.7980895,499.171004 L57.9490892,499.072412 L73.5798374,488.05948 L83.3809069,504.478112 C84.0956526,505.675537 85.6418871,506.047761 86.8164683,505.339051 L86.967468,505.240459 L102.598334,494.228574 L112.399286,510.646159 Z M360.949246,639.422175 C359.756532,638.726618 358.225786,639.129643 357.530229,640.322357 C356.863654,641.465374 357.206019,642.918841 358.285457,643.650163 L358.430411,643.741373 L416.075126,677.358138 C417.26784,678.053695 418.798585,677.650669 419.494142,676.457956 C420.160718,675.314938 419.818352,673.861472 418.738914,673.130149 L418.59396,673.038939 L360.949246,639.422175 Z M96.6401211,585.587795 L105.125402,616.700493 C105.630471,618.552412 107.947747,619.167798 109.305079,617.810466 L131.932496,595.183049 C133.289828,593.825718 132.674441,591.508442 130.822523,591.003373 L99.7098242,582.518092 C97.8435769,582.009115 96.1311446,583.721547 96.6401211,585.587795 Z M102.614419,588.493133 L125.350024,594.693752 L108.815039,611.228737 L102.614419,588.493133 Z M358.670703,518.536519 L386.927434,525.0601 C388.272759,525.370692 389.111575,526.713078 388.800982,528.058403 L382.277401,556.315135 C381.966809,557.660459 380.624423,558.499275 379.279099,558.188682 L351.022367,551.665102 C349.677042,551.354509 348.838227,550.012123 349.148819,548.666799 L355.6724,520.410067 C355.982992,519.064743 357.325378,518.225927 358.670703,518.536519 Z M359.982885,523.970365 L354.58406,547.355246 L377.968941,552.754071 L383.367767,529.36919 L359.982885,523.970365 Z" id="shapes"></path>
        </g>
    </g>
</svg>