<?xml version="1.0" encoding="UTF-8"?>
<svg width="240px" height="140px" viewBox="0 0 240 140" version="1.1" xmlns="http://www.w3.org/2000/svg" xmlns:xlink="http://www.w3.org/1999/xlink">
    <title>shapes</title>
    <g id="implementation" stroke="none" stroke-width="1" fill="none" fill-rule="evenodd">
        <g id="Impressum-–-Desktop" transform="translate(-335.000000, -129.000000)" fill="#F7D0DA" fill-rule="nonzero">
            <path d="M548.412668,266.51299 C548.674766,267.882658 550.000443,268.761278 551.346582,268.497039 L551.522195,268.456038 L572.580284,262.747737 C573.912902,262.386499 574.700362,261.013357 574.339123,259.680738 C573.993591,258.40606 572.722234,257.630166 571.446087,257.881245 L571.272124,257.921899 L552.815891,262.92531 L549.222891,244.144008 C548.960793,242.77434 547.635116,241.89572 546.288978,242.15996 L546.113363,242.20096 L527.657378,247.203347 L524.064131,228.42307 C523.802033,227.053402 522.476356,226.174782 521.130217,226.439021 L520.954604,226.480022 L502.499183,231.482763 L498.905371,212.702132 C498.657151,211.404987 497.448061,210.535238 496.15659,210.689165 L495.980052,210.716556 C494.682907,210.964776 493.813159,212.173866 493.967085,213.465337 L493.994476,213.641875 L498.095147,235.071113 C498.357246,236.440782 499.682923,237.319402 501.029061,237.055162 L501.204675,237.014161 L519.659963,232.010831 L523.253908,250.792051 C523.516006,252.16172 524.841683,253.04034 526.187822,252.7761 L526.363435,252.7351 L544.818476,247.732794 L548.412668,266.51299 Z M371.524608,132.971502 L363.039327,164.0842 C362.534258,165.936119 360.216982,166.551505 358.85965,165.194174 L336.232233,142.566757 C334.874902,141.209425 335.490288,138.892149 337.342206,138.38708 L368.454905,129.901799 C370.321152,129.392822 372.033584,131.105255 371.524608,132.971502 Z M365.550582,135.876112 L342.814271,142.077439 L359.349963,158.613131 L365.550582,135.876112 Z M415.849594,181.140193 C416.858073,181.992935 418.345136,181.90925 419.252742,180.977669 L419.372815,180.845388 L458.134414,135.004698 C459.025916,133.950379 458.893927,132.372979 457.839608,131.481476 C456.831129,130.628735 455.344066,130.71242 454.43646,131.644001 L454.316387,131.776282 L415.554788,177.616972 C414.663286,178.671291 414.795275,180.248691 415.849594,181.140193 Z" id="shapes"></path>
        </g>
    </g>
</svg>