<?xml version="1.0" encoding="UTF-8"?>
<svg width="634px" height="380px" viewBox="0 0 634 380" version="1.1" xmlns="http://www.w3.org/2000/svg" xmlns:xlink="http://www.w3.org/1999/xlink">
    <title>shapes</title>
    <g id="implementation" stroke="none" stroke-width="1" fill="none" fill-rule="evenodd">
        <g id="Kinderrad-Abo-–-Desktop" transform="translate(-646.000000, -180.000000)" fill="#9FD6C3" fill-rule="nonzero">
            <path d="M1270.41088,558.000374 C1271.12563,559.197799 1272.67186,559.570024 1273.84644,558.861313 L1273.99744,558.762722 L1291.83322,546.196383 C1292.96192,545.401148 1293.23225,543.841489 1292.43701,542.712788 C1291.67635,541.633161 1290.2163,541.338889 1289.10299,542.011295 L1288.95342,542.108995 L1273.32144,553.12276 L1263.5216,536.703296 C1262.80686,535.505871 1261.26062,535.133646 1260.08604,535.842357 L1259.93504,535.940948 L1244.30294,546.953666 L1234.50322,530.535249 C1233.78848,529.337824 1232.24224,528.965599 1231.06766,529.67431 L1230.91666,529.772902 L1215.28522,540.785757 L1205.48484,524.367202 C1204.80794,523.233181 1203.3743,522.829417 1202.21336,523.41577 L1202.05684,523.501889 C1200.92281,524.178789 1200.51905,525.612433 1201.1054,526.773373 L1201.19152,526.929896 L1212.37412,545.664281 C1213.08887,546.861705 1214.63511,547.23393 1215.80969,546.525219 L1215.96069,546.426628 L1231.59148,535.413625 L1241.3925,551.832328 C1242.10725,553.029752 1243.65348,553.401977 1244.82807,552.693266 L1244.97907,552.594675 L1260.60997,541.58272 L1270.41088,558.000374 Z M646.204765,228.823222 C646.705776,227.598559 648.067298,226.985339 649.304622,227.396493 L649.465227,227.455966 L711.227496,252.722981 C712.505405,253.245775 713.117547,254.705533 712.594753,255.983442 C712.093742,257.208105 710.73222,257.821325 709.494896,257.410171 L709.334291,257.350699 L647.572022,232.083684 C646.294113,231.56089 645.681971,230.101131 646.204765,228.823222 Z M1203.38339,438.5 C1192.88998,438.5 1184.38339,447.00659 1184.38339,457.5 C1184.38339,467.99341 1192.88998,476.5 1203.38339,476.5 C1213.8768,476.5 1222.38339,467.99341 1222.38339,457.5 C1222.38339,447.00659 1213.8768,438.5 1203.38339,438.5 Z M1203.38339,443.5 C1211.11538,443.5 1217.38339,449.768014 1217.38339,457.5 C1217.38339,465.231986 1211.11538,471.5 1203.38339,471.5 C1195.65141,471.5 1189.38339,465.231986 1189.38339,457.5 C1189.38339,449.768014 1195.65141,443.5 1203.38339,443.5 Z M741.26293,183.587795 L732.777649,214.700493 C732.27258,216.552412 729.955304,217.167798 728.597972,215.810466 L705.970555,193.183049 C704.613224,191.825718 705.22861,189.508442 707.080529,189.003373 L738.193227,180.518092 C740.059474,180.009115 741.771907,181.721547 741.26293,183.587795 Z M735.288691,186.492191 L712.552379,192.693518 L729.088071,209.22921 L735.288691,186.492191 Z" id="shapes"></path>
        </g>
    </g>
</svg>